<svg  fill="#3899e1" xmlns="http://www.w3.org/2000/svg" xmlns:xlink="http://www.w3.org/1999/xlink" version="1.1" x="0px" y="0px" viewBox="0 0 95 118.75" enable-background="new 0 0 95 95" xml:space="preserve">
    <g>
        <path  d="M65.138,42.856l-0.628,0.63l-0.629-0.63c-5.527-5.525-14.489-5.525-20.017,0c-5.527,5.528-5.527,14.49,0,20.018    L64.51,83.518l20.645-20.645c5.527-5.527,5.527-14.489,0-20.018C79.626,37.331,70.666,37.331,65.138,42.856z"/>
        <path d="M40.329,66.409c-7.468-7.468-7.468-19.619-0.001-27.088c3.619-3.617,8.429-5.608,13.545-5.608     c3.844,0,7.515,1.124,10.637,3.217c3.125-2.094,6.794-3.217,10.637-3.217c3.596,0,7.029,1.003,10.015,2.843     c0.681-6.572-1.489-13.384-6.526-18.42c-8.873-8.871-23.257-8.871-32.131,0l-1.008,1.01l-1.01-1.01     c-8.872-8.871-23.258-8.871-32.131,0c-8.873,8.873-8.873,23.26,0,32.133l33.141,33.139l5.916-5.916L40.329,66.409z"/>

    </g>
</svg>