<svg fill="#3899e1" xmlns="http://www.w3.org/2000/svg" xmlns:xlink="http://www.w3.org/1999/xlink" version="1.1" x="0px" y="0px" viewBox="0 0 30 37.5" xml:space="preserve"><g transform="translate(-450 -440)"><g xmlns="http://www.w3.org/2000/svg" xmlns:xlink="http://www.w3.org/1999/xlink"><path d="M469,469h3c0.553,0,1-0.447,1-1v-5.277c0.596-0.347,1-0.984,1-1.723v-3c0-0.951-0.666-1.744-1.556-1.946    c0.343-0.428,0.556-0.963,0.556-1.554c0-1.381-1.119-2.5-2.5-2.5s-2.5,1.119-2.5,2.5c0,0.591,0.213,1.126,0.556,1.554    c-0.07,0.016-0.136,0.04-0.203,0.063L463.667,448h-0.722c0.649-0.636,1.055-1.52,1.055-2.5c0-1.934-1.566-3.5-3.5-3.5    s-3.5,1.566-3.5,3.5c0,0.98,0.405,1.864,1.055,2.5H458c-1.104,0-2,0.896-2,2v7c0,0.571,0.243,1.084,0.628,1.448L453.667,464H458v4    c0,0.553,0.447,1,1,1h3c0.553,0,1-0.447,1-1v-4h4.333L463,455.875v-3.03l3.319,5.748c0.163,0.282,0.405,0.488,0.681,0.613V461    c0,0.738,0.404,1.376,1,1.723V468C468,468.553,468.447,469,469,469z M470.5,453c0.827,0,1.5,0.673,1.5,1.5s-0.673,1.5-1.5,1.5    s-1.5-0.673-1.5-1.5S469.673,453,470.5,453z M458,445.5c0-1.379,1.121-2.5,2.5-2.5s2.5,1.121,2.5,2.5s-1.121,2.5-2.5,2.5    S458,446.879,458,445.5z M459,468v-4h1v4H459z M462,468h-1v-4h1V468z M463.667,451.999L463.667,451.999L463,452h-1v1v3.125    l3.667,6.875H463h-5h-2.667l3.667-6.875V453v-1h-1v3.875l-0.857,1.608C457.06,457.338,457,457.179,457,457v-7c0-0.552,0.448-1,1-1    h1.667h1H461h0.935h0.732h0.425l4.426,7.668c-0.276,0.308-0.455,0.7-0.498,1.136L463.667,451.999z M468,458c0-0.552,0.448-1,1-1h1    h1h1c0.552,0,1,0.448,1,1v3h-1v7h-1v-5c-0.596,0-1,0-1,0v5h-1v-7h-1V458z"/></g></g><text x="0" y="45" fill="#000000" font-size="5px" font-weight="bold" font-family="'Helvetica Neue', Helvetica, Arial-Unicode, Arial, Sans-serif">Created by Hea Poh Lin</text><text x="0" y="50" fill="#000000" font-size="5px" font-weight="bold" font-family="'Helvetica Neue', Helvetica, Arial-Unicode, Arial, Sans-serif">from the Noun Project</text></svg>