<svg fill="#3899e1" xmlns="http://www.w3.org/2000/svg" xmlns:xlink="http://www.w3.org/1999/xlink" version="1.1" x="0px" y="0px" viewBox="0 0 512 640" enable-background="new 0 0 512 512" xml:space="preserve"><g><path d="M277.331,149.111c0,0,69.671-40.633,69.671-87.077c0-22.445-18.202-40.632-40.64-40.632   c-11.375,0-21.656,4.671-29.031,12.194c-7.374-7.523-17.647-12.194-29.022-12.194c-22.445,0-40.64,18.187-40.64,40.632   C207.668,108.479,277.331,149.111,277.331,149.111z M248.309,42.729c5.227,0,10.125,2.062,13.789,5.805l15.233,15.547   l15.234-15.547c3.672-3.742,8.562-5.805,13.797-5.805c10.641,0,19.297,8.664,19.297,19.305c0,12.531-9.719,28.421-27.375,44.749   c-7.484,6.906-15.062,12.688-20.953,16.828c-5.874-4.148-13.46-9.922-20.937-16.828c-17.664-16.328-27.391-32.218-27.391-44.749   C229.004,51.394,237.668,42.729,248.309,42.729z"/><path d="M490.312,422.286l-0.844-0.25c-14.375-3.875-24.906-7.594-31.249-10.062c-4.188-1.594-7.781-3.125-10.875-4.562   c36.249-6.5,48.78-16.968,50.593-18.624l8.875-8.219l-9.266-7.781c-11.766-9.906-14.234-34.625-16.859-60.843   c-2.594-26-5.531-55.507-18.624-78.616c-7.422-13.078-17.594-23.179-30.266-30.015c-13.891-7.5-31.297-11.328-51.796-11.383   c-20.438,0.055-37.844,3.883-51.733,11.383c-12.672,6.836-22.844,16.937-30.266,30.015c-13.094,23.109-16.031,52.616-18.625,78.616   c-2.625,26.218-5.094,50.937-16.858,60.843l-9.25,7.781l8.867,8.219c1.797,1.656,14.335,12.155,50.616,18.624   c-3.016,1.406-6.5,2.875-10.531,4.438c-2.609-1.656-5.469-3.031-8.5-4.062l-1.031-0.312c-17.438-4.719-30.21-9.218-37.905-12.187   c-27.25-10.5-34.359-18.062-36.164-21.625c-0.062-0.125-0.117-0.281-0.172-0.406l-0.109-14.438   c18.32-21.5,32.328-50.374,32.328-79.78c0,0,17.086-63.779-32.25-108.443c-9.046-8.195-30.569-17.484-57.218-17.484   c-18.796,0-40.132,4.617-61.452,17.484C73.647,186.345,54.64,255.93,54.64,255.93s5.734,3.242,15.844,6.375   c-0.758,5.375-1.156,10.952-1.156,16.733c0,29.406,14.007,58.28,32.327,79.78l-0.102,14.438c-0.055,0.125-0.109,0.281-0.172,0.406   c-1.812,3.562-8.906,11.125-36.163,21.625c-7.688,2.969-20.484,7.468-37.742,12.155l-1.188,0.344   C10.578,413.036,0,427.755,0,444.38v46.218h248.074h71.913H512v-38.124C512,438.786,503.281,426.63,490.312,422.286z    M348.205,368.131c-13.733-16.094-21.608-35.062-21.608-52.03c0-1.25,0.031-2.5,0.094-3.719c5.578-2,11.187-4.375,16.812-7.156   c15.422-7.625,30.984-18.188,46.25-31.406c1.078-0.922,2.125-1.851,3.156-2.772c7.999,5.819,20.749,13.991,36.312,20.054   c2.812,7.5,4.266,15.906,4.266,25c0,16.969-7.891,35.937-21.609,52.03c-12.905,15.156-26.39,21.969-31.843,21.969   C374.596,390.1,361.111,383.287,348.205,368.131z M462.501,382.068c-10.625,3.094-22.438,5.219-34.297,6.594l-0.047-6.75   c15.109-17.75,26.656-41.531,26.656-65.812c0-6.375-0.562-12.469-1.672-18.25c1.547,0.281,3.125,0.5,4.703,0.719   c0.594,5.156,1.109,10.344,1.625,15.5c2.438,24.312,4.749,47.593,14.812,63.874C471.25,379.225,467.359,380.662,462.501,382.068z    M443.501,243.852c5.391,9.508,8.75,20.68,11.062,32.577c-19-3.75-35.734-13.421-45.969-20.452   c12.938-13.328,21.156-24.156,23.141-26.852C436.345,233.203,440.251,238.102,443.501,243.852z M316.565,243.852   c11.781-20.789,31.968-30.507,63.437-30.585c12.891,0.031,23.874,1.672,33.171,5.022c-4.609,6-18.327,22.977-37.733,39.711   c-29.031,25.038-54.015,35.319-73.03,38.913C304.722,277.538,308.159,258.672,316.565,243.852z M285.784,377.943   c9.406-15.219,12.047-36.469,14.328-59.03c1.719-0.219,3.453-0.5,5.172-0.812c0.609,23.562,11.938,46.562,26.625,63.812   l-0.031,6.75c-11.875-1.375-23.688-3.5-34.312-6.594C292.722,380.662,288.831,379.225,285.784,377.943z M87.116,227.328   c12.703-30.694,21.937-37.429,23.656-38.468c15.852-9.562,32.812-14.414,50.429-14.414c22.438,0,38.594,8.055,42.906,11.961   c14.632,13.25,23.632,30.038,26.812,49.96c-1.352-1.742-2.852-3.445-4.594-5.062c-6.547-6.086-14.546-9.164-23.773-9.164   c-9.906,0-21.429,3.516-39.773,12.148c-17.578,8.273-35.569,12.469-53.476,12.469c-11.227,0-20.836-1.672-28.21-3.617   C82.78,238.328,84.803,232.914,87.116,227.328z M91.389,266.891c5.484,0.742,11.477,1.203,17.914,1.203   c17.938,0,39.304-3.555,62.562-14.5c15.188-7.141,24.43-10.125,30.687-10.125c10.094,0,12.43,7.742,19.429,18.234   c1.578,2.375,4.008,4.586,6.789,6.586c0.375,3.5,0.562,7.093,0.562,10.749c0,21.625-9.945,45.688-27.296,66.03   c-17.632,20.688-34.804,28.188-42.039,28.188s-24.405-7.5-42.038-28.188c-17.352-20.343-27.297-44.405-27.297-66.03   C90.662,274.882,90.912,270.836,91.389,266.891z M21.335,469.254V444.38c0-7.344,4.57-13.812,11.406-16.25l0.516-0.156   c18.086-4.906,31.516-9.656,39.625-12.781c26.937-10.375,41.593-20.187,47.523-31.874l0.016-0.031l0.023-0.031   c0.281-0.562,0.492-1.062,0.656-1.438l1.383-3.062c13.016,9.938,26.39,15.844,37.515,15.844c11.125,0,24.5-5.906,37.523-15.844   l1.383,3.062c0.164,0.375,0.375,0.844,0.656,1.438h0.008l0.016,0.031c5.906,11.688,20.569,21.53,47.515,31.905   c8.055,3.094,21.469,7.844,39.718,12.781l0.375,0.125c6.875,2.406,11.469,8.938,11.469,16.281v24.874H21.335z M490.656,469.254   H319.987V444.38c0-5.438-1.141-10.656-3.203-15.406c18.594-7.906,29.187-15.812,33.937-25.156v-0.031l0.031-0.031   c0.266-0.562,0.469-1.031,0.625-1.375l0.797-1.781c9.734,6.844,19.562,10.812,27.859,10.812c8.312,0,18.125-3.969,27.874-10.812   l0.781,1.719c0.125,0.344,0.344,0.812,0.594,1.344l0.031,0.062l0.031,0.062c5.328,10.531,18.031,19.188,41.188,28.094   c6.719,2.594,17.89,6.562,33.077,10.688l0.172,0.031c4.125,1.5,6.875,5.438,6.875,9.875V469.254z"/></g></svg>