<svg  fill="#3899e1" xmlns="http://www.w3.org/2000/svg" xmlns:xlink="http://www.w3.org/1999/xlink" version="1.1" x="0px" y="0px" viewBox="-42.85 0 62.183 125" style="enable-background:new -42.85 0 62.183 100;" xml:space="preserve"><style type="text/css">
</style><g><path d="M-7.377,50.405c0.527,0.088,1.054,0.176,1.669,0.263c0-2.284,0-4.567,0-6.851c0-1.142,0.615-2.284,1.669-2.811   c-0.439-0.439-0.79-0.615-1.405-0.615c-1.142,0-1.932,0.878-1.932,2.02C-7.377,45.047-7.377,47.682-7.377,50.405z"/></g><g><path d="M-5.357,43.818c0,2.284,0,4.655,0,6.939c3.689,0.615,7.29,1.23,10.979,1.757c0-2.284,0-4.567,0-6.763   c0-0.966,0.615-1.844,1.493-2.196c-0.439-0.703-0.966-1.054-1.844-1.23c-2.459-0.439-4.919-0.878-7.378-1.23   C-3.863,40.656-5.357,42.061-5.357,43.818z"/></g><g><path d="M9.838,45.662c0-1.054-0.878-2.02-1.932-2.02s-1.932,0.878-1.932,2.02c0,2.284,0,4.567,0,6.851   c1.317,0.176,2.635,0.439,3.865,0.615C9.838,50.669,9.838,48.209,9.838,45.662z"/></g><g><g><path class="st0" d="M10.98,53.83V17.556l-20.64-3.425v36.362L10.98,53.83z M12.122,16.59v38.646l-22.924-3.777V12.813    L12.122,16.59z"/></g></g><g><path d="M-30.181,69.008c-0.966-0.176-1.669-0.966-1.669-1.932c0-7.553,0-15.107,0-22.66c0-1.142,0.878-2.02,2.02-2.02   c0.615,0,0.966,0.176,1.405,0.615c-1.054,0.527-1.757,1.669-1.757,2.811C-30.181,53.462-30.181,61.191-30.181,69.008z"/></g><g><path d="M-18.939,44.24c-2.547-0.439-5.006-0.878-7.553-1.23c-1.757-0.263-3.25,1.054-3.25,2.811c0,5.709,0,11.418,0,17.127   c0,9.925,0,19.85,0,29.687c0,1.405,1.142,2.635,2.635,2.635s2.635-1.142,2.635-2.635c0-7.993,0-15.897,0-23.89   c0.878,0.176,1.844,0.263,2.723,0.439c0,8.256,0,16.512,0,24.768c0,1.405,1.142,2.635,2.635,2.635c1.493,0,2.635-1.142,2.635-2.635   c0-7.026,0-14.141,0-21.167c-1.142-0.176-2.02-1.142-2.02-2.371c0-7.553,0-15.107,0-22.66c0-0.966,0.615-1.844,1.493-2.196   C-17.534,44.679-18.061,44.328-18.939,44.24z"/></g><g><path d="M3.778,38.021c2.811-1.757,3.513-5.885,2.811-8.783c-0.878-3.25-3.777-6.236-7.202-4.128   c-2.811,1.757-3.513,5.885-2.811,8.783C-2.546,37.143,0.353,40.129,3.778,38.021z"/></g><g><path d="M-16.128,72.346c1.142,0,2.02-0.878,2.02-2.02c0-7.553,0-15.107,0-22.66c0-1.142-0.878-2.02-2.02-2.02   s-2.02,0.878-2.02,2.02c0,7.553,0,15.107,0,22.66C-18.148,71.468-17.27,72.346-16.128,72.346z"/></g><g><path d="M-20.344,39.936c2.898-1.757,3.601-5.885,2.811-8.783c-0.878-3.338-3.952-6.148-7.378-4.04   c-2.898,1.757-3.601,5.885-2.811,8.783C-26.844,39.234-23.77,42.044-20.344,39.936z"/></g><path d="M-16.497,8.803c-0.951-0.745-2.185-1.054-3.367-0.848c-1.105,0.18-2.099,0.797-2.759,1.705  c-0.66-0.908-1.654-1.525-2.768-1.705c-1.182-0.206-2.408,0.103-3.359,0.848c-0.951,0.737-1.551,1.851-1.654,3.05  c-0.094,1.2,0.326,2.399,1.148,3.282l6.512,6.683c0.034,0.034,0.069,0.051,0.12,0.051c0.043,0,0.086-0.017,0.111-0.051l6.521-6.683  c0.823-0.883,1.234-2.082,1.14-3.282C-14.946,10.654-15.555,9.54-16.497,8.803z"/></svg>