<svg fill="#3899e1" xmlns="http://www.w3.org/2000/svg" xmlns:xlink="http://www.w3.org/1999/xlink" version="1.1" x="0px" y="0px" viewBox="0 0 139.046 206.29125" style="enable-background:new 0 0 139.046 165.033;" xml:space="preserve"><g><path d="M68.931,39.441c-0.746-4.355,2.18-8.492,6.535-9.236c4.355-0.746,8.49,2.18,9.236,6.535   c0.002,0.002,0.023,0.137,0.09,0.488c0.067,0.355,0.17,0.885,0.308,1.557c0.276,1.338,0.699,3.242,1.265,5.406   c0.321,1.248,0.7,2.591,1.119,3.957c4.137-6.355,5.617-14.262,2.643-21.377c-4.203-10.178-19.974-13.207-33.01-3.691   C40.787,35,27.143,50.228,17.083,67.764c-8.034,14-3.294,29.348,7.281,32.41c1.671,0.492,3.356,0.729,5.033,0.785   c0.827,0.198,1.686,0.314,2.573,0.314h50.162l10.017,54.739c0.97,5.307,5.599,9.021,10.808,9.021c0.657,0,1.323-0.059,1.992-0.181   c5.976-1.094,9.935-6.823,8.842-12.799l-11.669-63.762c-0.954-5.227-5.507-9.021-10.82-9.021H57.158   c5.033-7.1,10.937-13.544,17.577-19.178c-0.456-1.129-0.881-2.259-1.281-3.381C70.373,47.943,68.983,39.687,68.931,39.441z"/><path d="M124.087,1.309c-11.704-4.166-24.57,1.945-28.735,13.648c-3.754,10.55,0.843,22.04,10.356,27.256   c1.257-3.007,2.563-6.377,3.91-10.15c1.489-4.16,6.068-6.326,10.229-4.838c4.16,1.49,6.325,6.068,4.836,10.229   c-0.865,2.414-1.717,4.689-2.56,6.842c7-1.799,13.009-6.931,15.615-14.252C141.903,18.338,135.79,5.473,124.087,1.309z"/><polygon points="9.401,107.439 0,162.439 73.804,162.439 64.401,107.439  "/><path d="M119.174,29.109c-0.656-0.234-1.335-0.354-2.022-0.354c-2.528,0-4.8,1.602-5.651,3.981   c-1.41,3.954-2.742,7.376-3.991,10.358c-3.463,8.274-6.267,13.075-8.188,15.778c-2.026,2.893-3.546,4.107-4.105,4.496l-1.425,0.988   l-1.182-1.148c-0.819-0.799-2.085-2.428-3.158-4.564c-1.378-2.616-2.543-5.743-3.429-8.471c-0.743-2.288-1.29-4.297-1.593-5.477   c-0.472-1.805-0.906-3.658-1.289-5.508c-0.141-0.686-0.245-1.226-0.313-1.586l-0.098-0.525c-0.495-2.893-2.979-4.99-5.906-4.99   c-0.339,0-0.683,0.029-1.021,0.088c-1.581,0.27-2.96,1.141-3.886,2.447c-0.924,1.309-1.287,2.898-1.029,4.402l0.04,0.211   c0.477,2.639,1.865,9.559,4.41,16.803c0.302,0.85,0.64,1.761,1.011,2.705c1.216,3.096,2.833,6.591,5.084,9.768   c1.58,2.191,3.156,3.799,4.973,5.066c1.289,0.908,3.967,2.434,7.407,2.434h0.105c2.771,0,5.713-1.025,8.285-2.885   c3.626-2.635,6.686-6.404,10.226-12.596c2.443-4.32,4.873-9.536,7.357-15.769c0.995-2.498,1.998-5.142,3.015-7.982   c0.541-1.51,0.461-3.139-0.224-4.586C121.891,30.744,120.683,29.648,119.174,29.109z"/></g></svg>