<svg fill="#3899e1" xmlns="http://www.w3.org/2000/svg" xmlns:xlink="http://www.w3.org/1999/xlink" version="1.1" x="0px" y="0px" viewBox="0 0 100 125" enable-background="new 0 0 100 100" xml:space="preserve"><path d="M78.0903549,81.4363403c1.2177048,2.4835434-0.5902023,5.383667-3.3561783,5.383667H30.9863701  c-2.0643311,0-3.7378578-1.6736374-3.7378578-3.737854V67.7186966c-0.0641079-0.0684433-0.1411037-0.116806-0.202816-0.1888962  L15.9489307,54.622509c-1.950717-2.2695465-2.0682096-5.4644279-0.5443439-7.8662949  c0.0918274-0.1441841,0.1685963-0.2965813,0.2726288-0.4352913c0.0302286-0.0438042,0.0636511-0.0848694,0.0954771-0.127758  c0.2301931-0.2920189,0.4939241-0.5630531,0.7788725-0.8194809c0.0376434-0.0337639,0.0642204-0.0748329,0.1027775-0.1085968  c0.0252094-0.0219002,0.0545254-0.0346756,0.0799637-0.0556641c0.0047894-0.0036507,0.008213-0.008213,0.0131168-0.0118637  l11.2135735-8.1765633c2.0852051-1.5185051,5.0081463-1.0640488,6.5284748,1.0238953  c0.0791626,0.108593,0.1306114,0.2272263,0.1990509,0.3403854c2.9163246-5.3494453,8.9669571-8.7542152,15.6677933-7.7289524  c6.3577118,0.9732494,11.5106125,6.0890751,12.5475121,12.4368649c0.7189865,4.4012909-0.4971199,8.505085-2.9008102,11.6570778  c-2.7662048,3.6274376-7.1190186,5.9827614-12.0222168,5.9827614s-9.256012-2.3553238-12.0222168-5.9827614  c-1.9398804-2.5442276-3.1062508-5.7080803-3.1062508-9.1475296c0-0.2035027,0.0225868-0.4015274,0.030571-0.6032066  l-4.7376842,3.4549637l5.7994518,6.7456665c0.0051308-0.0018272,0.009697-0.0045624,0.0148277-0.0063896l1.2725677,1.4943237  c0.5590591,0.6565895,1.1368256,1.302227,1.7935295,1.8611717c2.9593277,2.5186729,6.7742958,4.0526924,10.955204,4.0526924  c3.1525612,0,6.0911293-0.8861008,8.6236038-2.3890915c1.2054977-0.7154503,2.3102684-1.5732574,3.3008537-2.5533524  c0.7675819-0.7601624,1.4838295-1.5723457,2.0968437-2.465744c2.7347221,0.924427,4.9151802,3.0105438,5.9845848,5.6651917  c0.0196228,0.0383263,0.0477982,0.069355,0.0668488,0.1076813L78.0903549,81.4363403z M85.4887314,41.5441132  c-1.6287003-1.7498398-4.061821-2.7527466-6.6742554-2.7527466c-2.9202042,0-5.9266434,1.6572151-7.7120667,4.0782433  c-0.6870499,0.9312706-0.2633896,2.2704582,0.8119507,2.6989059l0.6610336,0.2632751  c0.7178497,0.286087,1.5673294,0.1044884,2.03479-0.510582c0.9918442-1.3054199,2.6719818-2.246727,4.2042923-2.246727  c1.4278183,0,2.7176132,0.5064697,3.5396042,1.3889198c0.7341537,0.788456,1.075798,1.86026,0.9872742,3.0995178  c-0.0564651,0.7943878-1.1476593,3.5078926-6.4568329,6.1616249c-0.8367081,0.488224-1.3485413,1.3861847-1.3421555,2.3548698  l0.022583,3.4499435c0.0207672,0.9915009,0.8410416,1.7785873,1.832428,1.7575951l0.6924057-0.0145988  c0.991272-0.0205345,1.7781296-0.8404694,1.7574844-1.8319702l-0.0318222-1.5340195  c-0.0136948-0.6533928,0.3378754-1.2534027,0.897728-1.5905952c6.0692291-3.6589203,6.8208389-7.3274231,6.9005737-8.4480515  C87.7866821,45.4480553,87.0323334,43.20224,85.4887314,41.5441132z M78.2448044,62.8939781H77.3862  c-0.9915009,0-1.7953568,0.8039665-1.7953568,1.7954674s0.8038559,1.7954636,1.7953568,1.7954636h0.8586044  c0.9916153,0,1.7954712-0.8039627,1.7954712-1.7954636S79.2364197,62.8939781,78.2448044,62.8939781z"/></svg>