<svg fill="#3899e1" xmlns="http://www.w3.org/2000/svg" xmlns:xlink="http://www.w3.org/1999/xlink" version="1.1" x="0px" y="0px" viewBox="0 0 100 125" enable-background="new 0 0 100 100" xml:space="preserve"><g><path d="M68.6,18l-10.9-5.2c-1.1-0.5-2.5-0.3-3.4,0.5c-1.2-0.9-2.7-1.4-4.3-1.4c-1.6,0-3.1,0.5-4.3,1.4c-0.9-0.8-2.2-1-3.4-0.5   L31.5,18c-1.6,0.7-2.2,2.6-1.5,4.2c0.1,0.2,0.3,0.4,0.5,0.6c0.1,0.3,0.2,0.5,0.4,0.8l10.4,11.8l0,15.3l0,44.9c0,2.2,1.8,4,4,4   c2.2,0,4-1.8,4-4l0-33.7h1.8l0,33.7c0,2.2,1.8,4,4,4c2.2,0,4-1.8,4-4l0-44.9l0-15.7l10-11.4c0.2-0.2,0.3-0.5,0.4-0.8   c0.2-0.2,0.4-0.4,0.5-0.6C70.8,20.6,70.2,18.7,68.6,18z M42.8,27.6l-5-5.7l5-2.4c0.2,3.8,3.4,6.9,7.2,6.9s7-3,7.2-6.9l5,2.4l-5,5.7   H42.8z"/><g><path d="M41.2,10.6l-3.5-2.1c-0.5-0.3-0.6-0.9-0.3-1.4L37.4,7c0.3-0.5,0.9-0.6,1.4-0.3l3.5,2.1c0.5,0.3,0.6,0.9,0.3,1.4l-0.1,0.1    C42.3,10.7,41.7,10.9,41.2,10.6z"/><path d="M58.8,10.6l3.5-2.1c0.5-0.3,0.6-0.9,0.3-1.4L62.5,7c-0.3-0.5-0.9-0.6-1.4-0.3l-3.5,2.1c-0.5,0.3-0.6,0.9-0.3,1.4l0.1,0.1    C57.7,10.7,58.3,10.9,58.8,10.6z"/><path d="M44.7,7.4l-2.4-3.3C42,3.7,42.1,3,42.5,2.7l0.1-0.1c0.4-0.3,1.1-0.2,1.4,0.2l2.4,3.3c0.3,0.4,0.2,1.1-0.2,1.4l-0.1,0.1    C45.6,8,45,7.9,44.7,7.4z"/><path d="M55.3,7.4l2.4-3.3C58,3.7,57.9,3,57.5,2.7l-0.1-0.1c-0.4-0.3-1.1-0.2-1.4,0.2l-2.4,3.3c-0.3,0.4-0.2,1.1,0.2,1.4l0.1,0.1    C54.4,8,55,7.9,55.3,7.4z"/><path d="M48.9,5.5l0-4.1c0-0.5,0.4-1,1-1l0.2,0c0.5,0,1,0.4,1,1l0,4.1c0,0.5-0.4,1-1,1l-0.2,0C49.4,6.5,48.9,6.1,48.9,5.5z"/></g></g></svg>