<svg fill="#3899e1" version="1.1" xmlns="http://www.w3.org/2000/svg" xmlns:xlink="http://www.w3.org/1999/xlink" x="0px" y="0px" viewBox="0 0 100 125" enable-background="new 0 0 100 100" xml:space="preserve"><g><path d="M27.904,24.346c3.742,0,5.853,3.084,6.417,4.785l4.323,14.287c0.916,3.251-3.22,4.596-4.204,1.429
		l-3.862-13.05h-1.797l6.247,23.515h-5.682v17.685c0,3.282-4.936,3.267-4.936,0V55.185h-2.012l0.003,17.786
		c0,3.307-4.957,3.307-4.957,0V55.312H10.82l7.114-23.515h-1.928l-3.881,13.15c-0.985,3.036-5.156,1.788-4.201-1.464l4.337-14.351
		c0.493-1.725,2-4.784,5.776-4.784h9.866V24.346z"/><circle  cx="23.523" cy="17.718" r="5.225"/></g><g><circle cx="81.885" cy="17.792" r="5.362"/><path  d="M75.229,72.423c0,1.659,1.347,3.005,3.005,3.005c1.664,0,2.703-1.346,2.703-3.005l0.004-22.498l1.724,0.011
		l-0.008,22.572c0,1.658,1.264,2.92,2.925,2.92c1.658,0,3.005-1.346,3.005-3.005l0.013-40.757h1.725v16.022
		c0,3.223,4.204,3.223,4.195,0V31.324c0-3.561-2.497-7.051-6.663-7.051l-12.021-0.004c-3.794,0-6.733,3.095-6.733,6.958v16.462
		c0,3.2,4.228,3.2,4.228,0V31.666h1.906L75.229,72.423z"/></g><g><path  d="M72.397,80.33c-1.282,0-2.259,0.485-2.98,0.839c-0.208,0.105-0.522,0.259-0.609,0.268
		c-0.08,0-0.524-0.14-1.461-2.998c-0.07-0.207-0.125-0.38-0.168-0.485c-0.79-2.195-2.72-4.393-4.702-6.447l1.031-18.004
		c0-4.125-1.297-8.187-3.751-11.748l-0.898-1.305l-3.126,24.474l-6.212-5.374v-9.834h-2.697v11.37h2.222l-0.324,3.774h-1.897v11.369
		h2.697v-9.284l5.695,5.045l-0.618,7.968v1.676c0,0.604-0.099,0.604-0.266,0.604c-0.141,0-0.339-0.029-0.596-0.083
		c-0.716-0.188-1.061-0.257-1.837-0.257c-3.321,0-5.64,2.483-5.64,6.042c0,3.713,3.241,7.095,6.801,7.095
		c3.218,0,5.465-2.461,5.465-5.987c0-1.203-0.301-2.416-0.593-3.588c-0.276-1.105-0.561-2.248-0.561-3.304
		c0-2.414,1.548-5.077,3.041-6.616c0.91,0.485,1.805,1.23,2.73,2.271c2.147,2.442,2.819,4.146,3.518,7.052
		c0.088,0.319,0.169,0.648,0.261,1.037c0.238,0.984,0.485,2.001,0.937,2.942c1.287,2.721,3.492,4.282,6.045,4.282
		c3.049,0,5.349-2.4,5.349-5.585C79.254,83.832,75.922,80.33,72.397,80.33z M53.004,92.146c-2.238,0-3.913-2.222-3.913-4.207
		c0-1.521,1.097-3.099,2.931-3.099c2.413,0,3.675,2.146,3.675,4.261C55.698,90.597,54.69,92.146,53.004,92.146z M73.558,90.293
		c-1.934,0-3.562-2.9-3.562-4.723c0-1.462,1.382-2.229,2.749-2.229c1.891,0,3.737,2.403,3.737,4.195
		C76.481,89.287,75.416,90.293,73.558,90.293z"/><rect x="46.826" y="5.033"  width="2.697" height="10.617"/><rect x="46.826" y="34.571" width="2.697" height="11.369"/><rect x="46.826" y="19.426"  width="2.697" height="11.369"/></g></svg>