<svg fill="#3899e1" xmlns="http://www.w3.org/2000/svg" data-name="Layer 1" viewBox="0 0 128 160" x="0px" y="0px"><title>77 Miscellaneous 12 (2)</title><path d="M11,51H29a2,2,0,1,0,0-4H11a2,2,0,1,0,0,4Z"/><path d="M20,55a2,2,0,0,0,0,4h8a2,2,0,0,0,0-4Z"/><path d="M20,43h8a2,2,0,0,0,0-4H20a2,2,0,0,0,0,4Z"/><path d="M100,51h18a2,2,0,1,0,0-4H100a2,2,0,1,0,0,4Z"/><path d="M101,55a2,2,0,0,0,0,4h8a2,2,0,0,0,0-4Z"/><path d="M101,43h8a2,2,0,0,0,0-4h-8a2,2,0,0,0,0,4Z"/><path d="M127.09,104.22l-27.5-17.9a2,2,0,0,0-3.09,1.75s0,.24,0,.63l-7.4-6.6a2.16,2.16,0,0,1-.52-1.57l3.28-27.37a16.35,16.35,0,0,0-1.48-8.87L69.2,2.59C68.27.69,66.6-.3,65,.08a3.2,3.2,0,0,0-1,.4,3.2,3.2,0,0,0-1-.4C61.4-.3,59.73.69,58.82,2.56L37.62,44.28a16.32,16.32,0,0,0-1.5,8.81l3.3,27.51a2.15,2.15,0,0,1-.53,1.5l-7.4,6.6c0-.38,0-.6,0-.62a2,2,0,0,0-3.09-1.76L.91,104.22A2,2,0,0,0,0,105.9V126a2,2,0,0,0,2,2H31l12.31-10.92a2,2,0,0,0,0-3c-.46-.41-.9-.83-1.32-1.24,4-3.65,11.42-10.47,17.39-16.89a14.57,14.57,0,0,0,3.39-8.22,2,2,0,0,0-1.9-2.09,2,2,0,0,0-2.09,1.9,10.74,10.74,0,0,1-2.33,5.69c-5.88,6.32-13.17,13.05-17.15,16.65A36.4,36.4,0,0,1,32,93.6l9.53-8.5a6,6,0,0,0,1.83-5l-3.3-27.51a12.64,12.64,0,0,1,1.1-6.44L62,5.13h0V20h-.27c-2.26,0-4.64,2.24-5.83,4.44a125.85,125.85,0,0,0-5.33,12.31c-1,2.54-2.15,5.41-3.42,8.47a2,2,0,0,0,3.69,1.54c1.29-3.1,2.44-6,3.45-8.54a123.84,123.84,0,0,1,5.13-11.89A5.21,5.21,0,0,1,61.73,24H62V38c-2.19.29-5.16,2.09-5.81,4.87-.7,3-1.35,5.54-2.11,8.5l0,.08a2,2,0,0,0,1.45,2.39A1.93,1.93,0,0,0,56,54a2.06,2.06,0,0,0,2-1.54c.76-3,1.42-5.55,2.13-8.58.17-.75,1.18-1.4,1.91-1.68V72a2,2,0,0,0,4,0V42.16c.69.26,1.55.82,1.69,1.38.68,2.76,1.32,5.09,2.05,7.8l.33,1.19A2,2,0,0,0,72,54a2,2,0,0,0,.53-.07,2,2,0,0,0,1.4-2.45l-.33-1.2c-.73-2.68-1.36-5-2-7.7S68.08,38.34,66,38.05V24h.23a5.06,5.06,0,0,1,2.35,2.34,124.1,124.1,0,0,1,5.13,11.89c1,2.55,2.16,5.44,3.45,8.54a2,2,0,0,0,3.69-1.54c-1.28-3.07-2.42-5.94-3.42-8.47A125.83,125.83,0,0,0,72.1,24.45C70.91,22.24,68.53,20,66.27,20H66V5.14h0l20.83,41a12.66,12.66,0,0,1,1.08,6.49L84.63,80a6,6,0,0,0,1.82,5.1L96,93.59a36.4,36.4,0,0,1-7.3,16.27c-4-3.59-11.26-10.32-17.15-16.65a10.74,10.74,0,0,1-2.33-5.69,2,2,0,0,0-2-1.9h-.1a2,2,0,0,0-1.9,2.09,14.57,14.57,0,0,0,3.39,8.22c6,6.42,13.35,13.24,17.39,16.89-.42.42-.86.83-1.32,1.24a2,2,0,0,0,0,3L97,128h29a2,2,0,0,0,2-2V105.9A2,2,0,0,0,127.09,104.22Z"/></svg>