<svg fill="#3899e1" xmlns="http://www.w3.org/2000/svg" xmlns:xlink="http://www.w3.org/1999/xlink" version="1.1" x="0px" y="0px" viewBox="0 0 90 112.5" enable-background="new 0 0 90 90" xml:space="preserve"><path d="M57.266,34.27c-2.427,0-4.592-1.345-5.71-3.384c-1.067,0.469-2.221,0.711-3.408,0.711c-4.713,0-8.548-3.834-8.548-8.548  c0-3.041,1.584-5.786,4.13-7.315c-0.036-0.242-0.054-0.487-0.054-0.734c0-2.779,2.261-5.041,5.04-5.041  c0.373,0,0.74,0.041,1.1,0.122c1.643-1.712,3.881-2.676,6.29-2.676c3.331,0,6.364,1.934,7.826,4.849  c0.438-0.085,0.884-0.127,1.335-0.127c3.163,0,5.871,2.089,6.738,5.027c3.191,0.582,5.599,3.363,5.599,6.697  c0,3.755-3.056,6.811-6.811,6.811c-0.767,0-1.517-0.127-2.229-0.375c-0.858,1.441-2.432,2.391-4.205,2.391  c-0.793,0-1.57-0.197-2.265-0.56C60.874,33.469,59.121,34.27,57.266,34.27z"/><path d="M72.646,42.594c-0.088-3.484-0.941-6.855-2.38-9.954c-0.309-0.019-0.617-0.047-0.922-0.098  c-1.287,1.342-3.091,2.135-4.984,2.135c-0.612,0-1.226-0.084-1.818-0.247c-1.494,1.181-3.354,1.839-5.275,1.839  c-2.526,0-4.889-1.12-6.488-3.004c-0.853,0.22-1.732,0.332-2.63,0.332c-5.816,0-10.548-4.732-10.548-10.548  c0-1.906,0.51-3.71,1.421-5.283c-10.548,2.939-18.585,12.247-19.358,23.775l-0.064,0.711c-0.102,2.873-0.787,5.695-2.012,8.297  c-1.173,2.246-2.389,4.429-3.398,5.985c-0.687,1.066-0.38,2.487,0.686,3.174c0.372,0.24,0.805,0.367,1.248,0.366h3.477v12.732  c0,2.575,2.088,4.664,4.663,4.664h7.266v4.72c0,0.931,0.754,1.685,1.685,1.685h31.279c0.931,0,1.686-0.754,1.686-1.685V60.694  C70.527,55.686,72.836,49.226,72.646,42.594z M45.678,50.654c-0.17,0.623-0.755,1.024-1.404,1.024c-0.142,0-0.286-0.017-0.428-0.058  c-0.804-0.222-1.284-1.02-1.073-1.778c0.211-0.755,1.938-2.567,2.364-2.849C45.267,47.345,45.893,49.897,45.678,50.654z   M49.627,43.714c-0.259,0.927-1.13,1.527-2.094,1.527c-0.211,0-0.426-0.03-0.641-0.088c-1.191-0.333-1.905-1.518-1.592-2.646  c0.315-1.125,2.889-3.823,3.518-4.245C49.013,38.789,49.942,42.586,49.627,43.714z M50.644,46.817  c0.212-0.758,1.939-2.57,2.363-2.855c0.129,0.356,0.757,2.909,0.543,3.667c-0.171,0.62-0.755,1.023-1.405,1.023  c-0.144,0-0.285-0.02-0.43-0.059C50.912,48.37,50.433,47.576,50.644,46.817z M54.544,54.247c-0.173,0.622-0.759,1.026-1.408,1.026  c-0.142,0-0.284-0.02-0.427-0.058c-0.804-0.225-1.282-1.02-1.073-1.776c0.212-0.759,1.94-2.57,2.366-2.854  C54.133,50.938,54.758,53.495,54.544,54.247z M57.548,43.964c-0.806-0.227-1.283-1.021-1.073-1.779  c0.214-0.758,1.942-2.569,2.367-2.855c0.131,0.356,0.753,2.909,0.543,3.667c-0.174,0.62-0.758,1.024-1.408,1.024  C57.836,44.02,57.693,44,57.548,43.964z M63.003,50.826c-0.259,0.929-1.129,1.525-2.096,1.525c-0.211,0-0.424-0.026-0.639-0.086  c-1.193-0.334-1.908-1.521-1.593-2.646c0.314-1.128,2.889-3.824,3.517-4.245C62.386,45.9,63.318,49.7,63.003,50.826z"/><path fill="#000000" d="M37.505,31.968c0,0.008,0,0.019,0,0.026c0,0.011,0,0.019,0,0.029V31.968 M54.538,15.652  c-0.002,0-0.002,0-0.002,0H54.538L54.538,15.652"/></svg>