<?xml version="1.0" encoding="UTF-8" standalone="no"?>
<!DOCTYPE svg PUBLIC "-//W3C//DTD SVG 1.1//EN" "http://www.w3.org/Graphics/SVG/1.1/DTD/svg11.dtd">
<svg version="1.1" xmlns="http://www.w3.org/2000/svg" xmlns:xlink="http://www.w3.org/1999/xlink" preserveAspectRatio="xMidYMid meet" viewBox="0 0 640 640" width="640" height="640"><defs><path d="M0 256C0 396.7 115.3 512 256 512C396.7 512 512 396.7 512 256C512 115.3 396.7 0 256 0C115.3 0 0 115.3 0 256Z" id="a43NWxmzkn"></path><path d="M256 512C256 460.8 256 51.2 256 0C396.7 0 512 115.3 512 256C512 396.7 396.7 512 256 512Z" id="giiE7gQV7"></path><path d="M61 256C61 363.4 148.6 451 256 451C363.4 451 451 363.4 451 256C451 148.6 363.4 61 256 61C148.6 61 61 148.6 61 256Z" id="l2Y7rDADu"></path><path d="M256 451C256 412 256 100 256 61C363.4 61 451 148.6 451 256C451 363.4 363.4 451 256 451Z" id="c2dvUUiHIv"></path><path d="M376 271C364 271 268 271 256 271C247.6 271 241 264.4 241 256C241 244 241 148 241 136C241 127.6 247.6 121 256 121C264.4 121 271 127.6 271 136C271 143 271 178 271 241C334 241 369 241 376 241C384.4 241 391 247.6 391 256C391 264.4 384.4 271 376 271Z" id="aZCLxFZA3"></path><path d="M376 271C368 271 328 271 256 271C256 181 256 131 256 121C264.4 121 271 127.6 271 136C271 143 271 178 271 241C334 241 369 241 376 241C384.4 241 391 247.6 391 256C391 264.4 384.4 271 376 271Z" id="eC7fXoIqw"></path></defs><g><g><g><use xlink:href="#a43NWxmzkn" opacity="1" fill="#3899e1" fill-opacity="1"></use><g><use xlink:href="#a43NWxmzkn" opacity="1" fill-opacity="0" stroke="#000000" stroke-width="1" stroke-opacity="0"></use></g></g><g><use xlink:href="#giiE7gQV7" opacity="1" fill="#0385e6" fill-opacity="1"></use><g><use xlink:href="#giiE7gQV7" opacity="1" fill-opacity="0" stroke="#000000" stroke-width="1" stroke-opacity="0"></use></g></g><g><use xlink:href="#l2Y7rDADu" opacity="1" fill="#deecf1" fill-opacity="1"></use><g><use xlink:href="#l2Y7rDADu" opacity="1" fill-opacity="0" stroke="#000000" stroke-width="1" stroke-opacity="0"></use></g></g><g><use xlink:href="#c2dvUUiHIv" opacity="1" fill="#c5d3dd" fill-opacity="1"></use><g><use xlink:href="#c2dvUUiHIv" opacity="1" fill-opacity="0" stroke="#000000" stroke-width="1" stroke-opacity="0"></use></g></g><g><use xlink:href="#aZCLxFZA3" opacity="1" fill="#537983" fill-opacity="1"></use><g><use xlink:href="#aZCLxFZA3" opacity="1" fill-opacity="0" stroke="#000000" stroke-width="1" stroke-opacity="0"></use></g></g><g><use xlink:href="#eC7fXoIqw" opacity="1" fill="#3e5959" fill-opacity="1"></use><g><use xlink:href="#eC7fXoIqw" opacity="1" fill-opacity="0" stroke="#000000" stroke-width="1" stroke-opacity="0"></use></g></g></g></g></svg>