<?xml version="1.0" encoding="UTF-8" standalone="no"?>
<!DOCTYPE svg PUBLIC "-//W3C//DTD SVG 1.1//EN" "http://www.w3.org/Graphics/SVG/1.1/DTD/svg11.dtd">
<svg version="1.1" xmlns="http://www.w3.org/2000/svg" xmlns:xlink="http://www.w3.org/1999/xlink" preserveAspectRatio="xMidYMid meet" viewBox="0 0 640 640" width="640" height="640"><defs><path d="M460 0C448.96 0 440 8.96 440 20C440 32 440 128 440 140C440 151.04 448.96 160 460 160C476 160 604 160 620 160C631.04 160 640 151.04 640 140C640 128 640 32 640 20C640 8.96 631.04 0 620 0C588 0 476 0 460 0Z" id="b6w34rHvK"></path><path d="M180 600C168.96 600 160 591.04 160 580C160 568.96 168.96 560 180 560C218 560 522 560 560 560C582.08 560 600 542.08 600 520C600 497.92 582.08 480 560 480C540 480 380 480 360 480C315.88 480 280 444.12 280 400C280 355.88 315.88 320 360 320C366 320 414 320 420 320C431.04 320 440 328.96 440 340C440 351.04 431.04 360 420 360C414 360 366 360 360 360C337.96 360 320 377.92 320 400C320 422.08 337.96 440 360 440C380 440 540 440 560 440C604.12 440 640 475.88 640 520C640 564.12 604.12 600 560 600C484 600 218 600 180 600Z" id="c1pxQDlxv7"></path><path d="M440 220C440 200 440 40 440 20C440 8.96 448.96 0 460 0C471.04 0 480 8.96 480 20C480 40 480 200 480 220C480 231.04 471.04 240 460 240C448.96 240 440 231.04 440 220Z" id="e6i1VGRc0U"></path><path d="M140 520C106.86 520 80 546.86 80 580C80 613.14 106.86 640 140 640C173.14 640 200 613.14 200 580C200 546.86 173.14 520 140 520Z" id="jtQMfyDgW"></path><path d="M460 280C426.86 280 400 306.86 400 340C400 373.14 426.86 400 460 400C493.14 400 520 373.14 520 340C520 306.86 493.14 280 460 280Z" id="c17U5quHhr"></path><path d="M0 260C0 331.84 112.32 459.08 125.12 473.36C128.92 477.56 134.32 480 140 480C145.68 480 151.08 477.56 154.88 473.36C167.68 459.08 280 331.84 280 260C280 182.8 217.2 120 140 120C62.8 120 0 182.8 0 260Z" id="a1Kd2C8PVy"></path><path d="M140 200C106.86 200 80 226.86 80 260C80 293.14 106.86 320 140 320C173.14 320 200 293.14 200 260C200 226.86 173.14 200 140 200Z" id="cj96mofln"></path></defs><g><g><g><use xlink:href="#b6w34rHvK" opacity="1" fill="#3899e1" fill-opacity="1"></use><g><use xlink:href="#b6w34rHvK" opacity="1" fill-opacity="0" stroke="#000000" stroke-width="1" stroke-opacity="0"></use></g></g><g><use xlink:href="#c1pxQDlxv7" opacity="1" fill="#cfd8dc" fill-opacity="1"></use><g><use xlink:href="#c1pxQDlxv7" opacity="1" fill-opacity="0" stroke="#000000" stroke-width="1" stroke-opacity="0"></use></g></g><g><use xlink:href="#e6i1VGRc0U" opacity="1" fill="#455a64" fill-opacity="1"></use><g><use xlink:href="#e6i1VGRc0U" opacity="1" fill-opacity="0" stroke="#000000" stroke-width="1" stroke-opacity="0"></use></g></g><g><use xlink:href="#jtQMfyDgW" opacity="1" fill="#b0bec5" fill-opacity="1"></use><g><use xlink:href="#jtQMfyDgW" opacity="1" fill-opacity="0" stroke="#000000" stroke-width="1" stroke-opacity="0"></use></g></g><g><use xlink:href="#c17U5quHhr" opacity="1" fill="#b0bec5" fill-opacity="1"></use><g><use xlink:href="#c17U5quHhr" opacity="1" fill-opacity="0" stroke="#000000" stroke-width="1" stroke-opacity="0"></use></g></g><g><use xlink:href="#a1Kd2C8PVy" opacity="1" fill="#3899e1" fill-opacity="1"></use><g><use xlink:href="#a1Kd2C8PVy" opacity="1" fill-opacity="0" stroke="#000000" stroke-width="1" stroke-opacity="0"></use></g></g><g><use xlink:href="#cj96mofln" opacity="1" fill="#fafafa" fill-opacity="1"></use><g><use xlink:href="#cj96mofln" opacity="1" fill-opacity="0" stroke="#000000" stroke-width="1" stroke-opacity="0"></use></g></g></g></g></svg>