<?xml version="1.0" encoding="UTF-8" standalone="no"?>
<!DOCTYPE svg PUBLIC "-//W3C//DTD SVG 1.1//EN" "http://www.w3.org/Graphics/SVG/1.1/DTD/svg11.dtd">
<svg version="1.1" xmlns="http://www.w3.org/2000/svg" xmlns:xlink="http://www.w3.org/1999/xlink" preserveAspectRatio="xMidYMid meet" viewBox="0 0 640 640" width="640" height="640"><defs><path d="M293.35 429.8L300.27 430.51L307.11 431.49L313.86 432.74L320.51 434.25L327.06 436.02L333.5 438.04L339.83 440.3L346.04 442.81L352.13 445.54L358.1 448.51L363.92 451.7L369.61 455.11L375.15 458.72L380.54 462.55L385.78 466.57L390.85 470.79L395.76 475.2L400.49 479.8L405.05 484.57L409.43 489.51L413.61 494.62L417.6 499.89L421.39 505.32L424.98 510.89L428.35 516.62L431.51 522.48L434.45 528.47L437.16 534.59L439.64 540.83L441.88 547.19L443.88 553.66L445.63 560.24L447.13 566.91L448.36 573.68L449.33 580.54L450.03 587.48L450.46 594.5L450.6 601.59L450.57 603.14L450.47 604.68L450.32 606.2L450.11 607.7L449.84 609.19L449.51 610.65L449.13 612.09L448.69 613.51L448.2 614.9L447.65 616.27L447.06 617.61L446.41 618.92L445.72 620.2L444.98 621.45L444.2 622.67L443.37 623.86L442.49 625.01L441.58 626.13L440.62 627.21L439.62 628.26L438.58 629.26L437.51 630.22L436.4 631.15L435.25 632.02L434.07 632.86L432.86 633.65L431.61 634.39L430.34 635.09L429.03 635.74L427.7 636.34L426.34 636.88L424.96 637.38L423.55 637.82L422.12 638.2L420.66 638.53L419.19 638.81L417.69 639.02L416.18 639.18L414.65 639.27L413.1 639.3L40.15 639.3L38.61 639.27L37.08 639.18L35.57 639.02L34.07 638.81L32.6 638.53L31.14 638.21L29.71 637.82L28.3 637.38L26.92 636.88L25.56 636.34L24.22 635.74L22.92 635.09L21.65 634.4L20.4 633.65L19.19 632.86L18.01 632.03L16.86 631.15L15.75 630.23L14.68 629.26L13.64 628.26L12.64 627.22L11.68 626.14L10.77 625.02L9.89 623.87L9.06 622.68L8.28 621.46L7.54 620.21L6.84 618.92L6.2 617.61L5.61 616.27L5.06 614.9L4.57 613.51L4.13 612.09L3.75 610.65L3.42 609.19L3.15 607.71L2.94 606.2L2.78 604.68L2.69 603.14L2.66 601.59L2.8 594.5L3.23 587.48L3.93 580.54L4.9 573.68L6.13 566.91L7.63 560.24L9.38 553.66L11.37 547.19L13.61 540.83L16.09 534.59L18.8 528.47L21.74 522.48L24.9 516.62L28.28 510.89L31.86 505.32L35.65 499.89L39.64 494.62L43.83 489.51L48.2 484.57L52.76 479.8L57.49 475.2L62.4 470.79L67.47 466.57L72.71 462.55L78.1 458.72L83.64 455.11L89.33 451.7L95.16 448.51L101.12 445.54L107.21 442.81L113.42 440.3L119.75 438.04L126.2 436.02L132.75 434.25L139.4 432.74L146.15 431.49L152.98 430.51L159.91 429.8L166.91 429.38L173.99 429.23L279.27 429.23L286.35 429.38L293.35 429.8Z" id="bVOHEyGlu"></path><path d="M293.35 429.8L300.27 430.51L307.11 431.49L313.86 432.74L320.51 434.25L327.06 436.02L333.5 438.04L339.83 440.3L346.04 442.81L352.13 445.54L358.1 448.51L363.92 451.7L369.61 455.11L375.15 458.72L380.54 462.55L385.78 466.57L390.85 470.79L395.76 475.2L400.49 479.8L405.05 484.57L409.43 489.51L413.61 494.62L417.6 499.89L421.39 505.32L424.98 510.89L428.35 516.62L431.51 522.48L434.45 528.47L437.16 534.59L439.64 540.83L441.88 547.19L443.88 553.66L445.63 560.24L447.13 566.91L448.36 573.68L449.33 580.54L450.03 587.48L450.46 594.5L450.6 601.59L450.57 603.14L450.47 604.68L450.32 606.2L450.11 607.7L449.84 609.19L449.51 610.65L449.13 612.09L448.69 613.51L448.2 614.9L447.65 616.27L447.06 617.61L446.41 618.92L445.72 620.2L444.98 621.45L444.2 622.67L443.37 623.86L442.49 625.01L441.58 626.13L440.62 627.21L439.62 628.26L438.58 629.26L437.51 630.22L436.4 631.15L435.25 632.02L434.07 632.86L432.86 633.65L431.61 634.39L430.34 635.09L429.03 635.74L427.7 636.34L426.34 636.88L424.96 637.38L423.55 637.82L422.12 638.2L420.66 638.53L419.19 638.81L417.69 639.02L416.18 639.18L414.65 639.27L413.1 639.3L75.02 639.3L73.48 639.27L71.95 639.18L70.43 639.02L68.94 638.81L67.46 638.53L66.01 638.21L64.58 637.82L63.17 637.38L61.78 636.88L60.42 636.34L59.09 635.74L57.79 635.09L56.51 634.4L55.27 633.65L54.06 632.86L52.88 632.03L51.73 631.15L50.62 630.23L49.54 629.26L48.51 628.26L47.51 627.22L46.55 626.14L45.63 625.02L44.76 623.87L43.93 622.68L43.14 621.46L42.4 620.21L41.71 618.92L41.07 617.61L40.47 616.27L39.93 614.9L39.44 613.51L39 612.09L38.62 610.65L38.29 609.19L38.02 607.71L37.8 606.2L37.65 604.68L37.56 603.14L37.53 601.59L37.67 594.5L38.09 587.48L38.79 580.54L39.76 573.68L41 566.91L42.49 560.24L44.24 553.66L46.24 547.19L48.48 540.83L50.96 534.59L53.67 528.47L56.61 522.48L59.77 516.62L63.14 510.89L66.73 505.32L70.52 499.89L74.51 494.62L78.7 489.51L83.07 484.57L87.63 479.8L92.36 475.2L97.27 470.79L102.34 466.57L107.58 462.55L112.97 458.72L118.51 455.11L124.2 451.7L130.03 448.51L135.99 445.54L142.08 442.81L148.29 440.3L154.62 438.04L161.06 436.02L167.61 434.25L174.27 432.74L181.01 431.49L187.85 430.51L194.78 429.8L201.78 429.38L208.86 429.23L279.27 429.23L286.35 429.38L293.35 429.8Z" id="ajqrRCHQc"></path><path d="M226.63 500.22L184.94 429.05L184.94 327.27L268.32 327.27L268.32 429.05L226.63 500.22Z" id="a3z3KkNp67"></path><path d="M95.31 556.48L95.68 556.52L96.05 556.57L96.41 556.64L96.76 556.73L97.11 556.83L97.45 556.94L97.79 557.07L98.12 557.21L98.44 557.36L98.76 557.53L99.06 557.71L99.36 557.9L99.65 558.1L99.94 558.31L100.21 558.53L100.47 558.77L100.73 559.01L100.97 559.27L101.2 559.54L101.43 559.81L101.64 560.09L101.84 560.39L102.03 560.69L102.21 561L102.37 561.31L102.52 561.64L102.66 561.97L102.79 562.3L102.9 562.65L103 563L103.08 563.36L103.15 563.72L103.21 564.08L103.25 564.46L103.27 564.83L103.28 565.21L103.28 639.3L85.84 639.3L85.84 565.21L85.85 564.83L85.88 564.46L85.92 564.08L85.97 563.72L86.04 563.36L86.12 563L86.22 562.65L86.34 562.3L86.46 561.97L86.6 561.64L86.75 561.31L86.92 561L87.1 560.69L87.28 560.39L87.49 560.09L87.7 559.81L87.92 559.54L88.15 559.27L88.4 559.01L88.65 558.77L88.92 558.53L89.19 558.31L89.47 558.1L89.76 557.9L90.06 557.71L90.37 557.53L90.68 557.36L91.01 557.21L91.33 557.07L91.67 556.94L92.01 556.83L92.36 556.73L92.72 556.64L93.08 556.57L93.44 556.52L93.81 556.48L94.18 556.46L94.56 556.45L94.94 556.46L95.31 556.48Z" id="a3pbGlx4Mk"></path><path d="M359.45 556.48L359.82 556.52L360.18 556.57L360.54 556.64L360.9 556.73L361.25 556.83L361.59 556.94L361.93 557.07L362.25 557.21L362.58 557.36L362.89 557.53L363.2 557.71L363.5 557.9L363.79 558.1L364.07 558.31L364.34 558.53L364.61 558.77L364.86 559.01L365.11 559.27L365.34 559.54L365.56 559.81L365.77 560.09L365.98 560.39L366.16 560.69L366.34 561L366.51 561.31L366.66 561.64L366.8 561.97L366.92 562.3L367.04 562.65L367.13 563L367.22 563.36L367.29 563.72L367.34 564.08L367.38 564.46L367.41 564.83L367.41 565.21L367.41 639.3L349.98 639.3L349.98 565.21L349.99 564.83L350.01 564.46L350.05 564.08L350.11 563.72L350.18 563.36L350.26 563L350.36 562.65L350.47 562.3L350.6 561.97L350.74 561.64L350.89 561.31L351.05 561L351.23 560.69L351.42 560.39L351.62 560.09L351.83 559.81L352.05 559.54L352.29 559.27L352.53 559.01L352.79 558.77L353.05 558.53L353.32 558.31L353.6 558.1L353.89 557.9L354.19 557.71L354.5 557.53L354.82 557.36L355.14 557.21L355.47 557.07L355.8 556.94L356.15 556.83L356.49 556.73L356.85 556.64L357.21 556.57L357.57 556.52L357.94 556.48L358.32 556.46L358.7 556.45L359.08 556.46L359.45 556.48Z" id="dNOXPZxYR"></path><path d="M183.99 639.3L206.07 567.59L247.97 567.59L270.78 639.3L183.99 639.3Z" id="arvRob2ds"></path><path d="M246.75 507.57L247.31 507.63L247.87 507.71L248.41 507.81L248.95 507.94L249.49 508.08L250.01 508.25L250.52 508.43L251.03 508.64L251.52 508.86L252.01 509.1L252.48 509.36L252.94 509.64L253.4 509.93L253.83 510.25L254.26 510.57L254.68 510.92L255.08 511.28L255.46 511.65L255.83 512.04L256.19 512.44L256.53 512.86L256.86 513.29L257.17 513.73L257.46 514.18L257.74 514.65L258 515.13L258.24 515.61L258.46 516.11L258.66 516.62L258.84 517.14L259.01 517.66L259.15 518.2L259.27 518.74L259.37 519.29L259.45 519.85L259.51 520.41L259.55 520.98L259.56 521.56L259.56 555.35L259.55 555.93L259.51 556.5L259.45 557.06L259.37 557.62L259.27 558.17L259.15 558.71L259.01 559.25L258.84 559.77L258.66 560.29L258.46 560.8L258.24 561.3L258 561.78L257.74 562.26L257.46 562.73L257.17 563.18L256.86 563.62L256.53 564.05L256.19 564.47L255.83 564.87L255.46 565.26L255.08 565.63L254.68 565.99L254.26 566.34L253.83 566.66L253.4 566.98L252.94 567.27L252.48 567.55L252.01 567.81L251.52 568.05L251.03 568.27L250.52 568.48L250.01 568.66L249.49 568.83L248.95 568.97L248.41 569.09L247.87 569.2L247.31 569.28L246.75 569.33L246.18 569.37L245.61 569.38L207.65 569.38L207.07 569.37L206.51 569.33L205.95 569.28L205.39 569.2L204.84 569.09L204.3 568.97L203.77 568.83L203.25 568.66L202.74 568.48L202.23 568.27L201.73 568.05L201.25 567.81L200.78 567.55L200.31 567.27L199.86 566.98L199.42 566.66L198.99 566.34L198.58 565.99L198.18 565.63L197.79 565.26L197.42 564.87L197.06 564.47L196.72 564.05L196.4 563.62L196.09 563.18L195.79 562.73L195.52 562.26L195.26 561.78L195.02 561.3L194.8 560.8L194.59 560.29L194.41 559.77L194.25 559.25L194.1 558.71L193.98 558.17L193.88 557.62L193.8 557.06L193.74 556.5L193.71 555.93L193.7 555.35L193.7 521.56L193.71 520.98L193.74 520.41L193.8 519.85L193.88 519.29L193.98 518.74L194.1 518.2L194.25 517.66L194.41 517.14L194.59 516.62L194.8 516.11L195.02 515.61L195.26 515.13L195.52 514.65L195.79 514.18L196.09 513.73L196.4 513.29L196.72 512.86L197.06 512.44L197.42 512.04L197.79 511.65L198.18 511.28L198.58 510.92L198.99 510.57L199.42 510.25L199.86 509.93L200.31 509.64L200.78 509.36L201.25 509.1L201.73 508.86L202.23 508.64L202.74 508.43L203.25 508.25L203.77 508.08L204.3 507.94L204.84 507.81L205.39 507.71L205.95 507.63L206.51 507.57L207.07 507.54L207.65 507.53L245.61 507.53L246.18 507.54L246.75 507.57Z" id="g3YF9laFOI"></path><path d="M108.87 211.38L110.84 211.58L112.78 211.86L114.7 212.21L116.58 212.64L118.45 213.14L120.28 213.71L122.07 214.36L123.84 215.07L125.57 215.84L127.27 216.68L128.92 217.59L130.54 218.56L132.12 219.58L133.65 220.67L135.14 221.81L136.58 223.01L137.98 224.26L139.33 225.57L140.62 226.92L141.87 228.33L143.06 229.78L144.19 231.28L145.27 232.82L146.3 234.41L147.26 236.03L148.16 237.7L148.99 239.4L149.77 241.14L150.47 242.92L151.11 244.73L151.68 246.57L152.18 248.44L152.6 250.34L152.96 252.27L153.23 254.22L153.43 256.2L153.55 258.2L153.59 260.22L153.55 262.24L153.43 264.24L153.23 266.21L152.96 268.17L152.6 270.1L152.18 272L151.68 273.87L151.11 275.71L150.47 277.52L149.77 279.29L148.99 281.04L148.16 282.74L147.26 284.41L146.3 286.03L145.27 287.62L144.19 289.16L143.06 290.66L141.87 292.11L140.62 293.51L139.33 294.87L137.98 296.17L136.58 297.43L135.14 298.62L133.65 299.77L132.12 300.85L130.54 301.88L128.92 302.85L127.27 303.75L125.57 304.59L123.84 305.37L122.07 306.08L120.28 306.72L118.45 307.3L116.58 307.8L114.7 308.23L112.78 308.58L110.84 308.86L108.87 309.06L106.89 309.18L104.88 309.22L102.87 309.18L100.88 309.06L98.92 308.86L96.98 308.58L95.06 308.23L93.17 307.8L91.31 307.3L89.48 306.72L87.68 306.08L85.92 305.37L84.18 304.59L82.49 303.75L80.83 302.85L79.22 301.88L77.64 300.85L76.11 299.77L74.62 298.62L73.17 297.43L71.78 296.17L70.43 294.87L69.13 293.51L67.89 292.11L66.7 290.66L65.56 289.16L64.48 287.62L63.46 286.03L62.5 284.41L61.6 282.74L60.76 281.04L59.99 279.29L59.28 277.52L58.65 275.71L58.08 273.87L57.58 272L57.15 270.1L56.8 268.17L56.52 266.21L56.32 264.24L56.2 262.24L56.16 260.22L56.2 258.2L56.32 256.2L56.52 254.22L56.8 252.27L57.15 250.34L57.58 248.44L58.08 246.57L58.65 244.73L59.28 242.92L59.99 241.14L60.76 239.4L61.6 237.7L62.5 236.03L63.46 234.41L64.48 232.82L65.56 231.28L66.7 229.78L67.89 228.33L69.13 226.92L70.43 225.57L71.78 224.26L73.17 223.01L74.62 221.81L76.11 220.67L77.64 219.58L79.22 218.56L80.83 217.59L82.49 216.68L84.18 215.84L85.92 215.07L87.68 214.36L89.48 213.71L91.31 213.14L93.17 212.64L95.06 212.21L96.98 211.86L98.92 211.58L100.88 211.38L102.87 211.26L104.88 211.22L106.89 211.26L108.87 211.38Z" id="g11lVmBVew"></path><path d="M352.81 211.39L354.78 211.59L356.72 211.87L358.64 212.22L360.52 212.65L362.39 213.15L364.22 213.72L366.01 214.37L367.78 215.08L369.51 215.85L371.21 216.69L372.86 217.6L374.48 218.57L376.06 219.59L377.59 220.68L379.08 221.82L380.52 223.02L381.92 224.27L383.27 225.58L384.56 226.93L385.81 228.34L387 229.79L388.13 231.29L389.21 232.83L390.24 234.42L391.2 236.04L392.1 237.71L392.93 239.41L393.71 241.15L394.41 242.93L395.05 244.74L395.62 246.58L396.12 248.45L396.54 250.35L396.9 252.28L397.17 254.23L397.37 256.21L397.49 258.21L397.53 260.23L397.49 262.25L397.37 264.25L397.17 266.22L396.9 268.18L396.54 270.1L396.12 272L395.62 273.88L395.05 275.72L394.41 277.53L393.71 279.3L392.93 281.04L392.1 282.75L391.2 284.41L390.24 286.04L389.21 287.63L388.13 289.17L387 290.67L385.81 292.12L384.56 293.52L383.27 294.88L381.92 296.18L380.52 297.43L379.08 298.63L377.59 299.78L376.06 300.86L374.48 301.89L372.86 302.86L371.21 303.76L369.51 304.6L367.78 305.38L366.01 306.09L364.22 306.73L362.39 307.31L360.52 307.81L358.64 308.24L356.72 308.59L354.78 308.87L352.81 309.07L350.83 309.19L348.82 309.23L346.81 309.19L344.82 309.07L342.86 308.87L340.92 308.59L339 308.24L337.11 307.81L335.25 307.31L333.42 306.73L331.62 306.09L329.85 305.38L328.12 304.6L326.43 303.76L324.77 302.86L323.15 301.89L321.58 300.86L320.05 299.78L318.56 298.63L317.11 297.43L315.72 296.18L314.37 294.88L313.07 293.52L311.83 292.12L310.64 290.67L309.5 289.17L308.42 287.63L307.4 286.04L306.44 284.41L305.54 282.75L304.7 281.04L303.93 279.3L303.22 277.53L302.59 275.72L302.02 273.88L301.52 272L301.09 270.1L300.74 268.18L300.46 266.22L300.26 264.25L300.14 262.25L300.1 260.23L300.14 258.21L300.26 256.21L300.46 254.23L300.74 252.28L301.09 250.35L301.52 248.45L302.02 246.58L302.59 244.74L303.22 242.93L303.93 241.15L304.7 239.41L305.54 237.71L306.44 236.04L307.4 234.42L308.42 232.83L309.5 231.29L310.64 229.79L311.83 228.34L313.07 226.93L314.37 225.58L315.72 224.27L317.11 223.02L318.56 221.82L320.05 220.68L321.58 219.59L323.15 218.57L324.77 217.6L326.43 216.69L328.12 215.85L329.85 215.08L331.62 214.37L333.42 213.72L335.25 213.15L337.11 212.65L339 212.22L340.92 211.87L342.86 211.59L344.82 211.39L346.81 211.27L348.82 211.23L350.83 211.27L352.81 211.39Z" id="cqhXwynv0"></path><path d="M315.13 25.35L316.82 25.52L318.48 25.76L320.13 26.06L321.75 26.43L323.34 26.86L324.92 27.35L326.46 27.9L327.97 28.51L329.46 29.18L330.91 29.9L332.34 30.68L333.72 31.51L335.08 32.39L336.39 33.32L337.67 34.3L338.91 35.33L340.11 36.41L341.26 37.52L342.38 38.69L343.45 39.89L344.47 41.14L345.44 42.42L346.37 43.75L347.24 45.11L348.07 46.51L348.84 47.94L349.56 49.4L350.22 50.89L350.83 52.42L351.38 53.97L351.86 55.55L352.29 57.16L352.66 58.79L352.96 60.44L353.2 62.12L353.37 63.81L353.47 65.53L353.51 67.26L353.51 295.13L353.38 299.56L353 303.95L352.38 308.3L351.54 312.6L350.47 316.86L349.18 321.07L347.69 325.24L346.01 329.35L344.14 333.4L342.1 337.4L339.88 341.34L337.51 345.21L334.99 349.02L332.33 352.76L329.54 356.44L326.62 360.04L323.6 363.56L320.46 367.01L317.24 370.38L313.93 373.67L310.54 376.87L307.08 379.99L303.57 383.02L300 385.95L296.4 388.8L292.76 391.54L289.11 394.19L285.44 396.73L281.76 399.17L278.09 401.51L274.44 403.73L270.81 405.84L267.21 407.84L263.65 409.73L260.14 411.49L256.69 413.14L253.32 414.66L250.02 416.05L246.8 417.32L243.69 418.46L243.11 418.65L242.54 418.85L241.98 419.04L241.42 419.22L240.86 419.4L240.3 419.57L239.75 419.74L239.21 419.91L238.67 420.07L238.13 420.22L237.6 420.37L237.07 420.52L236.54 420.66L236.02 420.79L235.51 420.92L235 421.05L234.49 421.17L233.99 421.28L233.5 421.39L233.01 421.5L232.52 421.6L232.04 421.7L231.56 421.79L231.09 421.87L230.62 421.95L230.16 422.03L229.71 422.1L229.26 422.16L228.81 422.22L228.37 422.28L227.94 422.33L227.51 422.37L227.09 422.41L226.67 422.45L226.26 422.48L225.85 422.5L225.45 422.52L225.06 422.53L224.67 422.54L224.29 422.54L223.06 422.52L221.77 422.44L220.42 422.3L219.01 422.12L217.56 421.88L216.05 421.6L214.49 421.26L212.89 420.87L211.24 420.44L209.54 419.95L207.8 419.42L206.02 418.84L204.21 418.21L202.36 417.54L200.47 416.81L198.55 416.05L196.6 415.23L194.62 414.38L192.62 413.48L190.59 412.53L188.53 411.54L186.46 410.51L184.36 409.44L182.25 408.32L180.13 407.16L177.99 405.97L175.84 404.73L173.67 403.45L171.51 402.14L169.33 400.78L167.15 399.39L164.97 397.96L162.79 396.49L160.61 394.99L158.43 393.44L156.26 391.87L154.1 390.26L151.95 388.61L149.8 386.93L147.67 385.22L145.56 383.47L143.46 381.7L141.38 379.89L139.32 378.04L137.29 376.17L135.27 374.27L133.29 372.34L131.33 370.38L129.41 368.38L127.51 366.37L125.65 364.32L123.83 362.24L122.04 360.14L120.29 358.01L118.59 355.86L116.93 353.68L115.31 351.48L113.74 349.25L112.22 347L110.75 344.72L109.34 342.43L107.98 340.11L106.68 337.76L105.43 335.4L104.25 333.02L103.13 330.61L102.07 328.19L101.08 325.75L100.16 323.29L99.31 320.81L98.53 318.31L97.82 315.8L97.19 313.27L96.64 310.72L96.17 308.16L95.78 305.58L95.47 302.99L95.25 300.39L95.11 297.77L95.07 295.13L95.07 67.26L95.1 65.53L95.21 63.81L95.38 62.12L95.61 60.44L95.92 58.79L96.28 57.16L96.71 55.55L97.2 53.97L97.75 52.42L98.35 50.89L99.02 49.4L99.73 47.94L100.51 46.51L101.33 45.11L102.21 43.75L103.13 42.42L104.11 41.14L105.13 39.89L106.2 38.69L107.31 37.52L108.47 36.41L109.67 35.33L110.91 34.3L112.19 33.32L113.5 32.39L114.85 31.51L116.24 30.68L117.66 29.9L119.12 29.18L120.6 28.51L122.12 27.9L123.66 27.35L125.23 26.86L126.83 26.43L128.45 26.06L130.09 25.76L131.76 25.52L133.45 25.35L135.15 25.24L136.88 25.21L311.7 25.21L313.42 25.24L315.13 25.35Z" id="amU6WjveE"></path><path d="M315.13 25.35L316.81 25.52L318.48 25.76L320.12 26.06L321.75 26.43L323.34 26.86L324.91 27.35L326.46 27.9L327.97 28.51L329.46 29.18L330.91 29.9L332.33 30.68L333.72 31.51L335.07 32.39L336.39 33.32L337.67 34.3L338.91 35.33L340.11 36.41L341.26 37.53L342.38 38.69L343.44 39.9L344.47 41.14L345.44 42.43L346.37 43.75L347.24 45.11L348.07 46.51L348.84 47.94L349.56 49.4L350.22 50.89L350.83 52.42L351.38 53.97L351.86 55.55L352.29 57.16L352.66 58.79L352.96 60.44L353.2 62.12L353.37 63.82L353.47 65.53L353.51 67.26L353.51 295.13L353.41 298.97L353.13 302.77L352.66 306.54L352.02 310.29L351.21 314L350.24 317.67L349.1 321.31L347.82 324.91L346.38 328.48L344.81 332L343.1 335.48L341.27 338.91L339.31 342.3L337.23 345.65L335.04 348.94L332.75 352.19L330.36 355.38L327.88 358.52L325.3 361.6L322.65 364.63L319.92 367.6L317.12 370.5L314.25 373.35L311.33 376.14L308.36 378.86L305.34 381.51L302.28 384.09L299.18 386.61L296.06 389.06L292.91 391.43L289.75 393.73L286.57 395.95L283.4 398.1L280.22 400.17L277.05 402.15L273.89 404.06L270.75 405.88L267.63 407.61L264.54 409.26L261.49 410.82L260.65 411.23L259.8 411.62L258.95 411.99L258.08 412.34L257.21 412.66L256.34 412.97L255.46 413.25L254.58 413.52L253.69 413.76L252.8 413.98L251.9 414.18L251 414.36L250.1 414.52L249.2 414.66L248.29 414.78L247.38 414.87L246.47 414.95L245.56 415L244.65 415.04L243.73 415.05L242.82 415.04L241.91 415.01L241 414.96L240.09 414.89L239.18 414.79L238.27 414.68L237.37 414.55L236.46 414.39L235.57 414.21L234.67 414.01L233.78 413.79L232.89 413.55L232 413.29L231.13 413.01L230.25 412.71L229.38 412.38L228.52 412.04L227.66 411.67L226.81 411.28L225.97 410.87L225.02 410.39L224.06 409.9L223.09 409.4L222.13 408.9L221.16 408.38L220.19 407.86L219.21 407.32L218.23 406.78L217.25 406.23L216.26 405.67L215.28 405.11L214.29 404.53L213.3 403.95L212.31 403.36L211.31 402.76L210.32 402.15L209.32 401.53L208.32 400.91L207.32 400.27L206.32 399.63L205.32 398.98L204.32 398.33L203.32 397.66L202.32 396.99L201.32 396.31L200.32 395.62L199.32 394.93L198.32 394.23L197.33 393.52L196.33 392.8L195.34 392.07L194.34 391.34L193.35 390.6L192.36 389.85L191.37 389.1L190.39 388.34L189.4 387.57L188.42 386.79L187.45 386.01L186.47 385.22L184.36 383.47L182.26 381.7L180.18 379.89L178.12 378.04L176.08 376.17L174.07 374.27L172.09 372.34L170.13 370.38L168.2 368.38L166.31 366.37L164.45 364.32L162.62 362.24L160.84 360.14L159.09 358.01L157.39 355.86L155.72 353.68L154.11 351.48L152.54 349.25L151.02 347L149.55 344.72L148.14 342.43L146.78 340.11L145.47 337.76L144.23 335.4L143.05 333.02L141.92 330.61L140.87 328.19L139.88 325.75L138.96 323.29L138.1 320.81L137.32 318.31L136.62 315.8L135.99 313.27L135.44 310.72L134.96 308.16L134.57 305.58L134.27 302.99L134.04 300.39L133.91 297.77L133.86 295.13L133.86 67.26L133.9 65.53L134 63.81L134.17 62.12L134.41 60.44L134.71 58.79L135.08 57.16L135.51 55.55L136 53.97L136.54 52.42L137.15 50.89L137.81 49.4L138.53 47.94L139.3 46.51L140.13 45.11L141.01 43.75L141.93 42.42L142.91 41.14L143.93 39.89L145 38.69L146.11 37.52L147.27 36.41L148.47 35.33L149.71 34.3L150.98 33.32L152.3 32.39L153.65 31.51L155.04 30.68L156.46 29.9L157.92 29.18L159.4 28.51L160.92 27.9L162.46 27.35L164.03 26.86L165.63 26.43L167.25 26.06L168.89 25.76L170.56 25.52L172.24 25.35L173.95 25.24L175.67 25.21L311.7 25.21L313.42 25.24L315.13 25.35Z" id="cwxcppZCj"></path><path d="M295.68 245.34L296.93 245.61L298.15 245.98L299.32 246.45L300.43 247.01L301.5 247.66L302.51 248.39L303.45 249.19L304.32 250.07L305.13 251.02L305.85 252.03L306.49 253.1L307.05 254.23L307.52 255.4L307.89 256.62L308.16 257.89L308.32 259.18L308.38 260.51L308.32 261.84L308.16 263.14L307.89 264.4L307.52 265.62L307.05 266.8L306.49 267.92L305.85 268.99L305.13 270.01L304.32 270.96L303.45 271.84L302.51 272.64L301.5 273.37L300.43 274.02L299.32 274.58L298.15 275.05L296.93 275.42L295.68 275.69L294.39 275.86L293.07 275.91L291.75 275.86L290.46 275.69L289.2 275.42L287.99 275.05L286.82 274.58L285.7 274.02L284.64 273.37L283.63 272.64L282.69 271.84L281.81 270.96L281.01 270.01L280.29 268.99L279.64 267.92L279.08 266.8L278.62 265.62L278.25 264.4L277.98 263.14L277.81 261.84L277.76 260.51L277.81 259.18L277.98 257.89L278.25 256.62L278.62 255.4L279.08 254.23L279.64 253.1L280.29 252.03L281.01 251.02L281.81 250.07L282.69 249.19L283.63 248.39L284.64 247.66L285.7 247.01L286.82 246.45L287.99 245.98L289.2 245.61L290.46 245.34L291.75 245.17L293.07 245.11L294.39 245.17L295.68 245.34Z" id="hfeWBcBSD"></path><path d="M297.2 196.81L299.42 196.91L301.67 197.07L303.94 197.28L306.23 197.56L308.51 197.9L310.79 198.32L313.06 198.82L315.31 199.4L317.53 200.06L319.72 200.82L321.86 201.67L323.95 202.62L325.99 203.68L327.96 204.85L328.38 205.13L328.77 205.42L329.15 205.74L329.51 206.07L329.85 206.41L330.17 206.77L330.47 207.14L330.75 207.52L331.01 207.92L331.25 208.32L331.47 208.74L331.67 209.17L331.85 209.6L332.01 210.04L332.14 210.49L332.26 210.94L332.35 211.4L332.42 211.87L332.47 212.33L332.49 212.8L332.5 213.27L332.48 213.74L332.44 214.21L332.37 214.68L332.29 215.15L332.18 215.62L332.04 216.08L331.88 216.54L331.7 216.99L331.5 217.43L331.26 217.87L331.01 218.31L330.83 218.58L330.65 218.84L330.46 219.1L330.26 219.35L330.05 219.59L329.84 219.82L329.63 220.05L329.4 220.26L329.17 220.47L328.94 220.67L328.7 220.86L328.45 221.05L328.2 221.22L327.94 221.39L327.68 221.54L327.42 221.69L327.15 221.83L326.88 221.97L326.6 222.09L326.32 222.2L326.04 222.31L325.75 222.41L325.47 222.49L325.18 222.57L324.88 222.64L324.59 222.7L324.29 222.75L323.99 222.8L323.69 222.83L323.39 222.85L323.09 222.87L322.79 222.87L322.62 222.87L322.46 222.86L322.29 222.86L322.13 222.85L321.96 222.83L321.8 222.82L321.63 222.8L321.46 222.78L321.3 222.75L321.13 222.73L320.97 222.7L320.81 222.66L320.64 222.63L320.48 222.59L320.31 222.55L320.15 222.5L319.99 222.45L319.83 222.4L319.67 222.35L319.5 222.29L319.34 222.23L319.18 222.17L319.03 222.1L318.87 222.03L318.71 221.96L318.55 221.89L318.4 221.81L318.24 221.73L318.09 221.64L317.94 221.56L317.78 221.47L317.63 221.37L316.48 220.7L315.27 220.08L314 219.51L312.68 219L311.31 218.54L309.9 218.13L308.46 217.77L306.98 217.45L305.47 217.18L303.94 216.95L302.39 216.75L300.83 216.6L299.26 216.48L297.68 216.39L296.11 216.33L294.55 216.3L292.99 216.3L291.46 216.33L289.94 216.37L288.45 216.44L286.99 216.53L285.57 216.63L284.19 216.75L282.85 216.88L281.57 217.02L280.34 217.17L279.17 217.32L278.07 217.48L277.04 217.65L276.08 217.81L275.2 217.97L274.41 218.13L273.92 218.22L273.43 218.28L272.94 218.32L272.46 218.33L271.97 218.32L271.5 218.28L271.02 218.23L270.56 218.14L270.1 218.04L269.65 217.91L269.2 217.77L268.76 217.6L268.34 217.41L267.92 217.2L267.51 216.97L267.12 216.73L266.74 216.46L266.37 216.17L266.01 215.87L265.67 215.55L265.34 215.22L265.03 214.87L264.74 214.5L264.46 214.11L264.2 213.72L263.96 213.3L263.74 212.88L263.54 212.44L263.36 211.99L263.2 211.52L263.06 211.04L262.95 210.55L262.86 210.06L262.8 209.57L262.76 209.08L262.74 208.59L262.76 208.11L262.79 207.63L262.85 207.15L262.93 206.68L263.03 206.22L263.15 205.77L263.3 205.32L263.47 204.88L263.65 204.45L263.86 204.03L264.09 203.62L264.33 203.23L264.6 202.84L264.88 202.47L265.18 202.11L265.49 201.77L265.83 201.44L266.18 201.12L266.54 200.83L266.92 200.55L267.32 200.29L267.73 200.05L268.15 199.82L268.59 199.62L269.04 199.44L269.5 199.28L269.97 199.14L270.46 199.03L270.89 198.94L271.49 198.82L272.24 198.68L273.15 198.52L274.19 198.34L275.38 198.16L276.68 197.97L278.11 197.77L279.64 197.58L281.28 197.4L283.02 197.24L284.84 197.09L286.75 196.96L288.72 196.86L290.76 196.79L292.86 196.75L295.01 196.76L297.2 196.81Z" id="ba6jy4jT3"></path><path d="M163.23 245.34L164.49 245.61L165.7 245.98L166.87 246.45L167.99 247.01L169.06 247.66L170.06 248.39L171.01 249.19L171.88 250.07L172.68 251.02L173.41 252.03L174.05 253.1L174.61 254.23L175.07 255.4L175.44 256.62L175.71 257.89L175.88 259.18L175.94 260.51L175.88 261.84L175.71 263.14L175.44 264.4L175.07 265.62L174.61 266.8L174.05 267.92L173.41 268.99L172.68 270.01L171.88 270.96L171.01 271.84L170.06 272.64L169.06 273.37L167.99 274.02L166.87 274.58L165.7 275.05L164.49 275.42L163.23 275.69L161.94 275.86L160.62 275.91L159.3 275.86L158.01 275.69L156.76 275.42L155.55 275.05L154.38 274.58L153.26 274.02L152.19 273.37L151.19 272.64L150.24 271.84L149.37 270.96L148.57 270.01L147.84 268.99L147.2 267.92L146.64 266.8L146.18 265.62L145.81 264.4L145.54 263.14L145.37 261.84L145.31 260.51L145.37 259.18L145.54 257.89L145.81 256.62L146.18 255.4L146.64 254.23L147.2 253.1L147.84 252.03L148.57 251.02L149.37 250.07L150.24 249.19L151.19 248.39L152.19 247.66L153.26 247.01L154.38 246.45L155.55 245.98L156.76 245.61L158.01 245.34L159.3 245.17L160.62 245.11L161.94 245.17L163.23 245.34Z" id="h3ueHiFm90"></path><path d="M164.97 196.86L166.95 196.96L168.85 197.09L170.67 197.24L172.41 197.4L174.05 197.58L175.59 197.77L177.01 197.97L178.32 198.16L179.5 198.34L180.54 198.52L181.45 198.68L182.2 198.82L182.8 198.94L183.23 199.03L183.72 199.14L184.19 199.28L184.66 199.44L185.11 199.62L185.54 199.83L185.97 200.05L186.38 200.29L186.77 200.55L187.16 200.83L187.52 201.13L187.87 201.44L188.21 201.77L188.52 202.12L188.82 202.48L189.1 202.85L189.37 203.23L189.61 203.63L189.84 204.04L190.05 204.46L190.24 204.89L190.4 205.33L190.55 205.78L190.67 206.23L190.78 206.7L190.86 207.16L190.91 207.64L190.95 208.12L190.96 208.6L190.94 209.09L190.91 209.58L190.84 210.08L190.75 210.57L190.64 211.06L190.5 211.54L190.34 212L190.16 212.45L189.96 212.89L189.74 213.32L189.49 213.73L189.23 214.13L188.96 214.51L188.66 214.88L188.35 215.23L188.02 215.57L187.68 215.89L187.32 216.19L186.95 216.47L186.57 216.74L186.17 216.99L185.77 217.21L185.35 217.42L184.92 217.61L184.48 217.78L184.04 217.92L183.59 218.05L183.13 218.15L182.66 218.23L182.19 218.29L181.71 218.32L181.23 218.34L180.75 218.32L180.26 218.28L179.77 218.22L179.28 218.13L178.49 217.97L177.61 217.81L176.65 217.65L175.62 217.48L174.51 217.32L173.34 217.17L172.12 217.02L170.83 216.88L169.49 216.75L168.11 216.63L166.69 216.53L165.23 216.44L163.74 216.37L162.23 216.33L160.69 216.3L159.14 216.31L157.58 216.33L156 216.39L154.43 216.48L152.86 216.6L151.3 216.76L149.75 216.95L148.22 217.18L146.72 217.45L145.24 217.77L143.79 218.13L142.38 218.54L141.01 219L139.69 219.51L138.42 220.08L137.21 220.7L136.06 221.37L135.91 221.47L135.76 221.56L135.61 221.64L135.45 221.73L135.3 221.81L135.14 221.89L134.99 221.96L134.83 222.03L134.67 222.1L134.51 222.17L134.35 222.23L134.19 222.29L134.03 222.35L133.87 222.4L133.71 222.45L133.54 222.5L133.38 222.55L133.22 222.59L133.05 222.63L132.89 222.66L132.72 222.7L132.56 222.73L132.39 222.75L132.23 222.78L132.06 222.8L131.9 222.82L131.73 222.83L131.57 222.85L131.4 222.86L131.24 222.86L131.07 222.87L130.91 222.87L130.6 222.87L130.3 222.85L130 222.83L129.7 222.8L129.41 222.75L129.11 222.7L128.81 222.64L128.52 222.57L128.23 222.49L127.94 222.41L127.66 222.31L127.37 222.2L127.1 222.09L126.82 221.97L126.55 221.83L126.28 221.69L126.01 221.54L125.75 221.39L125.5 221.22L125.25 221.05L125 220.86L124.76 220.67L124.52 220.47L124.29 220.26L124.07 220.05L123.85 219.82L123.64 219.59L123.44 219.35L123.24 219.1L123.05 218.84L122.86 218.58L122.69 218.31L122.43 217.87L122.2 217.43L121.99 216.99L121.81 216.54L121.65 216.08L121.52 215.62L121.41 215.15L121.32 214.68L121.26 214.21L121.22 213.74L121.2 213.27L121.2 212.8L121.23 212.33L121.28 211.87L121.35 211.4L121.44 210.94L121.55 210.49L121.69 210.04L121.85 209.6L122.03 209.17L122.22 208.74L122.44 208.33L122.68 207.92L122.94 207.52L123.22 207.14L123.53 206.77L123.85 206.41L124.19 206.07L124.54 205.74L124.92 205.43L125.32 205.13L125.74 204.85L127.71 203.69L129.74 202.63L131.84 201.68L133.98 200.82L136.17 200.07L138.39 199.4L140.64 198.82L142.91 198.33L145.19 197.91L147.47 197.56L149.75 197.28L152.02 197.07L154.27 196.91L156.49 196.81L158.68 196.76L160.83 196.75L162.93 196.79L164.97 196.86Z" id="btz7Pm05J"></path><path d="M257.09 311.75L257.48 311.79L257.87 311.85L258.25 311.92L258.62 312.01L259 312.1L259.36 312.22L259.72 312.35L260.07 312.49L260.41 312.64L260.75 312.81L261.08 312.99L261.4 313.18L261.72 313.39L262.02 313.6L262.32 313.83L262.61 314.07L262.88 314.32L263.15 314.58L263.41 314.85L263.66 315.13L263.9 315.42L264.12 315.72L264.34 316.02L264.54 316.34L264.73 316.66L264.91 316.99L265.08 317.33L265.23 317.68L265.37 318.03L265.5 318.39L265.61 318.76L265.71 319.13L265.8 319.51L265.87 319.9L265.92 320.28L265.96 320.68L265.99 321.08L265.99 321.48L265.96 323.1L265.86 324.7L265.7 326.29L265.48 327.86L265.2 329.4L264.85 330.93L264.45 332.43L263.99 333.91L263.48 335.36L262.91 336.79L262.29 338.19L261.62 339.56L260.89 340.9L260.12 342.2L259.3 343.48L258.43 344.72L257.52 345.92L256.56 347.09L255.56 348.22L254.52 349.31L253.43 350.36L252.31 351.36L251.15 352.33L249.95 353.25L248.72 354.12L247.45 354.95L246.15 355.73L244.82 356.45L243.46 357.13L242.07 357.76L240.65 358.33L239.21 358.85L237.74 359.31L236.24 359.71L234.73 360.06L233.19 360.34L231.63 360.56L230.05 360.73L228.46 360.82L226.85 360.86L225.23 360.82L223.64 360.73L222.06 360.56L220.5 360.34L218.97 360.06L217.45 359.71L215.96 359.31L214.49 358.85L213.04 358.33L211.62 357.76L210.23 357.13L208.87 356.45L207.54 355.73L206.24 354.95L204.97 354.12L203.74 353.25L202.54 352.33L201.38 351.36L200.26 350.36L199.18 349.31L198.14 348.22L197.13 347.09L196.18 345.92L195.26 344.72L194.39 343.48L193.57 342.2L192.8 340.9L192.07 339.56L191.4 338.19L190.78 336.79L190.21 335.36L189.7 333.91L189.24 332.43L188.84 330.93L188.49 329.4L188.21 327.86L187.99 326.29L187.83 324.7L187.73 323.1L187.7 321.48L187.71 321.08L187.73 320.68L187.77 320.28L187.82 319.9L187.89 319.51L187.98 319.13L188.08 318.76L188.19 318.39L188.32 318.03L188.46 317.68L188.61 317.33L188.78 316.99L188.96 316.66L189.15 316.34L189.35 316.02L189.57 315.72L189.8 315.42L190.03 315.13L190.28 314.85L190.54 314.58L190.81 314.32L191.09 314.07L191.37 313.83L191.67 313.6L191.97 313.39L192.29 313.18L192.61 312.99L192.94 312.81L193.28 312.64L193.62 312.49L193.97 312.35L194.33 312.22L194.7 312.1L195.07 312.01L195.44 311.92L195.82 311.85L196.21 311.79L196.6 311.75L197 311.73L197.4 311.72L197.8 311.73L198.19 311.75L198.58 311.79L198.97 311.85L199.35 311.92L199.73 312.01L200.1 312.1L200.46 312.22L200.82 312.35L201.17 312.49L201.52 312.64L201.86 312.81L202.19 312.99L202.51 313.18L202.82 313.39L203.13 313.6L203.42 313.83L203.71 314.07L203.99 314.32L204.26 314.58L204.52 314.85L204.76 315.13L205 315.42L205.23 315.72L205.44 316.02L205.64 316.34L205.84 316.66L206.01 316.99L206.18 317.33L206.33 317.68L206.48 318.03L206.6 318.39L206.72 318.76L206.81 319.13L206.9 319.51L206.97 319.9L207.02 320.28L207.06 320.68L207.09 321.08L207.1 321.48L207.11 322.3L207.16 323.1L207.24 323.9L207.36 324.7L207.5 325.48L207.67 326.25L207.87 327L208.11 327.75L208.36 328.48L208.65 329.2L208.97 329.91L209.3 330.6L209.67 331.27L210.06 331.93L210.47 332.58L210.91 333.2L211.37 333.81L211.86 334.4L212.36 334.97L212.89 335.52L213.44 336.05L214 336.55L214.59 337.04L215.19 337.5L215.81 337.95L216.45 338.36L217.11 338.75L217.78 339.12L218.47 339.46L219.17 339.78L219.88 340.07L220.61 340.33L221.35 340.56L222.11 340.76L222.87 340.94L223.65 341.08L224.43 341.2L225.23 341.28L226.03 341.33L226.85 341.34L227.66 341.33L228.46 341.28L229.26 341.2L230.05 341.08L230.82 340.94L231.59 340.76L232.34 340.56L233.08 340.33L233.81 340.07L234.53 339.78L235.23 339.46L235.91 339.12L236.59 338.75L237.24 338.36L237.88 337.95L238.5 337.5L239.11 337.04L239.69 336.55L240.26 336.05L240.8 335.52L241.33 334.97L241.84 334.4L242.32 333.81L242.78 333.2L243.22 332.58L243.63 331.93L244.02 331.27L244.39 330.6L244.73 329.91L245.04 329.2L245.33 328.48L245.59 327.75L245.82 327L246.02 326.25L246.19 325.48L246.34 324.7L246.45 323.9L246.53 323.1L246.58 322.3L246.59 321.48L246.6 321.08L246.63 320.68L246.67 320.28L246.72 319.9L246.79 319.51L246.88 319.13L246.98 318.76L247.09 318.39L247.22 318.03L247.36 317.68L247.51 317.33L247.68 316.99L247.86 316.66L248.05 316.34L248.25 316.02L248.47 315.72L248.69 315.42L248.93 315.13L249.18 314.85L249.43 314.58L249.7 314.32L249.98 314.07L250.27 313.83L250.56 313.6L250.87 313.39L251.18 313.18L251.51 312.99L251.84 312.81L252.17 312.64L252.52 312.49L252.87 312.35L253.23 312.22L253.59 312.1L253.96 312.01L254.34 311.92L254.72 311.85L255.11 311.79L255.5 311.75L255.89 311.73L256.29 311.72L256.69 311.73L257.09 311.75Z" id="bNma61dzk"></path><path d="M344.14 18.36L345.7 18.52L347.23 18.74L348.75 19.02L350.25 19.36L351.72 19.76L353.17 20.21L354.59 20.72L355.99 21.28L357.36 21.9L358.7 22.56L360.02 23.28L361.3 24.04L362.54 24.86L363.76 25.72L364.94 26.62L366.08 27.57L367.19 28.56L368.25 29.6L369.28 30.67L370.27 31.78L371.21 32.93L372.11 34.12L372.96 35.34L373.77 36.59L374.53 37.88L375.25 39.2L375.91 40.55L376.52 41.93L377.08 43.34L377.58 44.77L378.04 46.23L378.43 47.71L378.77 49.21L379.05 50.74L379.27 52.29L379.42 53.85L379.52 55.43L379.55 57.03L379.55 159.64L379.54 159.94L379.53 160.23L379.5 160.52L379.46 160.81L379.41 161.09L379.34 161.37L379.27 161.64L379.19 161.91L379.09 162.18L378.99 162.44L378.87 162.69L378.75 162.95L378.62 163.19L378.48 163.43L378.33 163.66L378.17 163.89L378 164.11L377.83 164.32L377.64 164.53L377.45 164.73L377.26 164.92L377.05 165.1L376.84 165.28L376.62 165.45L376.4 165.61L376.16 165.76L375.93 165.9L375.68 166.03L375.43 166.16L375.18 166.27L374.92 166.37L374.66 166.47L374.39 166.55L374.11 166.63L373.84 166.69L373.56 166.74L373.27 166.78L372.98 166.81L372.69 166.83L372.4 166.84L332.62 166.84L331.02 166.8L329.45 166.71L327.89 166.55L326.36 166.33L324.84 166.05L323.34 165.71L321.87 165.31L320.42 164.86L319 164.35L317.6 163.79L316.23 163.17L314.89 162.51L313.57 161.79L312.29 161.02L311.05 160.21L309.83 159.35L308.65 158.45L307.51 157.5L306.4 156.51L305.34 155.47L304.31 154.4L303.32 153.29L302.38 152.14L301.48 150.95L300.63 149.73L299.82 148.47L299.06 147.19L298.34 145.87L297.68 144.52L297.07 143.14L296.51 141.73L296 140.3L295.55 138.84L295.16 137.36L294.82 135.86L294.54 134.33L294.32 132.78L294.16 131.22L294.07 129.63L294.04 128.03L294.04 57.03L294.07 55.43L294.16 53.85L294.32 52.29L294.54 50.74L294.82 49.21L295.16 47.71L295.55 46.23L296 44.77L296.51 43.34L297.07 41.93L297.68 40.55L298.34 39.2L299.06 37.88L299.82 36.59L300.63 35.34L301.48 34.12L302.38 32.93L303.32 31.78L304.31 30.67L305.34 29.6L306.4 28.56L307.51 27.57L308.65 26.62L309.83 25.72L311.05 24.86L312.29 24.04L313.57 23.28L314.89 22.56L316.23 21.9L317.6 21.28L319 20.72L320.42 20.21L321.87 19.76L323.34 19.36L324.84 19.02L326.36 18.74L327.89 18.52L329.45 18.36L331.02 18.26L332.62 18.23L340.98 18.23L342.57 18.26L344.14 18.36Z" id="eN6azDOxP"></path><path d="M346.02 -1.33L346.13 -1.33L346.25 -1.32L346.36 -1.32L346.47 -1.31L346.59 -1.31L346.7 -1.3L346.81 -1.29L346.93 -1.29L347.04 -1.28L347.15 -1.27L347.26 -1.26L347.37 -1.25L347.48 -1.23L347.6 -1.22L347.71 -1.21L347.82 -1.19L347.92 -1.18L348.03 -1.16L348.14 -1.14L348.25 -1.12L348.36 -1.1L348.46 -1.08L348.57 -1.06L348.68 -1.04L348.78 -1.02L348.89 -1L348.99 -0.97L349.1 -0.95L349.2 -0.93L349.3 -0.9L349.41 -0.87L349.51 -0.85L349.61 -0.82L349.71 -0.79L349.81 -0.76L349.91 -0.73L350.01 -0.7L350.11 -0.66L350.37 -0.58L350.63 -0.49L350.88 -0.39L351.13 -0.29L351.37 -0.18L351.61 -0.07L351.85 0.05L352.08 0.17L352.3 0.29L352.52 0.42L352.74 0.55L352.95 0.69L353.15 0.83L353.35 0.97L353.54 1.12L353.72 1.28L353.9 1.43L354.08 1.59L354.24 1.75L354.41 1.92L354.56 2.09L354.71 2.26L354.85 2.44L354.98 2.62L355.11 2.8L355.23 2.98L355.34 3.17L355.44 3.36L355.54 3.55L355.63 3.75L355.71 3.94L355.78 4.14L355.85 4.35L355.91 4.55L355.95 4.76L355.99 4.96L356.03 5.17L356.05 5.39L356.06 5.6L356.07 5.81L356.07 18.87L355.87 22.93L355.29 27.16L354.32 31.55L352.98 36.09L351.28 40.76L349.21 45.55L346.79 50.45L344.03 55.43L340.92 60.48L337.48 65.6L333.71 70.76L329.62 75.95L325.21 81.15L320.5 86.36L315.49 91.55L310.18 96.72L304.59 101.84L298.72 106.91L292.57 111.9L286.16 116.81L279.48 121.62L272.55 126.31L265.38 130.87L257.96 135.29L250.31 139.55L242.44 143.63L234.34 147.53L226.03 151.22L217.51 154.7L208.79 157.94L199.88 160.94L190.78 163.68L181.5 166.14L172.05 168.32L162.43 170.18L152.65 171.73L142.71 172.95L132.63 173.81L122.41 174.32L112.06 174.44L88.08 174.44L87.08 174.43L86.08 174.39L85.1 174.32L84.12 174.22L83.16 174.1L82.22 173.95L81.29 173.78L80.37 173.58L79.47 173.36L78.58 173.11L77.71 172.84L76.87 172.55L76.03 172.24L75.22 171.9L74.43 171.55L73.67 171.17L72.92 170.78L72.19 170.36L71.49 169.93L70.82 169.48L70.17 169.01L69.54 168.52L68.95 168.02L68.38 167.5L67.84 166.97L67.32 166.42L66.84 165.85L66.39 165.28L65.97 164.69L65.58 164.09L65.23 163.47L64.91 162.85L64.62 162.21L64.37 161.56L64.16 160.91L63.98 160.24L63.84 159.56L63.74 158.88L63.68 158.19L63.66 157.49L63.66 51.74L63.73 49.56L63.92 47.39L64.23 45.25L64.67 43.14L65.22 41.05L65.89 38.99L66.68 36.96L67.57 34.97L68.58 33.01L69.69 31.09L70.9 29.2L72.22 27.35L73.63 25.55L75.15 23.79L76.75 22.07L78.45 20.4L80.24 18.78L82.11 17.21L84.07 15.68L86.11 14.22L88.23 12.8L90.43 11.45L92.7 10.15L95.04 8.91L97.46 7.73L99.94 6.62L102.48 5.57L105.09 4.59L107.75 3.68L110.48 2.84L113.25 2.07L116.08 1.38L118.96 0.76L121.89 0.21L124.86 -0.25L127.88 -0.64L130.93 -0.94L134.02 -1.15L137.15 -1.29L140.3 -1.33L345.79 -1.33L345.9 -1.33L346.02 -1.33Z" id="cqgigtjP2"></path><path d="M346.02 -1.33L346.13 -1.33L346.25 -1.32L346.36 -1.32L346.47 -1.31L346.59 -1.31L346.7 -1.3L346.81 -1.29L346.93 -1.29L347.04 -1.28L347.15 -1.27L347.26 -1.26L347.37 -1.25L347.48 -1.23L347.6 -1.22L347.71 -1.21L347.82 -1.19L347.92 -1.18L348.03 -1.16L348.14 -1.14L348.25 -1.12L348.36 -1.1L348.46 -1.08L348.57 -1.06L348.68 -1.04L348.78 -1.02L348.89 -1L348.99 -0.97L349.1 -0.95L349.2 -0.93L349.3 -0.9L349.41 -0.87L349.51 -0.85L349.61 -0.82L349.71 -0.79L349.81 -0.76L349.91 -0.73L350.01 -0.7L350.11 -0.66L348.17 3.5L345.98 7.74L343.53 12.05L340.82 16.4L337.87 20.8L334.68 25.23L331.25 29.69L327.59 34.17L323.69 38.65L319.57 43.12L315.23 47.59L310.67 52.03L305.9 56.45L300.92 60.82L295.73 65.15L290.34 69.41L284.76 73.61L278.99 77.73L273.03 81.77L266.88 85.71L260.56 89.55L254.06 93.27L247.39 96.87L240.56 100.33L233.56 103.66L226.4 106.83L219.1 109.85L211.64 112.69L204.04 115.35L196.29 117.83L188.41 120.11L180.4 122.18L172.26 124.04L164 125.67L155.62 127.07L147.12 128.22L138.51 129.12L129.79 129.76L120.97 130.13L112.06 130.21L88.08 130.21L87.08 130.2L86.08 130.16L85.1 130.09L84.12 129.99L83.16 129.87L82.22 129.72L81.29 129.55L80.37 129.35L79.47 129.13L78.58 128.88L77.71 128.61L76.87 128.32L76.03 128.01L75.22 127.67L74.43 127.32L73.67 126.94L72.92 126.55L72.19 126.13L71.49 125.7L70.82 125.25L70.17 124.78L69.54 124.29L68.95 123.79L68.38 123.27L67.84 122.74L67.32 122.19L66.84 121.63L66.39 121.05L65.97 120.46L65.58 119.86L65.23 119.24L64.91 118.62L64.62 117.98L64.37 117.33L64.16 116.68L63.98 116.01L63.84 115.34L63.74 114.65L63.68 113.96L63.66 113.26L63.66 51.74L63.73 49.56L63.92 47.39L64.23 45.25L64.67 43.14L65.22 41.05L65.89 38.99L66.68 36.96L67.57 34.97L68.58 33.01L69.69 31.09L70.9 29.2L72.22 27.35L73.63 25.55L75.15 23.79L76.75 22.07L78.45 20.4L80.24 18.78L82.11 17.21L84.07 15.68L86.11 14.22L88.23 12.8L90.43 11.45L92.7 10.15L95.04 8.91L97.46 7.73L99.94 6.62L102.48 5.57L105.09 4.59L107.75 3.68L110.48 2.84L113.25 2.07L116.08 1.38L118.96 0.76L121.89 0.21L124.86 -0.25L127.88 -0.64L130.93 -0.94L134.02 -1.15L137.15 -1.29L140.3 -1.33L345.79 -1.33L345.9 -1.33L346.02 -1.33Z" id="cYHCiQwYx"></path><path d="M161.96 398.7L162.41 398.74L162.86 398.8L163.31 398.89L163.75 398.99L164.19 399.11L164.63 399.25L165.05 399.42L165.47 399.6L165.89 399.8L166.29 400.02L166.69 400.26L167.07 400.52L167.45 400.8L167.81 401.09L168.16 401.41L168.5 401.75L168.83 402.1L169.14 402.47L169.44 402.86L169.72 403.27L169.98 403.7L229.65 505.56L172.3 542.92L171.69 543.3L171.07 543.65L170.44 543.97L169.8 544.26L169.16 544.52L168.5 544.76L167.84 544.96L167.17 545.14L166.5 545.29L165.83 545.42L165.15 545.52L164.47 545.59L163.79 545.63L163.11 545.65L162.43 545.64L161.76 545.6L161.08 545.54L160.41 545.46L159.75 545.34L159.09 545.21L158.44 545.04L157.79 544.86L157.16 544.65L156.53 544.41L155.92 544.15L155.32 543.87L154.72 543.56L154.15 543.23L153.58 542.88L153.04 542.5L152.51 542.1L151.99 541.68L151.5 541.24L151.02 540.77L150.56 540.28L150.13 539.77L149.72 539.24L149.33 538.69L148.96 538.11L148.62 537.52L119.58 445.53L119.5 445.26L119.43 444.99L119.36 444.72L119.31 444.45L119.26 444.18L119.21 443.91L119.18 443.64L119.15 443.36L119.13 443.09L119.11 442.82L119.11 442.55L119.11 442.27L119.12 442L119.13 441.73L119.15 441.46L119.18 441.19L119.22 440.92L119.26 440.66L119.31 440.39L119.37 440.13L119.44 439.86L119.51 439.6L119.59 439.34L119.67 439.09L119.76 438.83L119.86 438.58L119.97 438.33L120.08 438.08L120.2 437.84L120.32 437.6L120.45 437.36L120.59 437.12L120.74 436.89L120.89 436.66L121.05 436.44L121.21 436.22L121.38 436L121.56 435.79L121.74 435.58L121.93 435.37L153.92 401.82L154.27 401.46L154.64 401.13L155.01 400.81L155.4 400.52L155.8 400.26L156.21 400.01L156.62 399.78L157.04 399.58L157.47 399.39L157.91 399.23L158.35 399.09L158.79 398.97L159.24 398.87L159.69 398.79L160.14 398.73L160.6 398.69L161.05 398.67L161.51 398.68L161.96 398.7Z" id="ejU0ug6nB"></path><path d="M293.12 398.73L293.57 398.79L294.02 398.87L294.47 398.97L294.91 399.09L295.35 399.23L295.79 399.39L296.22 399.58L296.64 399.78L297.05 400.01L297.46 400.26L297.86 400.52L298.25 400.81L298.63 401.13L298.99 401.46L299.35 401.82L331.33 435.37L331.52 435.58L331.7 435.79L331.88 436L332.05 436.22L332.21 436.44L332.37 436.66L332.52 436.89L332.67 437.12L332.8 437.36L332.94 437.6L333.06 437.84L333.18 438.08L333.29 438.33L333.4 438.58L333.5 438.83L333.59 439.09L333.67 439.34L333.75 439.6L333.82 439.86L333.89 440.13L333.94 440.39L334 440.66L334.04 440.92L334.08 441.19L334.1 441.46L334.13 441.73L334.14 442L334.15 442.27L334.15 442.55L334.14 442.82L334.13 443.09L334.11 443.36L334.08 443.64L334.05 443.91L334 444.18L333.95 444.45L333.89 444.72L333.83 444.99L333.76 445.26L333.68 445.53L304.65 537.52L304.3 538.11L303.94 538.69L303.55 539.24L303.13 539.77L302.7 540.28L302.24 540.77L301.76 541.24L301.27 541.68L300.75 542.1L300.22 542.5L299.68 542.88L299.11 543.23L298.53 543.56L297.94 543.87L297.34 544.15L296.73 544.41L296.1 544.65L295.46 544.86L294.82 545.04L294.17 545.21L293.51 545.34L292.85 545.46L292.18 545.54L291.5 545.6L290.83 545.64L290.15 545.65L289.47 545.63L288.79 545.59L288.11 545.52L287.43 545.42L286.76 545.29L286.08 545.14L285.42 544.96L284.76 544.76L284.1 544.52L283.45 544.26L282.81 543.97L282.18 543.65L281.56 543.3L280.96 542.92L223.62 505.56L283.28 403.7L283.54 403.27L283.82 402.86L284.12 402.47L284.43 402.1L284.76 401.75L285.1 401.41L285.45 401.09L285.81 400.8L286.19 400.52L286.57 400.26L286.97 400.02L287.37 399.8L287.79 399.6L288.21 399.42L288.63 399.25L289.07 399.11L289.51 398.99L289.95 398.89L290.4 398.8L290.85 398.74L291.3 398.7L291.75 398.68L292.21 398.67L292.66 398.69L293.12 398.73Z" id="jGQEdmkrk"></path><path d="M520.27 384.82L525.4 385.34L530.46 386.06L535.46 386.99L540.38 388.11L545.24 389.41L550.01 390.91L554.7 392.58L559.31 394.44L563.82 396.46L568.24 398.66L572.56 401.02L576.78 403.54L580.89 406.22L584.89 409.05L588.77 412.03L592.54 415.16L596.18 418.42L599.69 421.82L603.08 425.36L606.32 429.02L609.43 432.81L612.39 436.72L615.21 440.74L617.87 444.87L620.38 449.12L622.72 453.46L624.91 457.91L626.92 462.45L628.76 467.08L630.43 471.8L631.91 476.6L633.21 481.48L634.32 486.44L635.24 491.47L635.96 496.56L636.48 501.71L636.8 506.93L636.91 512.2L636.8 517.46L636.48 522.68L635.96 527.83L635.24 532.93L634.32 537.95L633.21 542.91L631.91 547.79L630.43 552.59L628.76 557.31L626.92 561.94L624.91 566.48L622.72 570.93L620.38 575.27L617.87 579.52L615.21 583.65L612.39 587.67L609.43 591.58L606.32 595.37L603.08 599.03L599.69 602.57L596.18 605.97L592.54 609.23L588.77 612.36L584.89 615.34L580.89 618.17L576.78 620.85L572.56 623.37L568.24 625.73L563.82 627.93L559.31 629.96L554.7 631.81L550.01 633.48L545.24 634.98L540.38 636.29L535.46 637.4L530.46 638.33L525.4 639.05L520.27 639.58L515.09 639.89L509.85 640L504.61 639.89L499.43 639.58L494.31 639.05L489.24 638.33L484.25 637.4L479.32 636.29L474.47 634.98L469.69 633.48L465 631.81L460.4 629.96L455.88 627.93L451.46 625.73L447.14 623.37L442.92 620.85L438.81 618.17L434.81 615.34L430.93 612.36L427.17 609.23L423.52 605.97L420.01 602.57L416.63 599.03L413.38 595.37L410.27 591.58L407.31 587.67L404.49 583.65L401.83 579.52L399.32 575.27L396.98 570.93L394.79 566.48L392.78 561.94L390.94 557.31L389.27 552.59L387.79 547.79L386.49 542.91L385.38 537.95L384.46 532.93L383.74 527.83L383.22 522.68L382.9 517.46L382.79 512.2L382.9 506.93L383.22 501.71L383.74 496.56L384.46 491.47L385.38 486.44L386.49 481.48L387.79 476.6L389.27 471.8L390.94 467.08L392.78 462.45L394.79 457.91L396.98 453.46L399.32 449.12L401.83 444.87L404.49 440.74L407.31 436.72L410.27 432.81L413.38 429.02L416.63 425.36L420.01 421.82L423.52 418.42L427.17 415.16L430.93 412.03L434.81 409.05L438.81 406.22L442.92 403.54L447.14 401.02L451.46 398.66L455.88 396.46L460.4 394.44L465 392.58L469.69 390.91L474.47 389.41L479.32 388.11L484.25 386.99L489.24 386.06L494.31 385.34L499.43 384.82L504.61 384.5L509.85 384.39L515.09 384.5L520.27 384.82Z" id="a2pxFUs778"></path><path d="M513.58 423.54L515.88 423.66L518.18 423.85L520.48 424.1L522.77 424.41L525.05 424.77L527.33 425.2L529.59 425.69L531.85 426.24L534.09 426.85L535.14 427.15L536.18 427.47L537.22 427.81L538.26 428.15L539.3 428.51L540.33 428.88L541.35 429.27L542.38 429.67L543.4 430.08L544.41 430.51L545.42 430.94L546.43 431.4L547.43 431.86L548.43 432.34L549.42 432.83L550.4 433.34L551.39 433.86L552.36 434.39L553.33 434.93L554.3 435.49L555.26 436.06L556.21 436.64L557.16 437.24L558.1 437.85L559.04 438.48L559.97 439.11L560.89 439.76L561.81 440.43L562.72 441.11L563.62 441.79L564.52 442.5L565.41 443.21L566.29 443.94L567.17 444.69L568.03 445.44L568.89 446.21L569.75 446.99L570.59 447.79L571.43 448.6L572.26 449.42L574.77 452.06L577.16 454.77L579.42 457.56L581.55 460.41L583.55 463.33L585.42 466.32L587.16 469.35L588.77 472.45L590.26 475.59L591.61 478.77L592.84 482L593.94 485.26L594.9 488.56L595.74 491.88L596.45 495.23L597.03 498.6L597.49 501.99L597.81 505.38L598 508.79L598.07 512.2L598 515.61L597.81 519.01L597.49 522.41L597.03 525.8L596.45 529.16L595.74 532.51L594.9 535.84L593.94 539.13L592.84 542.4L591.61 545.62L590.26 548.81L588.77 551.95L587.16 555.04L585.42 558.08L583.55 561.06L581.55 563.98L579.42 566.84L577.16 569.63L574.77 572.34L572.26 574.98L571.43 575.8L570.59 576.61L569.75 577.4L568.89 578.18L568.03 578.95L567.17 579.71L566.29 580.45L565.41 581.18L564.52 581.9L563.62 582.6L562.72 583.29L561.81 583.97L560.89 584.63L559.97 585.28L559.04 585.91L558.1 586.54L557.16 587.15L556.21 587.75L555.26 588.33L554.3 588.9L553.33 589.46L552.36 590L551.39 590.53L550.4 591.05L549.42 591.55L548.43 592.05L547.43 592.52L546.43 592.99L545.42 593.44L544.41 593.88L543.4 594.3L542.38 594.72L541.35 595.11L540.33 595.5L539.3 595.87L538.26 596.23L537.22 596.58L536.18 596.91L535.14 597.23L534.09 597.53L531.85 598.14L529.59 598.69L527.33 599.18L525.05 599.61L522.77 599.98L520.48 600.29L518.18 600.53L515.88 600.72L513.58 600.85L511.27 600.92L508.96 600.93L506.66 600.87L504.35 600.76L502.05 600.59L499.75 600.35L497.46 600.06L495.17 599.71L492.9 599.29L490.63 598.82L488.37 598.29L486.13 597.69L483.89 597.04L481.68 596.32L479.48 595.55L477.29 594.72L475.12 593.82L472.98 592.87L470.85 591.85L468.75 590.78L466.67 589.64L464.61 588.44L462.59 587.19L460.58 585.87L458.61 584.5L456.67 583.06L454.75 581.56L452.87 580.01L451.03 578.39L449.22 576.71L447.44 574.98L444.93 572.34L442.54 569.63L440.28 566.84L438.15 563.98L436.15 561.06L434.28 558.08L432.54 555.04L430.93 551.95L429.44 548.81L428.09 545.62L426.86 542.4L425.76 539.13L424.8 535.84L423.96 532.51L423.25 529.16L422.67 525.8L422.22 522.41L421.89 519.01L421.7 515.61L421.63 512.2L421.7 508.79L421.89 505.38L422.22 501.99L422.67 498.6L423.25 495.23L423.96 491.88L424.8 488.56L425.76 485.26L426.86 482L428.09 478.77L429.44 475.59L430.93 472.45L432.54 469.35L434.28 466.32L436.15 463.33L438.15 460.41L440.28 457.56L442.54 454.77L444.93 452.06L447.44 449.42L449.22 447.68L451.03 446.01L452.87 444.39L454.75 442.83L456.67 441.34L458.61 439.9L460.58 438.52L462.59 437.21L464.61 435.95L466.67 434.76L468.75 433.62L470.85 432.54L472.98 431.53L475.12 430.57L477.29 429.68L479.48 428.84L481.68 428.07L483.89 427.35L486.13 426.7L488.37 426.1L490.63 425.57L492.9 425.1L495.17 424.68L497.46 424.33L499.75 424.03L502.05 423.8L504.35 423.63L506.66 423.51L508.96 423.46L511.27 423.47L513.58 423.54Z" id="a2kS9mPubJ"></path><path d="M536.18 427.47L537.22 427.81L538.26 428.15L539.3 428.51L540.33 428.88L541.35 429.27L542.38 429.67L543.4 430.08L544.41 430.51L545.42 430.94L546.43 431.4L547.43 431.86L548.43 432.34L549.42 432.83L550.4 433.34L551.39 433.86L552.36 434.39L553.33 434.93L554.3 435.49L555.26 436.06L556.21 436.64L557.16 437.24L558.1 437.85L559.04 438.48L559.97 439.11L560.89 439.76L561.81 440.43L562.72 441.11L563.62 441.79L564.52 442.5L565.41 443.21L566.29 443.94L567.17 444.69L568.03 445.44L568.89 446.21L569.75 446.99L570.59 447.79L571.43 448.6L572.26 449.42L574.77 452.06L577.16 454.77L579.42 457.56L581.55 460.41L583.55 463.33L585.42 466.32L587.16 469.35L588.77 472.45L590.26 475.59L591.61 478.77L592.84 482L593.94 485.26L594.9 488.56L595.74 491.88L596.45 495.23L597.03 498.6L597.49 501.99L597.81 505.38L598 508.79L598.07 512.2L598 515.61L597.81 519.01L597.49 522.41L597.03 525.8L596.45 529.16L595.74 532.51L594.9 535.84L593.94 539.13L592.84 542.4L591.61 545.62L590.26 548.81L588.77 551.95L587.16 555.04L585.42 558.08L583.55 561.06L581.55 563.98L579.42 566.84L577.16 569.63L574.77 572.34L572.26 574.98L571.43 575.8L570.59 576.61L569.75 577.4L568.89 578.18L568.03 578.95L567.17 579.71L566.29 580.45L565.41 581.18L564.52 581.9L563.62 582.6L562.72 583.29L561.81 583.97L560.89 584.63L559.97 585.28L559.04 585.91L558.1 586.54L557.16 587.15L556.21 587.75L555.26 588.33L554.3 588.9L553.33 589.46L552.36 590L551.39 590.53L550.4 591.05L549.42 591.55L548.43 592.05L547.43 592.52L546.43 592.99L545.42 593.44L544.41 593.88L543.4 594.3L542.38 594.72L541.35 595.11L540.33 595.5L539.3 595.87L538.26 596.23L537.22 596.58L536.18 596.91L535.14 597.23L534.09 597.53L533.04 597.23L532 596.91L530.96 596.58L529.92 596.23L528.88 595.87L527.85 595.5L526.83 595.11L525.8 594.72L524.79 594.3L523.77 593.88L522.76 593.44L521.76 592.99L520.75 592.52L519.76 592.05L518.77 591.55L517.78 591.05L516.8 590.53L515.82 590L514.85 589.46L513.89 588.9L512.93 588.33L511.97 587.75L511.02 587.15L510.08 586.54L509.15 585.91L508.22 585.28L507.29 584.63L506.38 583.97L505.47 583.29L504.56 582.6L503.67 581.9L502.78 581.18L501.89 580.45L501.02 579.71L500.15 578.95L499.29 578.18L498.44 577.4L497.59 576.61L496.76 575.8L495.93 574.98L493.41 572.34L491.03 569.63L488.77 566.84L486.64 563.98L484.64 561.06L482.77 558.08L481.02 555.04L479.41 551.95L477.93 548.81L476.57 545.62L475.34 542.4L474.25 539.13L473.28 535.84L472.44 532.51L471.73 529.16L471.15 525.8L470.7 522.41L470.38 519.01L470.18 515.61L470.12 512.2L470.18 508.79L470.38 505.38L470.7 501.99L471.15 498.6L471.73 495.23L472.44 491.88L473.28 488.56L474.25 485.26L475.34 482L476.57 478.77L477.93 475.59L479.41 472.45L481.02 469.35L482.77 466.32L484.64 463.33L486.64 460.41L488.77 457.56L491.03 454.77L493.41 452.06L495.93 449.42L496.76 448.6L497.59 447.79L498.44 446.99L499.29 446.21L500.15 445.44L501.02 444.69L501.89 443.94L502.78 443.21L503.67 442.5L504.56 441.79L505.47 441.11L506.38 440.43L507.29 439.76L508.22 439.11L509.15 438.48L510.08 437.85L511.02 437.24L511.97 436.64L512.93 436.06L513.89 435.49L514.85 434.93L515.82 434.39L516.8 433.86L517.78 433.34L518.77 432.83L519.76 432.34L520.75 431.86L521.76 431.4L522.76 430.94L523.77 430.51L524.79 430.08L525.8 429.67L526.83 429.27L527.85 428.88L528.88 428.51L529.92 428.15L530.96 427.81L532 427.47L533.04 427.15L534.09 426.85L535.14 427.15L536.18 427.47Z" id="ae4p4Pick"></path><path d="M543.48 461.36L543.85 461.4L544.22 461.45L544.6 461.51L544.97 461.59L545.34 461.69L545.71 461.8L546.07 461.92L546.43 462.06L546.79 462.22L547.14 462.39L547.49 462.58L547.84 462.79L548.17 463L548.5 463.23L548.81 463.47L549.11 463.73L549.4 463.99L549.67 464.26L549.94 464.54L550.19 464.83L550.43 465.13L550.65 465.43L550.86 465.75L551.06 466.07L551.25 466.4L551.42 466.73L551.58 467.07L551.73 467.41L551.87 467.76L551.99 468.12L552.09 468.48L552.19 468.84L552.26 469.21L552.33 469.58L552.38 469.95L552.42 470.32L552.44 470.7L552.45 471.07L552.44 471.45L552.42 471.83L552.39 472.2L552.34 472.58L552.27 472.95L552.19 473.33L552.1 473.7L551.99 474.07L551.86 474.44L551.72 474.8L551.56 475.16L551.39 475.52L551.21 475.87L551 476.21L494.1 569.01L493.97 569.21L493.84 569.41L493.7 569.61L493.55 569.81L493.41 570L493.26 570.18L493.1 570.36L492.94 570.54L492.78 570.71L492.61 570.88L492.44 571.04L492.26 571.2L492.08 571.36L491.9 571.51L491.71 571.65L491.53 571.79L491.33 571.93L491.14 572.06L490.94 572.19L490.74 572.31L490.53 572.43L490.33 572.54L490.12 572.64L489.9 572.75L489.69 572.84L489.47 572.93L489.25 573.02L489.03 573.1L488.81 573.17L488.58 573.24L488.35 573.31L488.12 573.37L487.89 573.42L487.66 573.47L487.42 573.51L487.18 573.55L486.95 573.58L486.71 573.6L486.47 573.62L486.23 573.63L486.16 573.63L486.12 573.64L486.08 573.64L486.04 573.64L486.03 573.64L486 573.64L485.98 573.64L485.95 573.64L485.93 573.64L485.9 573.64L485.87 573.64L485.84 573.64L485.61 573.64L485.38 573.63L485.15 573.62L484.92 573.6L484.69 573.57L484.47 573.54L484.24 573.51L484.02 573.47L483.8 573.42L483.57 573.37L483.35 573.31L483.14 573.25L482.92 573.19L482.71 573.12L482.49 573.04L482.28 572.96L482.07 572.87L481.87 572.78L481.66 572.69L481.46 572.59L481.26 572.48L481.06 572.37L480.87 572.26L480.67 572.14L480.48 572.01L480.3 571.89L480.11 571.75L479.93 571.62L479.75 571.48L479.58 571.33L479.4 571.18L479.24 571.03L479.07 570.87L478.91 570.7L478.75 570.54L478.6 570.37L478.44 570.19L478.3 570.01L478.15 569.83L478.01 569.64L452.15 534.09L451.92 533.76L451.71 533.42L451.51 533.08L451.32 532.74L451.16 532.38L451 532.03L450.86 531.67L450.74 531.31L450.63 530.94L450.54 530.57L450.46 530.2L450.39 529.83L450.34 529.45L450.31 529.08L450.29 528.7L450.28 528.33L450.29 527.95L450.31 527.58L450.34 527.21L450.39 526.83L450.46 526.47L450.54 526.1L450.63 525.74L450.73 525.38L450.85 525.02L450.99 524.67L451.13 524.32L451.29 523.98L451.47 523.65L451.65 523.32L451.86 522.99L452.07 522.68L452.3 522.37L452.54 522.07L452.79 521.78L453.06 521.49L453.34 521.22L453.63 520.95L453.93 520.7L454.25 520.46L454.58 520.22L454.91 520.01L455.25 519.81L455.6 519.62L455.94 519.45L456.3 519.3L456.66 519.16L457.02 519.04L457.38 518.93L457.75 518.83L458.12 518.75L458.49 518.69L458.86 518.64L459.23 518.6L459.6 518.58L459.98 518.57L460.35 518.58L460.72 518.6L461.09 518.64L461.46 518.69L461.83 518.75L462.19 518.83L462.55 518.92L462.91 519.03L463.27 519.15L463.61 519.28L463.96 519.43L464.3 519.59L464.63 519.77L464.96 519.96L465.28 520.16L465.6 520.37L465.9 520.6L466.2 520.84L466.49 521.1L466.77 521.37L467.05 521.65L467.31 521.94L467.56 522.25L467.8 522.57L485.16 546.42L534.49 465.97L534.71 465.63L534.93 465.3L535.17 464.99L535.42 464.69L535.68 464.4L535.95 464.12L536.23 463.86L536.52 463.6L536.82 463.36L537.12 463.14L537.43 462.92L537.75 462.72L538.08 462.54L538.41 462.36L538.75 462.2L539.09 462.05L539.44 461.92L539.79 461.8L540.15 461.69L540.51 461.6L540.87 461.52L541.24 461.45L541.61 461.4L541.98 461.36L542.35 461.34L542.73 461.33L543.1 461.34L543.48 461.36Z" id="a2GQFggNz4"></path></defs><g><g><g><use xlink:href="#bVOHEyGlu" opacity="1" fill="#d2d2d7" fill-opacity="1"></use><g><use xlink:href="#bVOHEyGlu" opacity="1" fill-opacity="0" stroke="#000000" stroke-width="1" stroke-opacity="0"></use></g></g><g><use xlink:href="#ajqrRCHQc" opacity="1" fill="#ebebf0" fill-opacity="1"></use><g><use xlink:href="#ajqrRCHQc" opacity="1" fill-opacity="0" stroke="#000000" stroke-width="1" stroke-opacity="0"></use></g></g><g><use xlink:href="#a3z3KkNp67" opacity="1" fill="#e3a76f" fill-opacity="1"></use><g><use xlink:href="#a3z3KkNp67" opacity="1" fill-opacity="0" stroke="#000000" stroke-width="1" stroke-opacity="0"></use></g></g><g><use xlink:href="#a3pbGlx4Mk" opacity="1" fill="#d2d2d7" fill-opacity="1"></use><g><use xlink:href="#a3pbGlx4Mk" opacity="1" fill-opacity="0" stroke="#000000" stroke-width="1" stroke-opacity="0"></use></g></g><g><use xlink:href="#dNOXPZxYR" opacity="1" fill="#d2d2d7" fill-opacity="1"></use><g><use xlink:href="#dNOXPZxYR" opacity="1" fill-opacity="0" stroke="#000000" stroke-width="1" stroke-opacity="0"></use></g></g><g><use xlink:href="#arvRob2ds" opacity="1" fill="#3899e1" fill-opacity="1"></use><g><use xlink:href="#arvRob2ds" opacity="1" fill-opacity="0" stroke="#000000" stroke-width="1" stroke-opacity="0"></use></g></g><g><use xlink:href="#g3YF9laFOI" opacity="1" fill="#5caae3" fill-opacity="1"></use><g><use xlink:href="#g3YF9laFOI" opacity="1" fill-opacity="0" stroke="#000000" stroke-width="1" stroke-opacity="0"></use></g></g><g><use xlink:href="#g11lVmBVew" opacity="1" fill="#e3a76f" fill-opacity="1"></use><g><use xlink:href="#g11lVmBVew" opacity="1" fill-opacity="0" stroke="#000000" stroke-width="1" stroke-opacity="0"></use></g></g><g><use xlink:href="#cqhXwynv0" opacity="1" fill="#e3a76f" fill-opacity="1"></use><g><use xlink:href="#cqhXwynv0" opacity="1" fill-opacity="0" stroke="#000000" stroke-width="1" stroke-opacity="0"></use></g></g><g><use xlink:href="#amU6WjveE" opacity="1" fill="#e3a76f" fill-opacity="1"></use><g><use xlink:href="#amU6WjveE" opacity="1" fill-opacity="0" stroke="#000000" stroke-width="1" stroke-opacity="0"></use></g></g><g><use xlink:href="#cwxcppZCj" opacity="1" fill="#f2bb88" fill-opacity="1"></use><g><use xlink:href="#cwxcppZCj" opacity="1" fill-opacity="0" stroke="#000000" stroke-width="1" stroke-opacity="0"></use></g></g><g><use xlink:href="#hfeWBcBSD" opacity="1" fill="#ae583e" fill-opacity="1"></use><g><use xlink:href="#hfeWBcBSD" opacity="1" fill-opacity="0" stroke="#000000" stroke-width="1" stroke-opacity="0"></use></g></g><g><use xlink:href="#ba6jy4jT3" opacity="1" fill="#ae583e" fill-opacity="1"></use><g><use xlink:href="#ba6jy4jT3" opacity="1" fill-opacity="0" stroke="#000000" stroke-width="1" stroke-opacity="0"></use></g></g><g><use xlink:href="#h3ueHiFm90" opacity="1" fill="#ae583e" fill-opacity="1"></use><g><use xlink:href="#h3ueHiFm90" opacity="1" fill-opacity="0" stroke="#000000" stroke-width="1" stroke-opacity="0"></use></g></g><g><use xlink:href="#btz7Pm05J" opacity="1" fill="#ae583e" fill-opacity="1"></use><g><use xlink:href="#btz7Pm05J" opacity="1" fill-opacity="0" stroke="#000000" stroke-width="1" stroke-opacity="0"></use></g></g><g><use xlink:href="#bNma61dzk" opacity="1" fill="#ae583e" fill-opacity="1"></use><g><use xlink:href="#bNma61dzk" opacity="1" fill-opacity="0" stroke="#000000" stroke-width="1" stroke-opacity="0"></use></g></g><g><use xlink:href="#eN6azDOxP" opacity="1" fill="#ae583e" fill-opacity="1"></use><g><use xlink:href="#eN6azDOxP" opacity="1" fill-opacity="0" stroke="#000000" stroke-width="1" stroke-opacity="0"></use></g></g><g><use xlink:href="#cqgigtjP2" opacity="1" fill="#c0694e" fill-opacity="1"></use><g><use xlink:href="#cqgigtjP2" opacity="1" fill-opacity="0" stroke="#000000" stroke-width="1" stroke-opacity="0"></use></g></g><g><use xlink:href="#cYHCiQwYx" opacity="1" fill="#c97e67" fill-opacity="1"></use><g><use xlink:href="#cYHCiQwYx" opacity="1" fill-opacity="0" stroke="#000000" stroke-width="1" stroke-opacity="0"></use></g></g><g><use xlink:href="#ejU0ug6nB" opacity="1" fill="#87bee7" fill-opacity="1"></use><g><use xlink:href="#ejU0ug6nB" opacity="1" fill-opacity="0" stroke="#000000" stroke-width="1" stroke-opacity="0"></use></g></g><g><use xlink:href="#jGQEdmkrk" opacity="1" fill="#87bee7" fill-opacity="1"></use><g><use xlink:href="#jGQEdmkrk" opacity="1" fill-opacity="0" stroke="#000000" stroke-width="1" stroke-opacity="0"></use></g></g><g><use xlink:href="#a2pxFUs778" opacity="1" fill="#3899e1" fill-opacity="1"></use><g><use xlink:href="#a2pxFUs778" opacity="1" fill-opacity="0" stroke="#000000" stroke-width="1" stroke-opacity="0"></use></g></g><g><use xlink:href="#a2kS9mPubJ" opacity="1" fill="#1ed688" fill-opacity="1"></use><g><use xlink:href="#a2kS9mPubJ" opacity="1" fill-opacity="0" stroke="#000000" stroke-width="1" stroke-opacity="0"></use></g></g><g><use xlink:href="#ae4p4Pick" opacity="1" fill="#35e298" fill-opacity="1"></use><g><use xlink:href="#ae4p4Pick" opacity="1" fill-opacity="0" stroke="#000000" stroke-width="1" stroke-opacity="0"></use></g></g><g><use xlink:href="#a2GQFggNz4" opacity="1" fill="#016fc0" fill-opacity="1"></use><g><use xlink:href="#a2GQFggNz4" opacity="1" fill-opacity="0" stroke="#000000" stroke-width="1" stroke-opacity="0"></use></g></g></g></g></svg>