<?xml version="1.0" encoding="UTF-8" standalone="no"?>
<!DOCTYPE svg PUBLIC "-//W3C//DTD SVG 1.1//EN" "http://www.w3.org/Graphics/SVG/1.1/DTD/svg11.dtd">
<svg version="1.1" xmlns="http://www.w3.org/2000/svg" xmlns:xlink="http://www.w3.org/1999/xlink" preserveAspectRatio="xMidYMid meet" viewBox="0 0 640 640" width="640" height="640"><defs><path d="M288.03 38.89L289.31 39.2L290.58 39.53L291.85 39.86L293.1 40.21L294.35 40.56L295.59 40.92L296.82 41.29L298.04 41.67L299.25 42.06L300.46 42.46L301.66 42.86L302.85 43.28L304.03 43.7L305.21 44.13L306.39 44.57L307.55 45.02L308.71 45.47L309.87 45.93L311.02 46.4L312.16 46.88L313.3 47.37L314.44 47.86L315.57 48.36L316.7 48.86L317.82 49.38L318.94 49.9L320.06 50.42L321.18 50.96L322.29 51.5L323.4 52.04L324.5 52.6L325.61 53.15L326.71 53.72L327.81 54.29L328.91 54.86L330.01 55.44L331.11 56.03L332.21 56.62L333.31 57.21L370.56 41.25L426.45 95.8L410.48 133.06L410.88 133.8L411.28 134.56L411.69 135.35L412.1 136.16L412.52 136.99L412.93 137.84L413.35 138.71L413.78 139.6L414.21 140.52L414.64 141.46L415.07 142.41L415.51 143.39L415.95 144.4L416.39 145.42L416.84 146.47L417.29 147.53L417.75 148.62L418.2 149.73L418.66 150.86L419.13 152.02L419.59 153.19L420.07 154.39L420.54 155.61L421.02 156.85L421.5 158.11L421.98 159.39L422.47 160.7L422.96 162.02L423.45 163.37L423.95 164.74L424.45 166.13L424.96 167.54L425.46 168.98L425.97 170.43L426.49 171.91L427 173.41L427.52 174.93L428.05 176.48L428.58 178.04L429.11 179.63L469.02 194.26L469.02 272.76L430.44 287.4L430.13 288.69L429.82 289.98L429.49 291.25L429.16 292.51L428.82 293.77L428.46 295.01L428.1 296.25L427.73 297.48L427.35 298.7L426.96 299.92L426.57 301.12L426.16 302.32L425.75 303.51L425.32 304.7L424.89 305.88L424.45 307.05L424.01 308.22L423.55 309.38L423.09 310.53L422.62 311.68L422.14 312.83L421.66 313.97L421.16 315.1L420.66 316.24L420.16 317.36L419.64 318.49L419.12 319.61L418.6 320.73L418.06 321.84L417.52 322.95L416.98 324.06L416.43 325.17L415.87 326.27L415.31 327.38L414.74 328.48L414.16 329.58L413.58 330.68L412.99 331.77L412.4 332.87L411.81 333.97L427.77 371.23L371.89 425.78L334.64 409.81L333.53 410.41L332.43 411L331.32 411.59L330.21 412.17L329.09 412.74L327.96 413.31L326.84 413.87L325.7 414.43L324.57 414.98L323.43 415.53L322.29 416.07L321.14 416.6L319.99 417.13L318.84 417.65L317.68 418.16L316.52 418.67L315.36 419.17L314.19 419.66L313.02 420.15L311.85 420.62L310.68 421.09L309.5 421.56L308.32 422.01L307.14 422.46L305.96 422.9L304.77 423.33L303.59 423.75L302.4 424.17L301.21 424.57L300.02 424.97L298.83 425.36L297.64 425.74L296.44 426.11L295.25 426.47L294.05 426.82L292.85 427.16L291.66 427.5L290.46 427.82L289.26 428.14L288.07 428.44L273.43 467.03L196.26 467.03L181.62 428.44L180.33 428.14L179.05 427.82L177.77 427.5L176.51 427.16L175.25 426.82L174.01 426.47L172.77 426.11L171.54 425.74L170.32 425.36L169.11 424.97L167.9 424.57L166.7 424.17L165.51 423.75L164.32 423.33L163.14 422.9L161.97 422.46L160.81 422.01L159.64 421.56L158.49 421.09L157.34 420.62L156.19 420.15L155.05 419.66L153.92 419.17L152.79 418.67L151.66 418.16L150.53 417.65L149.41 417.13L148.3 416.6L147.18 416.07L146.07 415.53L144.96 414.98L143.85 414.43L142.75 413.87L141.65 413.31L140.55 412.74L139.45 412.17L138.35 411.59L137.25 411L136.15 410.41L135.05 409.81L97.8 425.78L41.91 371.23L57.88 333.97L57.28 332.87L56.69 331.77L56.11 330.66L55.53 329.54L54.95 328.42L54.38 327.3L53.82 326.17L53.26 325.04L52.71 323.9L52.16 322.77L51.62 321.62L51.09 320.48L50.56 319.32L50.04 318.17L49.53 317.01L49.02 315.85L48.52 314.69L48.03 313.53L47.55 312.36L47.07 311.19L46.6 310.01L46.14 308.84L45.68 307.66L45.23 306.48L44.79 305.29L44.36 304.11L43.94 302.92L43.53 301.74L43.12 300.55L42.72 299.36L42.33 298.16L41.95 296.97L41.58 295.78L41.22 294.58L40.87 293.39L40.53 292.19L40.19 290.99L39.87 289.8L39.56 288.6L39.25 287.4L0.66 272.76L0.66 194.26L39.25 179.63L39.56 178.33L39.87 177.05L40.19 175.78L40.53 174.51L40.87 173.26L41.22 172.01L41.58 170.77L41.95 169.55L42.33 168.32L42.72 167.11L43.12 165.9L43.53 164.71L43.94 163.51L44.36 162.33L44.79 161.15L45.23 159.98L45.68 158.81L46.14 157.65L46.6 156.49L47.07 155.34L47.55 154.2L48.03 153.06L48.52 151.92L49.02 150.79L49.53 149.66L50.04 148.54L50.56 147.42L51.09 146.3L51.62 145.19L52.16 144.08L52.71 142.97L53.26 141.86L53.82 140.75L54.38 139.65L54.95 138.55L55.53 137.45L56.11 136.35L56.69 135.25L57.28 134.15L57.88 133.06L41.91 95.8L96.47 41.25L133.72 57.21L134.82 56.62L135.93 56.03L137.04 55.44L138.15 54.86L139.27 54.29L140.39 53.72L141.52 53.15L142.65 52.59L143.79 52.04L144.93 51.5L146.07 50.96L147.22 50.42L148.37 49.9L149.52 49.38L150.68 48.86L151.84 48.36L153 47.86L154.17 47.37L155.34 46.88L156.51 46.4L157.68 45.93L158.86 45.47L160.04 45.02L161.22 44.57L162.4 44.13L163.58 43.7L164.77 43.28L165.96 42.86L167.15 42.46L168.34 42.06L169.53 41.67L170.72 41.29L171.92 40.92L173.11 40.56L174.31 40.21L175.5 39.86L176.7 39.53L177.9 39.2L179.09 38.89L180.29 38.59L194.93 0L273.43 0L286.74 38.59L288.03 38.89ZM225.61 137.36L221.73 137.75L217.9 138.29L214.12 138.98L210.39 139.81L206.72 140.79L203.11 141.9L199.57 143.15L196.09 144.53L192.68 146.04L189.35 147.68L186.09 149.44L182.91 151.33L179.81 153.33L176.8 155.44L173.87 157.67L171.04 160L168.3 162.44L165.66 164.99L163.11 167.63L160.67 170.37L158.33 173.21L156.11 176.13L153.99 179.15L151.99 182.25L150.11 185.43L148.35 188.68L146.71 192.02L145.2 195.43L143.82 198.9L142.57 202.45L141.45 206.06L140.48 209.72L139.65 213.45L138.96 217.23L138.42 221.07L138.03 224.95L137.79 228.88L137.71 232.85L137.79 236.82L138.03 240.75L138.42 244.63L138.96 248.46L139.65 252.25L140.48 255.97L141.45 259.64L142.57 263.25L143.82 266.79L145.2 270.27L146.71 273.68L148.35 277.01L150.11 280.27L151.99 283.45L153.99 286.55L156.11 289.56L158.33 292.49L160.67 295.32L163.11 298.06L165.66 300.71L168.3 303.25L171.04 305.69L173.87 308.03L176.8 310.26L179.81 312.37L182.91 314.37L186.09 316.25L189.35 318.01L192.68 319.65L196.09 321.16L199.57 322.55L203.11 323.79L206.72 324.91L210.39 325.88L214.12 326.72L217.9 327.4L221.73 327.94L225.61 328.33L229.54 328.57L233.51 328.65L237.49 328.57L241.41 328.33L245.3 327.94L249.13 327.4L252.91 326.72L256.64 325.88L260.31 324.91L263.91 323.79L267.46 322.55L270.94 321.16L274.34 319.65L277.68 318.01L280.94 316.25L284.12 314.37L287.21 312.37L290.23 310.26L293.15 308.03L295.99 305.69L298.73 303.25L301.37 300.71L303.92 298.06L306.36 295.32L308.69 292.49L310.92 289.56L313.04 286.55L315.04 283.45L316.92 280.27L318.68 277.01L320.32 273.68L321.83 270.27L323.21 266.79L324.46 263.25L325.57 259.64L326.55 255.97L327.38 252.25L328.07 248.46L328.61 244.63L329 240.75L329.24 236.82L329.31 232.85L329.24 228.88L329 224.95L328.61 221.07L328.07 217.23L327.38 213.45L326.55 209.72L325.57 206.06L324.46 202.45L323.21 198.9L321.83 195.43L320.32 192.02L318.68 188.68L316.92 185.43L315.04 182.25L313.04 179.15L310.92 176.13L308.69 173.21L306.36 170.37L303.92 167.63L301.37 164.99L298.73 162.44L295.99 160L293.15 157.67L290.23 155.44L287.21 153.33L284.12 151.33L280.94 149.44L277.68 147.68L274.34 146.04L270.94 144.53L267.46 143.15L263.91 141.9L260.31 140.79L256.64 139.81L252.91 138.98L249.13 138.29L245.3 137.75L241.41 137.36L237.49 137.13L233.51 137.05L229.54 137.13L225.61 137.36Z" id="ahs2XB8jV"></path><path d="M166.98 300.71C163.53 304.17 135.85 331.84 132.39 335.3C188.27 391.18 280.08 391.18 335.97 335.3C391.85 279.42 391.85 188.94 335.97 131.73C332.51 135.19 304.83 162.86 301.37 166.32C338.63 203.58 338.63 263.45 301.37 300.71C264.12 337.96 204.24 337.96 166.98 300.71Z" id="a69teZO4U"></path><path d="M132.39 335.3C135.85 331.84 163.53 304.17 166.98 300.71C129.73 263.45 129.73 203.58 166.98 166.32C204.24 129.06 264.12 129.06 301.37 166.32C304.83 162.86 332.51 135.19 335.97 131.73C280.08 75.84 188.27 75.84 132.39 131.73C76.51 187.61 76.51 278.09 132.39 335.3Z" id="aSDfHu5t"></path><path d="M417.13 460.37L417.53 460.77L417.94 461.17L418.35 461.57L418.76 461.97L419.18 462.37L419.6 462.77L420.03 463.17L420.45 463.57L420.88 463.97L421.31 464.37L421.74 464.77L422.17 465.16L422.6 465.56L423.04 465.96L423.47 466.36L423.9 466.76L424.33 467.16L424.76 467.56L425.19 467.96L425.61 468.36L426.04 468.76L426.46 469.16L426.87 469.56L427.29 469.95L427.69 470.35L428.1 470.75L428.5 471.15L428.89 471.55L429.28 471.95L429.67 472.35L430.04 472.75L430.41 473.15L430.78 473.55L431.13 473.95L431.48 474.35L431.82 474.74L432.16 475.14L432.48 475.54L432.79 475.94L433.1 476.34L451.73 476.34L465.03 509.61L451.73 522.91L451.79 523.31L451.85 523.73L451.91 524.15L451.97 524.57L452.02 525.01L452.07 525.46L452.11 525.91L452.15 526.37L452.19 526.84L452.22 527.32L452.26 527.8L452.28 528.3L452.31 528.8L452.33 529.31L452.35 529.83L452.36 530.36L452.38 530.9L452.38 531.44L452.39 532L452.39 532.56L452.39 533.13L452.38 533.7L452.38 534.29L452.36 534.89L452.35 535.49L452.33 536.1L452.31 536.72L452.28 537.35L452.26 537.98L452.22 538.63L452.19 539.28L452.15 539.94L452.11 540.61L452.07 541.29L452.02 541.97L451.97 542.67L451.91 543.37L451.85 544.08L451.79 544.8L451.73 545.53L465.03 558.84L451.73 592.1L433.1 592.1L432.7 592.5L432.3 592.91L431.9 593.32L431.5 593.73L431.1 594.15L430.7 594.57L430.3 594.99L429.9 595.42L429.5 595.85L429.11 596.28L428.71 596.71L428.31 597.14L427.91 597.57L427.51 598.01L427.11 598.44L426.71 598.87L426.31 599.3L425.91 599.73L425.51 600.16L425.11 600.58L424.71 601L424.32 601.42L423.92 601.84L423.52 602.25L423.12 602.66L422.72 603.07L422.32 603.47L421.92 603.86L421.52 604.25L421.12 604.64L420.72 605.01L420.32 605.38L419.92 605.75L419.53 606.1L419.13 606.45L418.73 606.79L418.33 607.12L417.93 607.45L417.53 607.76L417.13 608.07L417.13 626.69L383.87 640L370.56 626.69L369.96 626.79L369.37 626.88L368.79 626.97L368.2 627.05L367.62 627.13L367.05 627.2L366.48 627.27L365.91 627.33L365.34 627.39L364.78 627.44L364.22 627.49L363.66 627.53L363.11 627.57L362.55 627.6L362 627.63L361.45 627.65L360.9 627.67L360.35 627.68L359.8 627.69L359.25 627.69L358.7 627.69L358.15 627.68L357.6 627.67L357.05 627.65L356.5 627.63L355.95 627.6L355.4 627.57L354.84 627.53L354.28 627.49L353.72 627.44L353.16 627.39L352.59 627.33L352.03 627.27L351.45 627.2L350.88 627.13L350.3 627.05L349.72 626.97L349.13 626.88L348.54 626.79L347.94 626.69L334.64 640L301.37 626.69L301.37 608.07L300.97 607.67L300.56 607.27L300.15 606.87L299.74 606.47L299.32 606.07L298.9 605.67L298.48 605.27L298.05 604.87L297.62 604.47L297.19 604.07L296.76 603.67L296.33 603.28L295.9 602.88L295.47 602.48L295.03 602.08L294.6 601.68L294.17 601.28L293.74 600.88L293.32 600.48L292.89 600.08L292.47 599.68L292.05 599.28L291.63 598.88L291.22 598.49L290.81 598.09L290.4 597.69L290 597.29L289.61 596.89L289.22 596.49L288.84 596.09L288.46 595.69L288.09 595.29L287.72 594.89L287.37 594.49L287.02 594.09L286.68 593.7L286.35 593.3L286.02 592.9L285.71 592.5L285.41 592.1L266.78 592.1L253.47 558.84L266.78 545.53L266.68 544.93L266.59 544.34L266.5 543.76L266.42 543.17L266.34 542.59L266.27 542.02L266.2 541.45L266.14 540.88L266.08 540.31L266.03 539.75L265.98 539.19L265.94 538.63L265.9 538.08L265.87 537.52L265.84 536.97L265.82 536.42L265.8 535.87L265.79 535.32L265.78 534.77L265.78 534.22L265.78 533.67L265.79 533.12L265.8 532.57L265.82 532.02L265.84 531.47L265.87 530.92L265.9 530.36L265.94 529.81L265.98 529.25L266.03 528.69L266.08 528.13L266.14 527.56L266.2 526.99L266.27 526.42L266.34 525.85L266.42 525.27L266.5 524.69L266.59 524.1L266.68 523.51L266.78 522.91L253.47 509.61L266.78 476.34L285.41 476.34L285.81 475.94L286.2 475.53L286.6 475.12L287 474.71L287.4 474.29L287.8 473.87L288.2 473.45L288.6 473.02L289 472.59L289.4 472.16L289.8 471.73L290.2 471.3L290.6 470.87L290.99 470.44L291.39 470L291.79 469.57L292.19 469.14L292.59 468.71L292.99 468.28L293.39 467.86L293.79 467.44L294.19 467.02L294.59 466.6L294.99 466.19L295.39 465.78L295.78 465.37L296.18 464.97L296.58 464.58L296.98 464.19L297.38 463.81L297.78 463.43L298.18 463.06L298.58 462.69L298.98 462.34L299.38 461.99L299.78 461.65L300.18 461.32L300.57 460.99L300.97 460.68L301.37 460.37L301.37 441.75L334.64 428.44L347.94 441.75L348.54 441.65L349.13 441.56L349.72 441.47L350.3 441.39L350.88 441.31L351.45 441.24L352.03 441.17L352.59 441.11L353.16 441.05L353.72 441L354.28 440.95L354.84 440.91L355.4 440.87L355.95 440.84L356.5 440.81L357.05 440.79L357.6 440.77L358.15 440.76L358.7 440.75L359.25 440.75L359.8 440.75L360.35 440.76L360.9 440.77L361.45 440.79L362 440.81L362.55 440.84L363.11 440.87L363.66 440.91L364.22 440.95L364.78 441L365.34 441.05L365.91 441.11L366.48 441.17L367.05 441.24L367.62 441.31L368.2 441.39L368.79 441.47L369.37 441.56L369.96 441.65L370.56 441.75L383.87 428.44L417.13 441.75L417.13 460.37ZM357.52 490.43L355.88 490.61L354.25 490.85L352.63 491.16L351.03 491.53L349.44 491.97L347.87 492.46L346.31 493.02L344.78 493.64L343.27 494.32L341.79 495.05L340.33 495.85L338.89 496.7L337.49 497.61L336.12 498.58L334.79 499.6L333.49 500.68L332.22 501.81L331 502.99L329.82 504.23L328.68 505.52L327.58 506.86L326.53 508.24L325.53 509.68L324.58 511.17L323.69 512.7L322.84 514.29L322.06 515.91L321.33 517.59L320.67 519.19L320.08 520.81L319.57 522.44L319.13 524.07L318.76 525.72L318.46 527.37L318.23 529.02L318.07 530.68L317.98 532.34L317.96 533.99L318.01 535.64L318.12 537.29L318.3 538.92L318.54 540.55L318.85 542.17L319.22 543.77L319.66 545.36L320.15 546.93L320.71 548.49L321.33 550.02L322.01 551.53L322.75 553.02L323.54 554.48L324.4 555.91L325.31 557.31L326.27 558.68L327.3 560.02L328.37 561.32L329.5 562.58L330.69 563.8L331.92 564.99L333.21 566.13L334.55 567.22L335.94 568.27L337.38 569.27L338.86 570.22L340.4 571.12L341.98 571.96L343.61 572.74L345.28 573.47L346.88 574.13L348.5 574.72L350.13 575.23L351.77 575.68L353.41 576.04L355.06 576.34L356.72 576.57L358.37 576.73L360.03 576.82L361.68 576.84L363.33 576.79L364.98 576.68L366.62 576.5L368.24 576.26L369.86 575.95L371.47 575.58L373.05 575.14L374.63 574.65L376.18 574.09L377.71 573.47L379.22 572.79L380.71 572.06L382.17 571.26L383.6 570.41L385 569.5L386.37 568.53L387.71 567.51L389.01 566.43L390.27 565.3L391.5 564.12L392.68 562.88L393.82 561.59L394.91 560.25L395.96 558.87L396.96 557.43L397.91 555.94L398.81 554.41L399.65 552.82L400.44 551.2L401.16 549.52L401.83 547.92L402.41 546.3L402.93 544.67L403.37 543.04L403.74 541.39L404.04 539.74L404.26 538.09L404.42 536.43L404.51 534.77L404.53 533.12L404.49 531.47L404.37 529.82L404.2 528.18L403.95 526.56L403.64 524.94L403.27 523.34L402.84 521.75L402.34 520.17L401.78 518.62L401.16 517.09L400.49 515.58L399.75 514.09L398.95 512.63L398.1 511.2L397.19 509.8L396.22 508.43L395.2 507.09L394.12 505.79L392.99 504.53L391.81 503.31L390.57 502.12L389.29 500.98L387.95 499.89L386.56 498.84L385.12 497.84L383.63 496.89L382.1 495.99L380.52 495.15L378.89 494.37L377.21 493.64L375.61 492.98L373.99 492.39L372.37 491.88L370.73 491.43L369.08 491.07L367.43 490.77L365.78 490.54L364.12 490.38L362.47 490.29L360.81 490.27L359.16 490.32L357.52 490.43Z" id="bHBVooWU"></path><path d="M591.43 286.07L591.83 286.47L592.24 286.87L592.65 287.27L593.07 287.67L593.48 288.07L593.9 288.47L594.33 288.87L594.75 289.27L595.18 289.66L595.61 290.06L596.04 290.46L596.47 290.86L596.91 291.26L597.34 291.66L597.77 292.06L598.2 292.46L598.63 292.86L599.06 293.26L599.49 293.66L599.92 294.06L600.34 294.45L600.76 294.85L601.17 295.25L601.59 295.65L602 296.05L602.4 296.45L602.8 296.85L603.2 297.25L603.59 297.65L603.97 298.05L604.35 298.45L604.72 298.85L605.08 299.24L605.44 299.64L605.79 300.04L606.13 300.44L606.46 300.84L606.78 301.24L607.1 301.64L607.4 302.04L626.03 302.04L639.33 335.3L626.03 348.61L626.09 349.01L626.15 349.42L626.21 349.84L626.27 350.27L626.32 350.71L626.37 351.15L626.41 351.61L626.45 352.07L626.49 352.54L626.53 353.02L626.56 353.5L626.59 354L626.61 354.5L626.63 355.01L626.65 355.53L626.67 356.06L626.68 356.6L626.69 357.14L626.69 357.69L626.69 358.25L626.69 358.82L626.69 359.4L626.68 359.99L626.67 360.58L626.65 361.19L626.63 361.8L626.61 362.42L626.59 363.04L626.56 363.68L626.53 364.32L626.49 364.98L626.45 365.64L626.41 366.31L626.37 366.99L626.32 367.67L626.27 368.37L626.21 369.07L626.15 369.78L626.09 370.5L626.03 371.23L639.33 384.53L626.03 417.8L607.4 417.8L607 418.2L606.6 418.6L606.2 419.01L605.8 419.43L605.4 419.85L605 420.27L604.61 420.69L604.21 421.12L603.81 421.55L603.41 421.98L603.01 422.41L602.61 422.84L602.21 423.27L601.81 423.7L601.41 424.13L601.01 424.57L600.61 425L600.21 425.43L599.82 425.85L599.42 426.28L599.02 426.7L598.62 427.12L598.22 427.54L597.82 427.95L597.42 428.36L597.02 428.77L596.62 429.17L596.22 429.56L595.82 429.95L595.42 430.33L595.03 430.71L594.63 431.08L594.23 431.44L593.83 431.8L593.43 432.15L593.03 432.49L592.63 432.82L592.23 433.14L591.83 433.46L591.43 433.76L591.43 452.39L558.17 465.7L544.86 452.39L544.27 452.49L543.68 452.58L543.09 452.67L542.51 452.75L541.93 452.83L541.35 452.9L540.78 452.97L540.21 453.03L539.65 453.09L539.08 453.14L538.52 453.19L537.97 453.23L537.41 453.27L536.86 453.3L536.3 453.33L535.75 453.35L535.2 453.37L534.65 453.38L534.1 453.39L533.55 453.39L533.01 453.39L532.46 453.38L531.91 453.37L531.36 453.35L530.8 453.33L530.25 453.3L529.7 453.27L529.14 453.23L528.58 453.19L528.02 453.14L527.46 453.09L526.9 453.03L526.33 452.97L525.76 452.9L525.18 452.83L524.6 452.75L524.02 452.67L523.43 452.58L522.84 452.49L522.24 452.39L508.94 465.7L475.68 452.39L475.68 433.76L475.27 433.36L474.87 432.96L474.46 432.57L474.04 432.17L473.63 431.77L473.2 431.37L472.78 430.97L472.35 430.57L471.93 430.17L471.5 429.77L471.07 429.37L470.63 428.97L470.2 428.57L469.77 428.17L469.34 427.78L468.91 427.38L468.47 426.98L468.05 426.58L467.62 426.18L467.19 425.78L466.77 425.38L466.35 424.98L465.93 424.58L465.52 424.18L465.11 423.78L464.71 423.38L464.31 422.99L463.91 422.59L463.52 422.19L463.14 421.79L462.76 421.39L462.39 420.99L462.03 420.59L461.67 420.19L461.32 419.79L460.98 419.39L460.65 418.99L460.33 418.59L460.01 418.2L459.71 417.8L441.08 417.8L427.77 384.53L441.08 371.23L440.98 370.63L440.89 370.04L440.8 369.45L440.72 368.87L440.64 368.29L440.57 367.72L440.5 367.14L440.44 366.58L440.38 366.01L440.33 365.45L440.28 364.89L440.24 364.33L440.2 363.77L440.17 363.22L440.14 362.67L440.12 362.12L440.1 361.57L440.09 361.02L440.08 360.47L440.08 359.92L440.08 359.37L440.09 358.82L440.1 358.27L440.12 357.72L440.14 357.17L440.17 356.62L440.2 356.06L440.24 355.51L440.28 354.95L440.33 354.39L440.38 353.82L440.44 353.26L440.5 352.69L440.57 352.12L440.64 351.54L440.72 350.97L440.8 350.38L440.89 349.8L440.98 349.2L441.08 348.61L427.77 335.3L441.08 302.04L459.71 302.04L460.11 301.64L460.51 301.23L460.91 300.82L461.31 300.41L461.7 299.99L462.1 299.57L462.5 299.14L462.9 298.72L463.3 298.29L463.7 297.86L464.1 297.43L464.5 297L464.9 296.56L465.3 296.13L465.7 295.7L466.1 295.27L466.49 294.84L466.89 294.41L467.29 293.98L467.69 293.56L468.09 293.13L468.49 292.71L468.89 292.3L469.29 291.88L469.69 291.47L470.09 291.07L470.49 290.67L470.89 290.28L471.28 289.89L471.68 289.5L472.08 289.13L472.48 288.75L472.88 288.39L473.28 288.03L473.68 287.69L474.08 287.35L474.48 287.01L474.88 286.69L475.28 286.38L475.68 286.07L475.68 267.44L508.94 254.14L522.24 267.44L522.84 267.35L523.43 267.25L524.02 267.17L524.6 267.08L525.18 267.01L525.76 266.93L526.33 266.87L526.9 266.8L527.46 266.75L528.02 266.69L528.58 266.65L529.14 266.61L529.7 266.57L530.25 266.54L530.8 266.51L531.36 266.49L531.91 266.47L532.46 266.46L533.01 266.45L533.55 266.45L534.1 266.45L534.65 266.46L535.2 266.47L535.75 266.49L536.3 266.51L536.86 266.54L537.41 266.57L537.97 266.61L538.52 266.65L539.08 266.69L539.65 266.75L540.21 266.8L540.78 266.87L541.35 266.93L541.93 267.01L542.51 267.08L543.09 267.17L543.68 267.25L544.27 267.35L544.86 267.44L558.17 254.14L591.43 267.44L591.43 286.07ZM530.49 317.46L528.85 317.63L527.22 317.88L525.61 318.19L524 318.56L522.41 318.99L520.84 319.49L519.29 320.05L517.75 320.66L516.24 321.34L514.76 322.08L513.3 322.88L511.87 323.73L510.47 324.64L509.1 325.61L507.76 326.63L506.46 327.71L505.2 328.84L503.97 330.02L502.79 331.26L501.65 332.54L500.55 333.88L499.51 335.27L498.51 336.71L497.56 338.2L496.66 339.73L495.82 341.31L495.03 342.94L494.3 344.61L493.64 346.22L493.06 347.84L492.54 349.46L492.1 351.1L491.73 352.75L491.43 354.4L491.21 356.05L491.05 357.71L490.96 359.36L490.94 361.02L490.98 362.67L491.09 364.31L491.27 365.95L491.52 367.58L491.82 369.2L492.2 370.8L492.63 372.39L493.13 373.96L493.69 375.51L494.3 377.05L494.98 378.56L495.72 380.04L496.52 381.5L497.37 382.94L498.28 384.34L499.25 385.71L500.27 387.04L501.35 388.34L502.48 389.61L503.66 390.83L504.9 392.01L506.18 393.15L507.52 394.25L508.91 395.3L510.35 396.3L511.84 397.25L513.37 398.14L514.95 398.98L516.58 399.77L518.25 400.5L519.95 401.16L521.66 401.75L523.38 402.26L525.1 402.7L526.82 403.07L528.54 403.37L530.27 403.6L531.99 403.76L533.7 403.85L535.41 403.87L537.1 403.82L538.79 403.71L540.47 403.53L542.13 403.29L543.77 402.98L545.4 402.61L547 402.17L548.59 401.68L550.15 401.12L551.68 400.5L553.19 399.82L554.67 399.08L556.12 398.29L557.53 397.43L558.91 396.52L560.25 395.56L561.56 394.53L562.82 393.46L564.04 392.33L565.22 391.14L566.35 389.91L567.43 388.62L568.46 387.28L569.44 385.89L570.37 384.45L571.24 382.97L572.06 381.43L572.81 379.85L573.51 378.22L574.14 376.55L574.8 374.94L575.39 373.33L575.9 371.7L576.34 370.06L576.71 368.42L577.01 366.77L577.24 365.11L577.39 363.46L577.48 361.8L577.51 360.14L577.46 358.49L577.35 356.85L577.17 355.21L576.92 353.58L576.62 351.97L576.25 350.36L575.81 348.77L575.31 347.2L574.76 345.65L574.14 344.12L573.46 342.61L572.72 341.12L571.93 339.66L571.07 338.23L570.16 336.83L569.2 335.46L568.17 334.12L567.1 332.82L565.97 331.56L564.78 330.33L563.55 329.15L562.26 328.01L560.92 326.91L559.53 325.87L558.09 324.87L556.61 323.92L555.07 323.02L553.49 322.18L551.86 321.39L550.19 320.66L548.58 320L546.97 319.42L545.34 318.9L543.7 318.46L542.06 318.09L540.41 317.79L538.75 317.57L537.09 317.41L535.44 317.32L533.78 317.3L532.13 317.34L530.49 317.46Z" id="ajKjBv1Fw"></path></defs><g><g><g><use xlink:href="#ahs2XB8jV" opacity="1" fill="#3899e1" fill-opacity="1"></use><g><use xlink:href="#ahs2XB8jV" opacity="1" fill-opacity="0" stroke="#000000" stroke-width="1" stroke-opacity="0"></use></g></g><g><use xlink:href="#a69teZO4U" opacity="1" fill="#0479cf" fill-opacity="1"></use><g><use xlink:href="#a69teZO4U" opacity="1" fill-opacity="0" stroke="#000000" stroke-width="1" stroke-opacity="0"></use></g></g><g><use xlink:href="#aSDfHu5t" opacity="1" fill="#0479cf" fill-opacity="1"></use><g><use xlink:href="#aSDfHu5t" opacity="1" fill-opacity="0" stroke="#000000" stroke-width="1" stroke-opacity="0"></use></g></g><g><use xlink:href="#bHBVooWU" opacity="1" fill="#4cdbc4" fill-opacity="1"></use><g><use xlink:href="#bHBVooWU" opacity="1" fill-opacity="0" stroke="#000000" stroke-width="1" stroke-opacity="0"></use></g></g><g><use xlink:href="#ajKjBv1Fw" opacity="1" fill="#ff7058" fill-opacity="1"></use><g><use xlink:href="#ajKjBv1Fw" opacity="1" fill-opacity="0" stroke="#000000" stroke-width="1" stroke-opacity="0"></use></g></g></g></g></svg>