<?xml version="1.0" encoding="UTF-8" standalone="no"?>
<!DOCTYPE svg PUBLIC "-//W3C//DTD SVG 1.1//EN" "http://www.w3.org/Graphics/SVG/1.1/DTD/svg11.dtd">
<svg version="1.1" xmlns="http://www.w3.org/2000/svg" xmlns:xlink="http://www.w3.org/1999/xlink" preserveAspectRatio="xMidYMid meet" viewBox="0 0 640 640" width="640" height="640"><defs><path d="M560.79 201.14L332.73 201.14L432.63 101.23L332.73 0L560.79 0L580.77 91.24L560.79 201.14Z" id="ijAN7xgCB"></path><path d="M560.79 360.98L560.79 0L600.75 0L600.75 360.98L560.79 360.98Z" id="a5D92Tw8ZY"></path><path d="M580.77 360.98L580.77 0L600.75 0L600.75 360.98L580.77 360.98Z" id="bbjrJkJqk"></path><path d="M0 682L0 560.79L161.18 560.79L161.18 480.86L321.02 480.86L321.02 400.94L480.86 400.94L480.86 321.02L682 321.02L682 682L0 682Z" id="a3k44hVNA"></path><path d="M582.77 682L582.77 321.02L684 321.02L684 682L582.77 682Z" id="h3Rwf0nBj"></path></defs><g><g><g><use xlink:href="#ijAN7xgCB" opacity="1" fill="#f8dc4a" fill-opacity="1"></use><g><use xlink:href="#ijAN7xgCB" opacity="1" fill-opacity="0" stroke="#000000" stroke-width="1" stroke-opacity="0"></use></g></g><g><use xlink:href="#a5D92Tw8ZY" opacity="1" fill="#6e6e6e" fill-opacity="1"></use><g><use xlink:href="#a5D92Tw8ZY" opacity="1" fill-opacity="0" stroke="#000000" stroke-width="1" stroke-opacity="0"></use></g></g><g><use xlink:href="#bbjrJkJqk" opacity="1" fill="#444444" fill-opacity="1"></use><g><use xlink:href="#bbjrJkJqk" opacity="1" fill-opacity="0" stroke="#000000" stroke-width="1" stroke-opacity="0"></use></g></g><g><use xlink:href="#a3k44hVNA" opacity="1" fill="#3899e1" fill-opacity="1"></use><g><use xlink:href="#a3k44hVNA" opacity="1" fill-opacity="0" stroke="#000000" stroke-width="1" stroke-opacity="0"></use></g></g><g><use xlink:href="#h3Rwf0nBj" opacity="1" fill="#0476cb" fill-opacity="1"></use><g><use xlink:href="#h3Rwf0nBj" opacity="1" fill-opacity="0" stroke="#000000" stroke-width="1" stroke-opacity="0"></use></g></g></g></g></svg>