<svg  fill="#3899e1" xmlns="http://www.w3.org/2000/svg" xmlns:xlink="http://www.w3.org/1999/xlink" version="1.1" x="0px" y="0px" viewBox="0 0 64 80" style="enable-background:new 0 0 64 64;" xml:space="preserve"><path d="M18,28c0-2.206-1.794-4-4-4s-4,1.794-4,4s1.794,4,4,4S18,30.206,18,28z M12,28c0-1.103,0.897-2,2-2s2,0.897,2,2  s-0.897,2-2,2S12,29.103,12,28z"/><path d="M36,33c0-2.206-1.794-4-4-4s-4,1.794-4,4s1.794,4,4,4S36,35.206,36,33z M30,33c0-1.103,0.897-2,2-2s2,0.897,2,2  s-0.897,2-2,2S30,34.103,30,33z"/><path d="M54,25c-5.309,0-8,3.364-8,10c0,2.877,1.04,6.101,2.328,9H37.672C38.96,41.101,40,37.877,40,35c0-6.636-2.691-10-8-10  s-8,3.364-8,10c0,2.877,1.04,6.101,2.328,9h-9.234C19.2,40.398,22,34.728,22,30c0-6.636-2.691-10-8-10s-8,3.364-8,10  c0,5.732,4.111,12.846,6.115,15.976L2.176,60.434c-0.21,0.306-0.233,0.703-0.061,1.032C2.288,61.794,2.629,62,3,62h58  c0.371,0,0.712-0.206,0.885-0.534c0.173-0.329,0.149-0.727-0.061-1.032l-6.211-9.034C57.491,48.524,62,40.998,62,35  C62,28.364,59.309,25,54,25z M54,27c2.967,0,6,0.95,6,8c0,5.339-4.191,12.403-6,15.203c-1.809-2.8-6-9.864-6-15.203  C48,27.95,51.033,27,54,27z M39.878,51.406l0.933,3.111l-13.393,3.348l-2.347-3.286L39.878,51.406z M46.582,55.135L50.057,60H27.121  L46.582,55.135z M42.754,54.031l-0.914-3.046l9.089-1.948c0.623,1.063,1.177,1.937,1.585,2.554L42.754,54.031z M49.906,47.212  l-8.643,1.852L40.344,46h8.932C49.487,46.417,49.696,46.82,49.906,47.212z M38.256,46l1.045,3.484l-5.173,1.108  c0.733-1.166,1.676-2.767,2.595-4.593H38.256z M32,27c2.967,0,6,0.95,6,8c0,5.339-4.191,12.403-6,15.203  c-1.809-2.8-6-9.864-6-15.203C26,27.95,29.033,27,32,27z M30.385,51.395l-6.581,1.41L18.943,46h8.334  C28.428,48.288,29.621,50.226,30.385,51.395z M16.486,46l3.075,4.306l-9.503,2.193l3.271-4.757c0.002,0.002,0.005,0.003,0.007,0.004  c0.081,0.072,0.173,0.126,0.272,0.168c0.023,0.01,0.046,0.018,0.07,0.026C13.781,47.975,13.888,48,14,48  c0.323,0,0.627-0.156,0.814-0.42c0.066-0.092,0.475-0.676,1.055-1.58H16.486z M14,22c2.967,0,6,0.95,6,8  c0,5.339-4.191,12.403-6,15.203c-1.809-2.8-6-9.864-6-15.203C8,22.95,11.033,22,14,22z M8.381,54.938l12.439-2.87l4.513,6.318  L18.879,60H4.901L8.381,54.938z M52.514,60l-3.847-5.386l5.742-1.435L59.099,60H52.514z"/><path d="M58,33c0-2.206-1.794-4-4-4s-4,1.794-4,4s1.794,4,4,4S58,35.206,58,33z M52,33c0-1.103,0.897-2,2-2s2,0.897,2,2  s-0.897,2-2,2S52,34.103,52,33z"/></svg>