<svg  fill="#3899e1" xmlns="http://www.w3.org/2000/svg" xmlns:xlink="http://www.w3.org/1999/xlink" version="1.1" x="0px" y="0px" viewBox="0 0 64 64" enable-background="new 0 0 64 64" xml:space="preserve"><g><g><path d="M56,27h-3.601c-0.507-2.072-1.326-4.044-2.445-5.883l2.552-2.552c0.391-0.391,0.391-1.023,0-1.414l-5.656-5.657    c-0.188-0.188-0.441-0.293-0.707-0.293s-0.52,0.105-0.707,0.293l-2.552,2.552c-1.838-1.119-3.812-1.939-5.884-2.445V8    c0-0.552-0.447-1-1-1h-8c-0.552,0-1,0.448-1,1v3.601c-2.072,0.506-4.045,1.326-5.883,2.445l-2.552-2.552    c-0.391-0.391-1.023-0.391-1.414,0l-5.656,5.657c-0.391,0.391-0.391,1.023,0,1.414l2.552,2.552    c-1.119,1.839-1.939,3.812-2.445,5.883H8c-0.552,0-1,0.448-1,1v8c0,0.553,0.448,1,1,1h3.601c0.506,2.071,1.326,4.045,2.445,5.884    l-2.552,2.552c-0.391,0.391-0.391,1.023,0,1.414l5.656,5.656c0.391,0.391,1.023,0.391,1.414,0l2.552-2.552    c1.838,1.119,3.811,1.938,5.883,2.445V56c0,0.553,0.448,1,1,1h8c0.553,0,1-0.447,1-1v-3.601c2.071-0.507,4.045-1.326,5.884-2.445    l2.552,2.552c0.391,0.391,1.023,0.391,1.414,0l5.656-5.656c0.391-0.391,0.391-1.023,0-1.414l-2.552-2.552    c1.119-1.839,1.938-3.812,2.445-5.884H56c0.553,0,1-0.447,1-1v-8C57,27.448,56.553,27,56,27z M55,35h-3.401    c-0.476,0-0.886,0.335-0.98,0.801c-0.482,2.378-1.415,4.622-2.771,6.672c-0.263,0.396-0.209,0.923,0.127,1.259l2.411,2.411    l-4.242,4.242l-2.411-2.411c-0.337-0.338-0.864-0.388-1.259-0.127c-2.05,1.356-4.294,2.289-6.672,2.771    C35.335,50.713,35,51.123,35,51.599V55h-6v-3.401c0-0.476-0.335-0.886-0.801-0.98c-2.379-0.482-4.623-1.415-6.671-2.771    c-0.397-0.262-0.923-0.209-1.259,0.127l-2.412,2.411l-4.242-4.242l2.411-2.411c0.336-0.336,0.389-0.862,0.127-1.259    c-1.356-2.05-2.289-4.294-2.772-6.672C13.287,35.335,12.877,35,12.401,35H9v-6h3.401c0.476,0,0.885-0.335,0.98-0.801    c0.483-2.378,1.416-4.623,2.772-6.671c0.262-0.396,0.209-0.923-0.127-1.259l-2.411-2.411l4.242-4.243l2.412,2.411    c0.336,0.336,0.862,0.389,1.259,0.127c2.048-1.356,4.292-2.289,6.671-2.772C28.665,13.287,29,12.877,29,12.401V9h6v3.401    c0,0.476,0.335,0.885,0.801,0.98c2.379,0.483,4.624,1.416,6.672,2.772c0.395,0.261,0.922,0.209,1.259-0.127l2.411-2.411    l4.242,4.243l-2.411,2.411c-0.336,0.336-0.39,0.863-0.127,1.259c1.356,2.048,2.289,4.293,2.771,6.671    C50.713,28.665,51.123,29,51.599,29H55V35z"/><path d="M32,17c-8.271,0-15,6.729-15,15c0,8.271,6.729,15,15,15c8.271,0,15-6.729,15-15C47,23.729,40.271,17,32,17z M32,45    c-7.168,0-13-5.832-13-13c0-7.168,5.832-13,13-13c7.168,0,13,5.832,13,13C45,39.168,39.168,45,32,45z"/><path d="M37.447,25.105c-0.495-0.247-1.094-0.047-1.342,0.447l-5.379,10.759l-3.019-3.019c-0.391-0.391-1.023-0.391-1.414,0    s-0.391,1.023,0,1.414l4,4C30.482,38.896,30.737,39,31,39c0.053,0,0.107-0.004,0.16-0.013c0.317-0.052,0.59-0.253,0.734-0.54l6-12    C38.142,25.953,37.941,25.353,37.447,25.105z"/></g></g></svg>