<svg  fill="#3899e1" xmlns="http://www.w3.org/2000/svg" xmlns:xlink="http://www.w3.org/1999/xlink" version="1.1" x="0px" y="0px" viewBox="0 0 100 100" enable-background="new 0 0 100 100" xml:space="preserve"><circle cx="50" cy="30.589" r="4.747"/><path d="M55.431,36.783H44.569c-3.029,0-5.511,2.327-5.766,5.29l-0.025,8.965h3.765v-8.464h1.308v8.464h12.299v-8.464h1.308v8.464  h3.765l-0.025-8.965C60.942,39.11,58.46,36.783,55.431,36.783z"/><circle cx="19.85" cy="33.546" r="4.061"/><path d="M25.11,51.039v-7.24h1.119v7.24h3.22l-0.022-7.669c-0.218-2.535-2.341-4.525-4.932-4.525h-9.291  c-2.591,0-4.715,1.99-4.932,4.525l-0.022,7.669h3.22v-7.24h1.119v7.24H25.11z"/><circle cx="80.15" cy="33.546" r="4.061"/><path d="M89.75,51.039l-0.022-7.669c-0.218-2.535-2.341-4.525-4.932-4.525h-9.291c-2.591,0-4.715,1.99-4.932,4.525l-0.022,7.669  h3.22v-7.24h1.119v7.24h10.521v-7.24h1.119v7.24H89.75z"/><path d="M50,20.745c-10.762,0-19.518,8.755-19.518,19.517c0,5.421,2.225,10.329,5.805,13.869L20.687,75.743l4.865,3.512  l15.604-21.617c2.659,1.359,5.659,2.141,8.844,2.141c10.762,0,19.518-8.756,19.518-19.518S60.762,20.745,50,20.745z M50,56.779  c-9.107,0-16.518-7.41-16.518-16.518S40.893,23.745,50,23.745s16.518,7.409,16.518,16.517S59.107,56.779,50,56.779z"/></svg>