<svg  fill="#3899e1" xmlns="http://www.w3.org/2000/svg" xmlns:xlink="http://www.w3.org/1999/xlink" version="1.1" x="0px" y="0px" viewBox="0 0 100 100" enable-background="new 0 0 100 100" xml:space="preserve"><path d="M11.195,50.234c2.818-0.01,5.1-2.29,5.117-5.112c-0.017-2.824-2.299-5.112-5.117-5.117  c-2.829,0.005-5.115,2.293-5.115,5.117C6.08,47.944,8.366,50.224,11.195,50.234L11.195,50.234z"/><polygon points="58.511,76.288 22.564,76.288 0.747,55.995 5.491,50.89 25.305,69.317 58.511,69.317 58.511,76.288 "/><path d="M53.359,66.991c-0.721,0-1.454-0.197-2.107-0.626L42.4,60.609l-11.845,5.972c-1.403,0.708-3.091,0.496-4.278-0.531  l-10.634-9.209c-1.822-1.637-2.332-4.315-0.932-5.933c1.402-1.616,4.067-2.263,6.262-0.321l8.804,7.627l11.126-5.523  c1.23-0.62,2.699-0.539,3.856,0.211l10.714,6.976c1.794,1.166,2.3,3.568,1.135,5.354C55.865,66.375,54.627,66.991,53.359,66.991  L53.359,66.991z"/><g><path d="M77.06,44.818c-2.909,0-5.276-2.368-5.276-5.279c0-2.919,2.367-5.285,5.276-5.285c2.925,0,5.284,2.364,5.284,5.285   C82.344,42.451,79.983,44.818,77.06,44.818z"/></g><path d="M98.146,62.505c0,0-2.805-11.419-7.319-16.102c-1.558-2.048-6.168-4.407-8.92-0.92c-1.887,3.155-3.58,8.133-5.111,11.69  l-7.876-0.015l-5.562-6.837l-1.827,1.486l4.993,6.139c-0.587,0.539-0.96,1.304-0.961,2.164c-0.004,1.631,1.318,2.957,2.952,2.96  l4.554,0.005c-1.534,0.354-3.068,1.518-3.313,3.358l-5.459,15.715c-0.72,2.218,0.307,4.365,2.133,4.914  c2.627,0.752,4.562-1.016,5.01-2.507l4.751-13.887h18.104c2.608,0,4.162-2.153,4.327-4.051  C98.784,64.731,98.146,62.505,98.146,62.505z M83.461,62.789h-2.49l5.01-11.086c0.162-0.352,0.736-0.905,1.354-0.491  c0.322,0.215,0.978,0.878,0.816,1.23L83.461,62.789z"/><g><path d="M43.497,30.458c-1.289,0-2.337-1.049-2.337-2.341c0-1.292,1.048-2.341,2.337-2.341c1.296,0,2.342,1.047,2.342,2.341   C45.839,29.409,44.792,30.458,43.497,30.458z"/></g><g><path d="M50.365,30.458c-1.289,0-2.337-1.049-2.337-2.341c0-1.292,1.048-2.341,2.337-2.341c1.297,0,2.342,1.047,2.342,2.341   C52.707,29.409,51.66,30.458,50.365,30.458z"/></g><g><path d="M57.234,30.458c-1.289,0-2.336-1.049-2.336-2.341c0-1.292,1.047-2.341,2.336-2.341c1.298,0,2.344,1.047,2.344,2.341   C59.578,29.409,58.529,30.458,57.234,30.458z"/></g><path d="M50.312,43.737H23.405l13.59-7.719c-1.341-2.325-2.043-4.94-2.043-7.643c0-8.471,6.89-15.362,15.36-15.362  c8.473,0,15.366,6.891,15.366,15.362C65.678,36.846,58.785,43.737,50.312,43.737L50.312,43.737z M33.414,41.094h16.898  c7.014,0,12.722-5.706,12.722-12.718s-5.708-12.719-12.722-12.719c-7.012,0-12.717,5.706-12.717,12.719  c0,2.639,0.811,5.177,2.344,7.34l0.846,1.192L33.414,41.094L33.414,41.094z"/></svg>