<svg fill="#3899e1" xmlns="http://www.w3.org/2000/svg" xmlns:xlink="http://www.w3.org/1999/xlink" version="1.0" x="0px"
     y="0px" viewBox="0 0 100 100" enable-background="new 0 0 100 " xml:space="preserve"><path fill="none" stroke="#3899e1" stroke-width="2" stroke-linecap="round" stroke-linejoin="round" stroke-miterlimit="10" d="  M15,59.998c0,4.141,3.359,7.5,7.5,7.5h55.001c4.14,0,7.499-3.359,7.499-7.5H15z"/>
    <path fill="none" stroke="#3899e1" stroke-width="2" stroke-linecap="round" stroke-linejoin="round"
          stroke-miterlimit="10"
          d="  M85,59.998V25c0-4.145-3.359-7.5-7.499-7.5H22.5c-4.141,0-7.5,3.359-7.5,7.5v34.999H85z"/>
    <path fill="none" stroke="#3899e1" stroke-width="2" stroke-linecap="round" stroke-linejoin="round"
          stroke-miterlimit="10"
          d="  M56.253,67.498l3.366,8.088C59.863,76.176,60,76.824,60,77.498c0,0.68-0.137,1.326-0.381,1.916c-0.252,0.609-0.624,1.16-1.082,1.623  c-0.462,0.457-1.01,0.83-1.623,1.082c-0.589,0.244-1.232,0.381-1.912,0.381H50l0,0h-4.998c-0.679,0-1.323-0.137-1.916-0.381  c-0.61-0.252-1.161-0.625-1.623-1.082c-0.458-0.463-0.827-1.014-1.082-1.623C40.138,78.824,40,78.178,40,77.498  c0-0.674,0.138-1.322,0.382-1.912l3.369-8.088H56.253z"/>
    <circle fill="none" stroke="#3899e1" stroke-width="2" stroke-linecap="round" stroke-linejoin="round"
            stroke-miterlimit="10" cx="50" cy="32.5" r="7.5"/>
    <path fill="none" stroke="#3899e1" stroke-width="2" stroke-linecap="round" stroke-linejoin="round"
          stroke-miterlimit="10"
          d="  M42.501,53.123v6.875H57.5v-6.875v6.875h7.499V49.374c0-4.141-3.355-7.5-7.499-7.5c-1.016,1.017-2.188,1.781-3.441,2.298  c-1.299,0.537-2.677,0.81-4.059,0.81c-1.381,0-2.763-0.272-4.058-0.81c-1.253-0.517-2.421-1.281-3.441-2.298  c-4.141,0-7.5,3.359-7.5,7.5v10.625h7.5V53.123z"/></svg>