<?xml version="1.0" encoding="UTF-8" standalone="no"?>
<!DOCTYPE svg PUBLIC "-//W3C//DTD SVG 1.1//EN" "http://www.w3.org/Graphics/SVG/1.1/DTD/svg11.dtd">
<svg version="1.1" xmlns="http://www.w3.org/2000/svg" xmlns:xlink="http://www.w3.org/1999/xlink" preserveAspectRatio="xMidYMid meet" viewBox="0 0 640 640" width="640" height="640"><defs><path d="M330.54 448.16C330.54 448.16 330.54 448.16 330.54 448.16C330.54 479.09 330.54 496.26 330.54 499.7C330.54 499.7 330.54 499.7 330.54 499.7C271.51 499.7 238.71 499.7 232.15 499.7C232.15 499.7 232.15 499.7 232.15 499.7C232.15 468.78 232.15 451.6 232.15 448.16C232.15 448.16 232.15 448.16 232.15 448.16C291.18 448.16 323.98 448.16 330.54 448.16Z" id="b6ySGIVc"></path><path d="M247.95 448.16C247.95 448.16 247.95 448.16 247.95 448.16C247.95 479.09 247.95 496.26 247.95 499.7C247.95 499.7 247.95 499.7 247.95 499.7C233.07 499.7 224.8 499.7 223.15 499.7C223.15 499.7 223.15 499.7 223.15 499.7C223.15 468.78 223.15 451.6 223.15 448.16C223.15 448.16 223.15 448.16 223.15 448.16C238.03 448.16 246.3 448.16 247.95 448.16Z" id="b2iZ1utFt"></path><path d="M159.45 498.45C155.94 498.45 153.07 501.32 153.07 504.83C153.07 508.03 153.07 533.6 153.07 536.79C153.07 540.3 155.94 543.17 159.45 543.17C175.22 543.17 254.1 543.17 396.07 543.17L396.07 498.45L396.07 498.45C254.1 498.45 175.22 498.45 159.45 498.45Z" id="bwaBBOy5J"></path><path d="M177.88 504.83C177.88 501.32 180.75 498.45 184.25 498.45C181.77 498.45 161.93 498.45 159.45 498.45C155.94 498.45 153.07 501.32 153.07 504.83C153.07 508.03 153.07 533.6 153.07 536.79C153.07 540.3 155.94 543.17 159.45 543.17C161.93 543.17 181.77 543.17 184.25 543.17C180.75 543.17 177.88 540.3 177.88 536.79C177.88 530.4 177.88 508.03 177.88 504.83Z" id="e12poPFFS3"></path><path d="M6.38 73.71C2.87 73.71 0 76.58 0 80.08C0 116.38 0 406.74 0 443.04C0 446.55 2.87 449.42 6.38 449.42C32.36 449.42 162.25 449.42 396.07 449.42C396.07 334.84 396.07 271.19 396.07 258.46C396.07 253.64 400 249.71 404.82 249.71C415.35 249.71 467.97 249.71 562.7 249.71C562.69 147.93 562.69 91.39 562.7 80.08C562.7 76.58 559.83 73.71 556.32 73.71C446.33 73.71 61.37 73.71 6.38 73.71Z" id="bTBxg0Muq"></path><path d="M31.82 389.47C56.1 389.47 177.52 389.47 396.07 389.47C396.07 310.86 396.07 267.19 396.07 258.46C396.07 253.64 400 249.71 404.82 249.71C413.48 249.71 456.77 249.71 534.7 249.71L534.7 136.25L28 136.25L28 385.64C29.14 388.19 30.42 389.47 31.82 389.47Z" id="emN2Xt4m6"></path><path d="M52.8 136.25L28 136.25C28 285.88 28 369.02 28 385.64C28 387.75 29.72 389.47 31.82 389.47C34.3 389.47 54.14 389.47 56.63 389.47C54.52 389.47 52.8 387.75 52.8 385.64C52.8 352.39 52.8 269.26 52.8 136.25Z" id="d43251E7YW"></path><path d="M264.35 402.11C254.84 402.11 247.13 409.82 247.13 419.33C247.13 428.83 254.84 436.54 264.35 436.54C273.86 436.54 281.57 428.83 281.57 419.33C281.57 409.82 273.86 402.11 264.35 402.11Z" id="aB3Lvxaxz"></path><path d="M329.29 278.93C327.23 278.93 325.54 280.62 325.54 282.68C325.54 290.14 325.54 349.78 325.54 357.23C325.54 359.29 327.23 360.98 329.29 360.98C333.74 360.98 356 360.98 396.07 360.98L396.07 278.93C356 278.93 333.74 278.93 329.29 278.93Z" id="bpOGXFaDk"></path><path d="M350.34 282.68C350.34 280.62 352.03 278.93 354.09 278.93C351.61 278.93 331.77 278.93 329.29 278.93C327.23 278.93 325.54 280.62 325.54 282.68C325.54 290.14 325.54 349.78 325.54 357.23C325.54 359.29 327.23 360.98 329.29 360.98C331.77 360.98 351.61 360.98 354.09 360.98C352.03 360.98 350.34 359.29 350.34 357.23C350.34 342.32 350.34 290.14 350.34 282.68Z" id="a5F6wHFWo"></path><path d="M463.09 249.71C463.09 200.67 463.09 173.43 463.09 167.98C463.09 164.55 460.28 161.73 456.84 161.73C421.74 161.73 140.95 161.73 105.85 161.73C102.42 161.73 99.6 164.55 99.6 167.98C99.6 176.3 99.6 242.82 99.6 251.14C99.6 254.58 102.42 257.39 105.85 257.39C134.88 257.39 367.11 257.39 396.14 257.39C396.67 253.07 400.36 249.71 404.82 249.71C412.59 249.71 432.01 249.71 463.09 249.71Z" id="ac7aNhbw9"></path><path d="M124.41 167.98C124.41 164.54 127.22 161.73 130.66 161.73C128.17 161.73 108.33 161.73 105.85 161.73C102.42 161.73 99.6 164.54 99.6 167.98C99.6 176.3 99.6 242.82 99.6 251.14C99.6 254.58 102.42 257.39 105.85 257.39C108.33 257.39 128.17 257.39 130.66 257.39C127.22 257.39 124.41 254.58 124.41 251.14C124.41 234.51 124.41 176.3 124.41 167.98Z" id="a1SKTUpg1S"></path><path d="M31.82 106.23C29.72 106.23 28 107.95 28 110.06C28 111.89 28 121.03 28 137.5L534.7 137.5C534.7 121.03 534.7 111.89 534.7 110.06C534.7 107.95 532.98 106.23 530.87 106.23C431.06 106.23 81.73 106.23 31.82 106.23Z" id="dcPGKizqO"></path><path d="M31.82 106.23C29.72 106.23 28 107.95 28 110.06C28 111.89 28 121.03 28 137.5L52.8 137.5C52.8 121.03 52.8 111.89 52.8 110.06C52.8 107.95 54.52 106.23 56.63 106.23C51.66 106.23 34.3 106.23 31.82 106.23Z" id="i2gKSpCSEV"></path><path d="M109.17 298.72C103.99 298.72 99.79 294.53 99.79 289.35C99.79 284.17 103.99 279.97 109.17 279.97C119.69 279.97 203.86 279.97 214.38 279.97C219.56 279.97 223.76 284.17 223.76 289.35C223.76 294.53 219.56 298.72 214.38 298.72C193.34 298.72 119.69 298.72 109.17 298.72Z" id="bhO7n25ZG"></path><path d="M109.17 329.33C103.99 329.33 99.79 325.14 99.79 319.96C99.79 314.78 103.99 310.58 109.17 310.58C119.69 310.58 203.86 310.58 214.38 310.58C219.56 310.58 223.76 314.78 223.76 319.96C223.76 325.14 219.56 329.33 214.38 329.33C193.34 329.33 119.69 329.33 109.17 329.33Z" id="bfLKvGuao"></path><path d="M109.17 359.94C103.99 359.94 99.79 355.74 99.79 350.57C99.79 345.39 103.99 341.19 109.17 341.19C119.69 341.19 203.86 341.19 214.38 341.19C219.56 341.19 223.76 345.39 223.76 350.57C223.76 355.74 219.56 359.94 214.38 359.94C193.34 359.94 119.69 359.94 109.17 359.94Z" id="cihBG8R2k"></path><path d="M242.79 298.72C237.62 298.72 233.42 294.53 233.42 289.35C233.42 284.17 237.62 279.97 242.79 279.97C248.21 279.97 291.53 279.97 296.95 279.97C302.13 279.97 306.33 284.17 306.33 289.35C306.33 294.53 302.13 298.72 296.95 298.72C286.12 298.72 248.21 298.72 242.79 298.72Z" id="d3Synz9ZUR"></path><path d="M242.79 329.33C237.62 329.33 233.42 325.14 233.42 319.96C233.42 314.78 237.62 310.58 242.79 310.58C248.21 310.58 291.53 310.58 296.95 310.58C302.13 310.58 306.33 314.78 306.33 319.96C306.33 325.14 302.13 329.33 296.95 329.33C286.12 329.33 248.21 329.33 242.79 329.33Z" id="a1ehGVEqDQ"></path><path d="M242.79 359.94C237.62 359.94 233.42 355.74 233.42 350.57C233.42 345.39 237.62 341.19 242.79 341.19C248.21 341.19 291.53 341.19 296.95 341.19C302.13 341.19 306.33 345.39 306.33 350.57C306.33 355.74 302.13 359.94 296.95 359.94C286.12 359.94 248.21 359.94 242.79 359.94Z" id="a2RqJDCvfL"></path><path d="M640 258.46C640 288.68 640 530.45 640 560.67C640 566.17 635.5 570.67 630 570.67C607.48 570.67 427.34 570.67 404.82 570.67C399.32 570.67 394.82 566.17 394.82 560.67C394.82 530.45 394.82 288.68 394.82 258.46C394.82 252.96 399.32 248.46 404.82 248.46C419.83 248.46 494.89 248.46 630 248.46L630 248.46C636.67 251.46 640 254.79 640 258.46Z" id="a4Op5SIs7j"></path><path d="M415.71 525.16C415.71 500.04 415.71 299.09 415.71 273.98C415.71 270.54 418.52 267.73 421.96 267.73C441.05 267.73 593.77 267.73 612.86 267.73C616.3 267.73 619.11 270.54 619.11 273.98C619.11 299.09 619.11 500.04 619.11 525.16C619.11 528.59 616.3 531.41 612.86 531.41C600.14 531.41 536.5 531.41 421.96 531.41C417.79 529.53 415.71 527.45 415.71 525.16Z" id="c1R2rxnNUr"></path><path d="M440.51 273.98C440.51 270.54 443.32 267.73 446.76 267.73C444.28 267.73 424.44 267.73 421.96 267.73C418.52 267.73 415.71 270.54 415.71 273.98C415.71 299.09 415.71 500.04 415.71 525.16C415.71 528.59 418.52 531.41 421.96 531.41C424.44 531.41 444.28 531.41 446.76 531.41C443.32 531.41 440.51 528.59 440.51 525.16C440.51 474.92 440.51 299.09 440.51 273.98Z" id="fmzwyObjP"></path><path d="M499.46 550.16C499.46 549.91 499.46 547.97 499.46 547.73C499.46 544.29 502.27 541.48 505.71 541.48C508.05 541.48 526.77 541.48 529.11 541.48C532.55 541.48 535.36 544.29 535.36 547.73C535.36 547.97 535.36 549.91 535.36 550.16C535.36 553.59 532.55 556.41 529.11 556.41C527.55 556.41 519.75 556.41 505.71 556.41C501.54 554.53 499.46 552.45 499.46 550.16Z" id="b1ros2wD3v"></path><path d="M619.11 273.98C619.11 270.54 616.3 267.73 612.86 267.73C593.77 267.73 441.05 267.73 421.96 267.73C418.52 267.73 415.71 270.54 415.71 273.98C415.71 275.17 415.71 281.12 415.71 291.84L619.11 291.84L619.11 291.84C619.11 281.12 619.11 275.17 619.11 273.98Z" id="d5CXtugu"></path><path d="M421.96 267.73C418.52 267.73 415.71 270.54 415.71 273.98C415.71 275.17 415.71 281.12 415.71 291.84L440.51 291.84C440.51 281.12 440.51 275.17 440.51 273.98C440.51 270.54 443.32 267.73 446.76 267.73C441.8 267.73 424.44 267.73 421.96 267.73Z" id="it2btYkty"></path><path d="M474.81 406.17C469.63 406.17 465.43 401.97 465.43 396.79C465.43 391.61 469.63 387.42 474.81 387.42C483.33 387.42 551.5 387.42 560.02 387.42C565.19 387.42 569.39 391.61 569.39 396.79C569.39 401.97 565.19 406.17 560.02 406.17C542.97 406.17 483.33 406.17 474.81 406.17Z" id="e1hrNb23hU"></path><path d="M474.81 435.08C469.63 435.08 465.43 430.88 465.43 425.7C465.43 420.52 469.63 416.33 474.81 416.33C483.33 416.33 551.5 416.33 560.02 416.33C565.19 416.33 569.39 420.52 569.39 425.7C569.39 430.88 565.19 435.08 560.02 435.08C542.97 435.08 483.33 435.08 474.81 435.08Z" id="a447wXPap"></path><path d="M474.81 463.98C469.63 463.98 465.43 459.79 465.43 454.61C465.43 449.43 469.63 445.23 474.81 445.23C483.33 445.23 551.5 445.23 560.02 445.23C565.19 445.23 569.39 449.43 569.39 454.61C569.39 459.79 565.19 463.98 560.02 463.98C542.97 463.98 483.33 463.98 474.81 463.98Z" id="a1eBem5Y9G"></path><path d="M593.44 371.57C578.24 371.57 456.58 371.57 441.38 371.57C437.94 371.57 435.13 368.76 435.13 365.32C435.13 360.17 435.13 318.92 435.13 313.77C435.13 310.33 437.94 307.52 441.38 307.52C456.58 307.52 578.24 307.52 593.44 307.52C596.88 307.52 599.69 310.33 599.69 313.77C599.69 317.2 599.69 334.39 599.69 365.32C597.82 369.49 595.74 371.57 593.44 371.57Z" id="a4scGldx43"></path><path d="M459.93 313.77C459.93 310.33 462.74 307.52 466.18 307.52C463.7 307.52 443.86 307.52 441.38 307.52C437.94 307.52 435.13 310.33 435.13 313.77C435.13 318.92 435.13 360.17 435.13 365.32C435.13 368.76 437.94 371.57 441.38 371.57C443.86 371.57 463.7 371.57 466.18 371.57C462.74 371.57 459.93 368.76 459.93 365.32C459.93 355.01 459.93 318.92 459.93 313.77Z" id="bbyMg6cmz"></path><path d="M570.95 518.02C560.24 518.02 474.58 518.02 463.88 518.02C460.44 518.02 457.63 515.21 457.63 511.77C457.63 509.66 457.63 492.75 457.63 490.63C457.63 487.19 460.44 484.38 463.88 484.38C474.58 484.38 560.24 484.38 570.95 484.38C574.38 484.38 577.2 487.19 577.2 490.63C577.2 492.04 577.2 499.09 577.2 511.77L577.2 511.77C575.32 515.94 573.24 518.02 570.95 518.02Z" id="j1U3tAvLBG"></path><path d="M482.43 490.63C482.43 487.19 485.24 484.38 488.68 484.38C486.2 484.38 466.36 484.38 463.88 484.38C460.44 484.38 457.63 487.19 457.63 490.63C457.63 492.75 457.63 509.66 457.63 511.77C457.63 515.21 460.44 518.02 463.88 518.02C466.36 518.02 486.2 518.02 488.68 518.02C485.24 518.02 482.43 515.21 482.43 511.77C482.43 507.54 482.43 492.75 482.43 490.63Z" id="dkN0cu8K6"></path></defs><g><g><g><use xlink:href="#b6ySGIVc" opacity="1" fill="#84b9e0" fill-opacity="1"></use><g><use xlink:href="#b6ySGIVc" opacity="1" fill-opacity="0" stroke="#000000" stroke-width="1" stroke-opacity="0"></use></g></g><g><use xlink:href="#b2iZ1utFt" opacity="1" fill="#237ec0" fill-opacity="1"></use><g><use xlink:href="#b2iZ1utFt" opacity="1" fill-opacity="0" stroke="#000000" stroke-width="1" stroke-opacity="0"></use></g></g><g><use xlink:href="#bwaBBOy5J" opacity="1" fill="#3899e1" fill-opacity="1"></use><g><use xlink:href="#bwaBBOy5J" opacity="1" fill-opacity="0" stroke="#000000" stroke-width="1" stroke-opacity="0"></use></g></g><g><use xlink:href="#e12poPFFS3" opacity="1" fill="#22608d" fill-opacity="1"></use><g><use xlink:href="#e12poPFFS3" opacity="1" fill-opacity="0" stroke="#000000" stroke-width="1" stroke-opacity="0"></use></g></g><g><use xlink:href="#bTBxg0Muq" opacity="1" fill="#3899e1" fill-opacity="1"></use><g><use xlink:href="#bTBxg0Muq" opacity="1" fill-opacity="0" stroke="#000000" stroke-width="1" stroke-opacity="0"></use></g></g><g><use xlink:href="#emN2Xt4m6" opacity="1" fill="#ffffff" fill-opacity="1"></use><g><use xlink:href="#emN2Xt4m6" opacity="1" fill-opacity="0" stroke="#000000" stroke-width="1" stroke-opacity="0"></use></g></g><g><use xlink:href="#d43251E7YW" opacity="1" fill="#d9eafc" fill-opacity="1"></use><g><use xlink:href="#d43251E7YW" opacity="1" fill-opacity="0" stroke="#000000" stroke-width="1" stroke-opacity="0"></use></g></g><g><use xlink:href="#aB3Lvxaxz" opacity="1" fill="#84b9e0" fill-opacity="1"></use><g><use xlink:href="#aB3Lvxaxz" opacity="1" fill-opacity="0" stroke="#000000" stroke-width="1" stroke-opacity="0"></use></g></g><g><use xlink:href="#bpOGXFaDk" opacity="1" fill="#c3ddf4" fill-opacity="1"></use><g><use xlink:href="#bpOGXFaDk" opacity="1" fill-opacity="0" stroke="#000000" stroke-width="1" stroke-opacity="0"></use></g></g><g><use xlink:href="#a5F6wHFWo" opacity="1" fill="#aec1ed" fill-opacity="1"></use><g><use xlink:href="#a5F6wHFWo" opacity="1" fill-opacity="0" stroke="#000000" stroke-width="1" stroke-opacity="0"></use></g></g><g><use xlink:href="#ac7aNhbw9" opacity="1" fill="#c3ddf4" fill-opacity="1"></use><g><use xlink:href="#ac7aNhbw9" opacity="1" fill-opacity="0" stroke="#000000" stroke-width="1" stroke-opacity="0"></use></g></g><g><use xlink:href="#a1SKTUpg1S" opacity="1" fill="#aec1ed" fill-opacity="1"></use><g><use xlink:href="#a1SKTUpg1S" opacity="1" fill-opacity="0" stroke="#000000" stroke-width="1" stroke-opacity="0"></use></g></g><g><use xlink:href="#dcPGKizqO" opacity="1" fill="#f5d9a3" fill-opacity="1"></use><g><use xlink:href="#dcPGKizqO" opacity="1" fill-opacity="0" stroke="#000000" stroke-width="1" stroke-opacity="0"></use></g></g><g><use xlink:href="#i2gKSpCSEV" opacity="1" fill="#fcb45f" fill-opacity="1"></use><g><use xlink:href="#i2gKSpCSEV" opacity="1" fill-opacity="0" stroke="#000000" stroke-width="1" stroke-opacity="0"></use></g></g><g><use xlink:href="#bhO7n25ZG" opacity="1" fill="#5dc1d8" fill-opacity="1"></use><g><use xlink:href="#bhO7n25ZG" opacity="1" fill-opacity="0" stroke="#000000" stroke-width="1" stroke-opacity="0"></use></g></g><g><use xlink:href="#bfLKvGuao" opacity="1" fill="#5dc1d8" fill-opacity="1"></use><g><use xlink:href="#bfLKvGuao" opacity="1" fill-opacity="0" stroke="#000000" stroke-width="1" stroke-opacity="0"></use></g></g><g><use xlink:href="#cihBG8R2k" opacity="1" fill="#5dc1d8" fill-opacity="1"></use><g><use xlink:href="#cihBG8R2k" opacity="1" fill-opacity="0" stroke="#000000" stroke-width="1" stroke-opacity="0"></use></g></g><g><use xlink:href="#d3Synz9ZUR" opacity="1" fill="#5dc1d8" fill-opacity="1"></use><g><use xlink:href="#d3Synz9ZUR" opacity="1" fill-opacity="0" stroke="#000000" stroke-width="1" stroke-opacity="0"></use></g></g><g><use xlink:href="#a1ehGVEqDQ" opacity="1" fill="#5dc1d8" fill-opacity="1"></use><g><use xlink:href="#a1ehGVEqDQ" opacity="1" fill-opacity="0" stroke="#000000" stroke-width="1" stroke-opacity="0"></use></g></g><g><use xlink:href="#a2RqJDCvfL" opacity="1" fill="#5dc1d8" fill-opacity="1"></use><g><use xlink:href="#a2RqJDCvfL" opacity="1" fill-opacity="0" stroke="#000000" stroke-width="1" stroke-opacity="0"></use></g></g><g><use xlink:href="#a4Op5SIs7j" opacity="1" fill="#7bb9e7" fill-opacity="1"></use><g><use xlink:href="#a4Op5SIs7j" opacity="1" fill-opacity="0" stroke="#000000" stroke-width="1" stroke-opacity="0"></use></g></g><g><use xlink:href="#c1R2rxnNUr" opacity="1" fill="#ffffff" fill-opacity="1"></use><g><use xlink:href="#c1R2rxnNUr" opacity="1" fill-opacity="0" stroke="#000000" stroke-width="1" stroke-opacity="0"></use></g></g><g><use xlink:href="#fmzwyObjP" opacity="1" fill="#d9eafc" fill-opacity="1"></use><g><use xlink:href="#fmzwyObjP" opacity="1" fill-opacity="0" stroke="#000000" stroke-width="1" stroke-opacity="0"></use></g></g><g><use xlink:href="#b1ros2wD3v" opacity="1" fill="#445ea0" fill-opacity="1"></use><g><use xlink:href="#b1ros2wD3v" opacity="1" fill-opacity="0" stroke="#000000" stroke-width="1" stroke-opacity="0"></use></g></g><g><use xlink:href="#d5CXtugu" opacity="1" fill="#f5d9a3" fill-opacity="1"></use><g><use xlink:href="#d5CXtugu" opacity="1" fill-opacity="0" stroke="#000000" stroke-width="1" stroke-opacity="0"></use></g></g><g><use xlink:href="#it2btYkty" opacity="1" fill="#fcb45f" fill-opacity="1"></use><g><use xlink:href="#it2btYkty" opacity="1" fill-opacity="0" stroke="#000000" stroke-width="1" stroke-opacity="0"></use></g></g><g><use xlink:href="#e1hrNb23hU" opacity="1" fill="#5dc1d8" fill-opacity="1"></use><g><use xlink:href="#e1hrNb23hU" opacity="1" fill-opacity="0" stroke="#000000" stroke-width="1" stroke-opacity="0"></use></g></g><g><use xlink:href="#a447wXPap" opacity="1" fill="#5dc1d8" fill-opacity="1"></use><g><use xlink:href="#a447wXPap" opacity="1" fill-opacity="0" stroke="#000000" stroke-width="1" stroke-opacity="0"></use></g></g><g><use xlink:href="#a1eBem5Y9G" opacity="1" fill="#5dc1d8" fill-opacity="1"></use><g><use xlink:href="#a1eBem5Y9G" opacity="1" fill-opacity="0" stroke="#000000" stroke-width="1" stroke-opacity="0"></use></g></g><g><use xlink:href="#a4scGldx43" opacity="1" fill="#c3ddf4" fill-opacity="1"></use><g><use xlink:href="#a4scGldx43" opacity="1" fill-opacity="0" stroke="#000000" stroke-width="1" stroke-opacity="0"></use></g></g><g><use xlink:href="#bbyMg6cmz" opacity="1" fill="#aec1ed" fill-opacity="1"></use><g><use xlink:href="#bbyMg6cmz" opacity="1" fill-opacity="0" stroke="#000000" stroke-width="1" stroke-opacity="0"></use></g></g><g><use xlink:href="#j1U3tAvLBG" opacity="1" fill="#c3ddf4" fill-opacity="1"></use><g><use xlink:href="#j1U3tAvLBG" opacity="1" fill-opacity="0" stroke="#000000" stroke-width="1" stroke-opacity="0"></use></g></g><g><use xlink:href="#dkN0cu8K6" opacity="1" fill="#aec1ed" fill-opacity="1"></use><g><use xlink:href="#dkN0cu8K6" opacity="1" fill-opacity="0" stroke="#000000" stroke-width="1" stroke-opacity="0"></use></g></g></g></g></svg>