<?xml version="1.0" encoding="UTF-8" standalone="no"?>
<!DOCTYPE svg PUBLIC "-//W3C//DTD SVG 1.1//EN" "http://www.w3.org/Graphics/SVG/1.1/DTD/svg11.dtd">
<svg version="1.1" xmlns="http://www.w3.org/2000/svg" xmlns:xlink="http://www.w3.org/1999/xlink" preserveAspectRatio="xMidYMid meet" viewBox="0 0 640 640" width="640" height="640"><defs><path d="M292.43 390C206.67 304.24 159.03 256.6 149.5 247.07C130 227.57 98.28 227.58 78.79 247.07C74.94 250.92 74.94 257.36 78.79 261.21C97.37 279.8 246.06 428.49 264.65 447.07C266.52 448.95 269.06 450 271.72 450C305.54 450 576.17 450 610 450C615.52 450 620 445.52 620 440C620 412.43 597.57 390 570 390C532.99 390 440.47 390 292.43 390Z" id="a8w3AhtfdR"></path><path d="M274.65 427.07C256.06 408.49 107.37 259.8 88.79 241.21C88.4 240.83 88.06 240.41 87.75 239.97C84.57 241.95 81.55 244.31 78.79 247.07C74.94 250.92 74.94 257.36 78.79 261.21C97.37 279.8 246.06 428.49 264.65 447.07C266.52 448.95 269.06 450 271.72 450C305.54 450 576.17 450 610 450C615.52 450 620 445.52 620 440C620 436.58 619.65 433.23 618.99 430C596.51 430 484.08 430 281.72 430L281.72 430C278.25 429.3 275.9 428.32 274.65 427.07Z" id="i3T4B2R0d"></path><path d="M39.03 240.03L39.41 240.06L39.79 240.11L40.17 240.18L40.55 240.26L40.92 240.35L41.29 240.46L41.66 240.58L42.02 240.72L42.38 240.87L42.73 241.04L43.08 241.22L43.42 241.42L43.76 241.63L44.09 241.85L44.41 242.09L44.72 242.35L45.03 242.62L45.33 242.9L264.12 460L630 460L630.41 460.01L630.82 460.03L631.22 460.07L631.62 460.13L632.02 460.2L632.4 460.29L632.78 460.39L633.16 460.51L633.53 460.64L633.89 460.79L634.25 460.94L634.6 461.12L634.94 461.3L635.27 461.5L635.59 461.71L635.91 461.93L636.21 462.16L636.51 462.41L636.79 462.66L637.07 462.93L637.34 463.21L637.59 463.49L637.84 463.79L638.07 464.09L638.29 464.41L638.5 464.73L638.7 465.06L638.88 465.4L639.06 465.75L639.21 466.11L639.36 466.47L639.49 466.84L639.61 467.22L639.71 467.6L639.8 467.98L639.87 468.38L639.93 468.78L639.97 469.18L639.99 469.59L640 470L640 510L639.99 510.41L639.97 510.82L639.93 511.22L639.87 511.62L639.8 512.02L639.71 512.4L639.61 512.78L639.49 513.16L639.36 513.53L639.21 513.89L639.06 514.25L638.88 514.6L638.7 514.94L638.5 515.27L638.29 515.59L638.07 515.91L637.84 516.21L637.59 516.51L637.34 516.79L637.07 517.07L636.79 517.34L636.51 517.59L636.21 517.84L635.91 518.07L635.59 518.29L635.27 518.5L634.94 518.7L634.6 518.88L634.25 519.06L633.89 519.21L633.53 519.36L633.16 519.49L632.78 519.61L632.4 519.71L632.02 519.8L631.62 519.87L631.22 519.93L630.82 519.97L630.41 519.99L630 520L590 520L590 630L589.99 630.41L589.97 630.82L589.93 631.22L589.87 631.62L589.8 632.02L589.71 632.4L589.61 632.78L589.49 633.16L589.36 633.53L589.21 633.89L589.06 634.25L588.88 634.6L588.7 634.94L588.5 635.27L588.29 635.59L588.07 635.91L587.84 636.21L587.59 636.51L587.34 636.79L587.07 637.07L586.79 637.34L586.51 637.59L586.21 637.84L585.91 638.07L585.59 638.29L585.27 638.5L584.94 638.7L584.6 638.88L584.25 639.06L583.89 639.21L583.53 639.36L583.16 639.49L582.78 639.61L582.4 639.71L582.02 639.8L581.62 639.87L581.22 639.93L580.82 639.97L580.41 639.99L580 640L540 640L539.59 639.99L539.18 639.97L538.78 639.93L538.38 639.87L537.98 639.8L537.6 639.71L537.22 639.61L536.84 639.49L536.47 639.36L536.11 639.21L535.75 639.06L535.4 638.88L535.06 638.7L534.73 638.5L534.41 638.29L534.09 638.07L533.79 637.84L533.49 637.59L533.21 637.34L532.93 637.07L532.66 636.79L532.41 636.51L532.16 636.21L531.93 635.91L531.71 635.59L531.5 635.27L531.3 634.94L531.12 634.6L530.94 634.25L530.79 633.89L530.64 633.53L530.51 633.16L530.39 632.78L530.29 632.4L530.2 632.02L530.13 631.62L530.07 631.22L530.03 630.82L530.01 630.41L530 630L530 600L290 600L290 630L289.99 630.41L289.97 630.82L289.93 631.22L289.87 631.62L289.8 632.02L289.71 632.4L289.61 632.78L289.49 633.16L289.36 633.53L289.21 633.89L289.06 634.25L288.88 634.6L288.7 634.94L288.5 635.27L288.29 635.59L288.07 635.91L287.84 636.21L287.59 636.51L287.34 636.79L287.07 637.07L286.79 637.34L286.51 637.59L286.21 637.84L285.91 638.07L285.59 638.29L285.27 638.5L284.94 638.7L284.6 638.88L284.25 639.06L283.89 639.21L283.53 639.36L283.16 639.49L282.78 639.61L282.4 639.71L282.02 639.8L281.62 639.87L281.22 639.93L280.82 639.97L280.41 639.99L280 640L240 640L239.59 639.99L239.18 639.97L238.78 639.93L238.38 639.87L237.98 639.8L237.6 639.71L237.22 639.61L236.84 639.49L236.47 639.36L236.11 639.21L235.75 639.06L235.4 638.88L235.06 638.7L234.73 638.5L234.41 638.29L234.09 638.07L233.79 637.84L233.49 637.59L233.21 637.34L232.93 637.07L232.66 636.79L232.41 636.51L232.16 636.21L231.93 635.91L231.71 635.59L231.5 635.27L231.3 634.94L231.12 634.6L230.94 634.25L230.79 633.89L230.64 633.53L230.51 633.16L230.39 632.78L230.29 632.4L230.2 632.02L230.13 631.62L230.07 631.22L230.03 630.82L230.01 630.41L230 630L230 514.12L2.9 285.33L2.62 285.03L2.35 284.72L2.1 284.41L1.86 284.09L1.63 283.76L1.42 283.42L1.22 283.08L1.04 282.73L0.87 282.38L0.72 282.02L0.58 281.66L0.46 281.29L0.35 280.92L0.26 280.55L0.18 280.17L0.11 279.79L0.06 279.41L0.03 279.03L0.01 278.65L0 278.27L0.01 277.88L0.03 277.5L0.07 277.12L0.12 276.74L0.19 276.36L0.27 275.98L0.36 275.61L0.47 275.24L0.6 274.87L0.74 274.51L0.89 274.15L1.06 273.8L1.24 273.45L1.44 273.11L1.65 272.78L1.88 272.45L2.12 272.13L2.37 271.81L2.64 271.51L2.93 271.21L31.21 242.93L31.51 242.64L31.81 242.37L32.13 242.12L32.45 241.88L32.78 241.65L33.11 241.44L33.45 241.24L33.8 241.06L34.15 240.89L34.51 240.74L34.87 240.6L35.24 240.47L35.61 240.36L35.98 240.27L36.36 240.19L36.74 240.12L37.12 240.07L37.5 240.03L37.88 240.01L38.26 240L38.65 240.01L39.03 240.03ZM290 540L530 540L530 520L290 520L290 540Z" id="c1UEhC4ta7"></path><path d="M2.93 271.21C-0.97 275.11 -0.98 281.42 2.9 285.33C18.04 300.58 93.74 376.85 230 514.12C230 583.65 230 622.27 230 630C230 635.52 234.48 640 240 640C241.33 640 248 640 260 640L260 510L16.17 257.97C8.23 265.91 3.81 270.33 2.93 271.21Z" id="c34WU2YJeh"></path><path d="M370 30C364.48 30 360 34.48 360 40C360 71 360 319 360 350C360 355.52 364.48 360 370 360C394 360 586 360 610 360C615.52 360 620 355.52 620 350C620 319 620 71 620 40C620 34.48 615.52 30 610 30C562 30 394 30 370 30Z" id="a1PuD3Ps5W"></path><path d="M390 40C390 34.48 394.48 30 400 30C397 30 373 30 370 30C364.48 30 360 34.48 360 40C360 71 360 319 360 350C360 355.52 364.48 360 370 360C373 360 397 360 400 360C394.48 360 390 355.52 390 350C390 288 390 71 390 40Z" id="f60lqmvFN3"></path><path d="M400 30C394.48 30 390 34.48 390 40C390 67 390 283 390 310C390 315.52 394.48 320 400 320C418 320 562 320 580 320C585.52 320 590 315.52 590 310C590 283 590 67 590 40C590 34.48 585.52 30 580 30C544 30 418 30 400 30Z" id="a1Z7TSbEZq"></path><path d="M420 40C420 34.48 424.48 30 430 30C427 30 403 30 400 30C394.48 30 390 34.48 390 40C390 67 390 283 390 310C390 315.52 394.48 320 400 320C403 320 427 320 430 320C424.48 320 420 315.52 420 310C420 256 420 67 420 40Z" id="a5rt1jCvD3"></path><path d="M528.74 30C524.28 12.77 508.6 0 490 0C471.4 0 455.72 12.77 451.27 30C450.14 30 441.13 30 440 30C434.48 30 430 34.48 430 40C430 44 430 76 430 80C430 85.52 434.48 90 440 90C450 90 530 90 540 90C545.52 90 550 85.52 550 80C550 76 550 44 550 40C550 34.48 545.52 30 540 30C537.75 30 529.86 30 528.74 30Z" id="b5Cex5A76o"></path><path d="M440 70C434.48 70 430 65.52 430 60C430 62 430 78 430 80C430 85.52 434.48 90 440 90C450 90 530 90 540 90C545.52 90 550 85.52 550 80C550 78 550 62 550 60C550 65.52 545.52 70 540 70C520 70 450 70 440 70Z" id="b4Bxj61vk5"></path><path d="M450 290C444.48 290 440 285.52 440 280C440 274.48 444.48 270 450 270C458 270 522 270 530 270C535.52 270 540 274.48 540 280C540 285.52 535.52 290 530 290C514 290 458 290 450 290Z" id="atBDyGk0U"></path><path d="M450 250C444.48 250 440 245.52 440 240C440 234.48 444.48 230 450 230C458 230 522 230 530 230C535.52 230 540 234.48 540 240C540 245.52 535.52 250 530 250C514 250 458 250 450 250Z" id="amc9ifUp4"></path><path d="M450 210C444.48 210 440 205.52 440 200C440 194.48 444.48 190 450 190C458 190 522 190 530 190C535.52 190 540 194.48 540 200C540 205.52 535.52 210 530 210C514 210 458 210 450 210Z" id="j37vrrk6NL"></path><path d="M490 50C484.48 50 480 45.52 480 40C480 34.48 484.48 30 490 30C490.13 30 491.13 30 491.25 30C496.77 30 501.25 34.48 501.25 40C501.25 45.52 496.77 50 491.25 50C491 50 490.13 50 490 50Z" id="h2FBeThPK6"></path><path d="M450 100C444.48 100 440 104.48 440 110C440 115 440 155 440 160C440 165.52 444.48 170 450 170C458 170 522 170 530 170C535.52 170 540 165.52 540 160C540 155 540 115 540 110C540 104.48 535.52 100 530 100C514 100 458 100 450 100Z" id="a1CYe966Xa"></path><path d="M300 70C300 67 300 43 300 40C300 34.48 304.48 30 310 30C315.52 30 320 34.48 320 40C320 43 320 67 320 70C320 75.52 315.52 80 310 80C304.48 80 300 75.52 300 70Z" id="cLDA6cG6e"></path><path d="M260 320C254.48 320 250 315.52 250 310C250 303 250 247 250 240C250 234.48 254.48 230 260 230C265.52 230 270 234.48 270 240C270 244 270 264 270 300C282 300 288.67 300 290 300C295.52 300 300 304.48 300 310C300 315.52 295.52 320 290 320C284 320 263 320 260 320Z" id="a3zwiCne9D"></path><path d="M318.94 65.53C317.25 62.14 313.79 60 310 60C306.21 60 302.75 62.14 301.06 65.53C299.06 69.53 283.06 101.53 281.06 105.53C279.51 108.63 279.67 112.31 281.49 115.26C283.32 118.21 286.54 120 290 120C294 120 326 120 330 120C333.47 120 336.69 118.2 338.51 115.26C340.33 112.31 340.5 108.63 338.94 105.53C334.94 97.53 320.94 69.53 318.94 65.53Z" id="a4nErcgLH"></path><path d="M290 100C284.48 100 280 104.48 280 110C280 133 280 317 280 340C280 351.03 288.97 360 300 360C302 360 318 360 320 360C331.03 360 340 351.03 340 340C340 317 340 133 340 110C340 104.48 335.52 100 330 100C322 100 294 100 290 100Z" id="bqBZbrRA6"></path><path d="M300 110C300 104.48 304.48 100 310 100C308 100 292 100 290 100C284.48 100 280 104.48 280 110C280 133 280 317 280 340C280 351.03 288.97 360 300 360C302 360 318 360 320 360C308.97 360 300 351.03 300 340C300 294 300 133 300 110Z" id="afvZA5csr"></path><path d="M290 100C284.48 100 280 104.48 280 110C280 118.67 280 162 280 240L340 240C340 162 340 118.67 340 110C340 104.48 335.52 100 330 100C322 100 294 100 290 100Z" id="dkE89mrnE"></path><path d="M290 100C284.48 100 280 104.48 280 110C280 118.67 280 162 280 240L300 240C300 162 300 118.67 300 110C300 104.48 304.48 100 310 100C306 100 292 100 290 100Z" id="cBp6DMNKj"></path></defs><g><g><g><use xlink:href="#a8w3AhtfdR" opacity="1" fill="#3899e1" fill-opacity="1"></use><g><use xlink:href="#a8w3AhtfdR" opacity="1" fill-opacity="0" stroke="#000000" stroke-width="1" stroke-opacity="0"></use></g></g><g><use xlink:href="#i3T4B2R0d" opacity="1" fill="#0e6db4" fill-opacity="1"></use><g><use xlink:href="#i3T4B2R0d" opacity="1" fill-opacity="0" stroke="#000000" stroke-width="1" stroke-opacity="0"></use></g></g><g><use xlink:href="#c1UEhC4ta7" opacity="1" fill="#838076" fill-opacity="1"></use><g><use xlink:href="#c1UEhC4ta7" opacity="1" fill-opacity="0" stroke="#000000" stroke-width="1" stroke-opacity="0"></use></g></g><g><use xlink:href="#c34WU2YJeh" opacity="1" fill="#757267" fill-opacity="1"></use><g><use xlink:href="#c34WU2YJeh" opacity="1" fill-opacity="0" stroke="#000000" stroke-width="1" stroke-opacity="0"></use></g></g><g><use xlink:href="#a1PuD3Ps5W" opacity="1" fill="#fead5a" fill-opacity="1"></use><g><use xlink:href="#a1PuD3Ps5W" opacity="1" fill-opacity="0" stroke="#000000" stroke-width="1" stroke-opacity="0"></use></g></g><g><use xlink:href="#f60lqmvFN3" opacity="1" fill="#ff8e44" fill-opacity="1"></use><g><use xlink:href="#f60lqmvFN3" opacity="1" fill-opacity="0" stroke="#000000" stroke-width="1" stroke-opacity="0"></use></g></g><g><use xlink:href="#a1Z7TSbEZq" opacity="1" fill="#f1f1f0" fill-opacity="1"></use><g><use xlink:href="#a1Z7TSbEZq" opacity="1" fill-opacity="0" stroke="#000000" stroke-width="1" stroke-opacity="0"></use></g></g><g><use xlink:href="#a5rt1jCvD3" opacity="1" fill="#e3e3e1" fill-opacity="1"></use><g><use xlink:href="#a5rt1jCvD3" opacity="1" fill-opacity="0" stroke="#000000" stroke-width="1" stroke-opacity="0"></use></g></g><g><use xlink:href="#b5Cex5A76o" opacity="1" fill="#838076" fill-opacity="1"></use><g><use xlink:href="#b5Cex5A76o" opacity="1" fill-opacity="0" stroke="#000000" stroke-width="1" stroke-opacity="0"></use></g></g><g><use xlink:href="#b4Bxj61vk5" opacity="1" fill="#757267" fill-opacity="1"></use><g><use xlink:href="#b4Bxj61vk5" opacity="1" fill-opacity="0" stroke="#000000" stroke-width="1" stroke-opacity="0"></use></g></g><g><use xlink:href="#atBDyGk0U" opacity="1" fill="#e3e3e1" fill-opacity="1"></use><g><use xlink:href="#atBDyGk0U" opacity="1" fill-opacity="0" stroke="#000000" stroke-width="1" stroke-opacity="0"></use></g></g><g><use xlink:href="#amc9ifUp4" opacity="1" fill="#e3e3e1" fill-opacity="1"></use><g><use xlink:href="#amc9ifUp4" opacity="1" fill-opacity="0" stroke="#000000" stroke-width="1" stroke-opacity="0"></use></g></g><g><use xlink:href="#j37vrrk6NL" opacity="1" fill="#e3e3e1" fill-opacity="1"></use><g><use xlink:href="#j37vrrk6NL" opacity="1" fill-opacity="0" stroke="#000000" stroke-width="1" stroke-opacity="0"></use></g></g><g><use xlink:href="#h2FBeThPK6" opacity="1" fill="#757267" fill-opacity="1"></use><g><use xlink:href="#h2FBeThPK6" opacity="1" fill-opacity="0" stroke="#000000" stroke-width="1" stroke-opacity="0"></use></g></g><g><use xlink:href="#a1CYe966Xa" opacity="1" fill="#c8c7c2" fill-opacity="1"></use><g><use xlink:href="#a1CYe966Xa" opacity="1" fill-opacity="0" stroke="#000000" stroke-width="1" stroke-opacity="0"></use></g></g><g><use xlink:href="#cLDA6cG6e" opacity="1" fill="#838076" fill-opacity="1"></use><g><use xlink:href="#cLDA6cG6e" opacity="1" fill-opacity="0" stroke="#000000" stroke-width="1" stroke-opacity="0"></use></g></g><g><use xlink:href="#a3zwiCne9D" opacity="1" fill="#918e86" fill-opacity="1"></use><g><use xlink:href="#a3zwiCne9D" opacity="1" fill-opacity="0" stroke="#000000" stroke-width="1" stroke-opacity="0"></use></g></g><g><use xlink:href="#a4nErcgLH" opacity="1" fill="#fead5a" fill-opacity="1"></use><g><use xlink:href="#a4nErcgLH" opacity="1" fill-opacity="0" stroke="#000000" stroke-width="1" stroke-opacity="0"></use></g></g><g><use xlink:href="#bqBZbrRA6" opacity="1" fill="#fad55a" fill-opacity="1"></use><g><use xlink:href="#bqBZbrRA6" opacity="1" fill-opacity="0" stroke="#000000" stroke-width="1" stroke-opacity="0"></use></g></g><g><use xlink:href="#afvZA5csr" opacity="1" fill="#fead5a" fill-opacity="1"></use><g><use xlink:href="#afvZA5csr" opacity="1" fill-opacity="0" stroke="#000000" stroke-width="1" stroke-opacity="0"></use></g></g><g><use xlink:href="#dkE89mrnE" opacity="1" fill="#3899e1" fill-opacity="1"></use><g><use xlink:href="#dkE89mrnE" opacity="1" fill-opacity="0" stroke="#000000" stroke-width="1" stroke-opacity="0"></use></g></g><g><use xlink:href="#cBp6DMNKj" opacity="1" fill="#0e6db4" fill-opacity="1"></use><g><use xlink:href="#cBp6DMNKj" opacity="1" fill-opacity="0" stroke="#000000" stroke-width="1" stroke-opacity="0"></use></g></g></g></g></svg>