<?xml version="1.0" encoding="UTF-8" standalone="no"?>
<!DOCTYPE svg PUBLIC "-//W3C//DTD SVG 1.1//EN" "http://www.w3.org/Graphics/SVG/1.1/DTD/svg11.dtd">
<svg version="1.1" xmlns="http://www.w3.org/2000/svg" xmlns:xlink="http://www.w3.org/1999/xlink" preserveAspectRatio="xMidYMid meet" viewBox="0 0 640 640" width="640" height="640"><defs><path d="M320 640C495.87 640 640 495.87 640 320C640 144.13 495.87 0 320 0C144.13 0 0 144.13 0 320C0 495.87 144.13 640 320 640" id="a2DzrtAhiB"></path><path d="M320 640C320 256 320 42.67 320 0C495.87 0 640 144.13 640 320C640 495.87 495.87 640 320 640" id="c13MEhvhMk"></path><path d="M339.94 77.06L349.75 78.06L359.45 79.45L369.02 81.22L378.46 83.36L387.75 85.86L396.9 88.71L405.9 91.91L414.72 95.46L423.38 99.33L431.86 103.53L440.14 108.04L448.23 112.86L456.12 117.98L463.8 123.39L471.25 129.08L478.48 135.05L485.47 141.28L492.22 147.78L498.72 154.53L504.95 161.52L510.92 168.75L516.61 176.2L522.02 183.88L527.14 191.77L531.96 199.86L536.47 208.14L540.67 216.62L544.54 225.28L548.09 234.1L551.29 243.1L554.14 252.25L556.64 261.54L558.78 270.98L560.55 280.55L561.94 290.25L562.94 300.06L563.55 309.98L563.75 320L563.55 330.02L562.94 339.94L561.94 349.75L560.55 359.45L558.78 369.02L556.64 378.46L554.14 387.75L551.29 396.9L548.09 405.89L544.54 414.72L540.67 423.38L536.47 431.85L531.96 440.14L527.14 448.23L522.02 456.12L516.61 463.8L510.92 471.25L504.95 478.48L498.72 485.47L492.22 492.22L485.47 498.71L478.48 504.95L471.25 510.92L463.8 516.61L456.12 522.02L448.23 527.14L440.14 531.96L431.86 536.47L423.38 540.67L414.72 544.54L405.9 548.08L396.9 551.29L387.75 554.14L378.46 556.64L369.02 558.78L359.45 560.55L349.75 561.94L339.94 562.94L330.02 563.55L320 563.75L309.98 563.55L300.06 562.94L290.25 561.94L280.55 560.55L270.98 558.78L261.54 556.64L252.25 554.14L243.1 551.29L234.1 548.08L225.28 544.54L216.62 540.67L208.14 536.47L199.86 531.96L191.77 527.14L183.88 522.02L176.2 516.61L168.75 510.92L161.52 504.95L154.53 498.71L147.78 492.22L141.28 485.47L135.05 478.48L129.08 471.25L123.39 463.8L117.98 456.12L112.86 448.23L108.04 440.14L103.53 431.85L99.33 423.38L95.46 414.72L91.91 405.89L88.71 396.9L85.86 387.75L83.36 378.46L81.22 369.02L79.45 359.45L78.06 349.75L77.06 339.94L76.45 330.02L76.25 320L76.45 309.98L77.06 300.06L78.06 290.25L79.45 280.55L81.22 270.98L83.36 261.54L85.86 252.25L88.71 243.1L91.91 234.1L95.46 225.28L99.33 216.62L103.53 208.14L108.04 199.86L112.86 191.77L117.98 183.88L123.39 176.2L129.08 168.75L135.05 161.52L141.28 154.53L147.78 147.78L154.53 141.28L161.52 135.05L168.75 129.08L176.2 123.39L183.88 117.98L191.77 112.86L199.86 108.04L208.14 103.53L216.62 99.33L225.28 95.46L234.1 91.91L243.1 88.71L252.25 85.86L261.54 83.36L270.98 81.22L280.55 79.45L290.25 78.06L300.06 77.06L309.98 76.45L320 76.25L330.02 76.45L339.94 77.06Z" id="a1ian587XO"></path><path d="M339.94 77.06L349.75 78.06L359.45 79.45L369.02 81.22L378.46 83.36L387.75 85.86L396.9 88.71L405.9 91.91L414.72 95.46L423.38 99.33L431.86 103.53L440.14 108.04L448.23 112.86L456.12 117.98L463.8 123.39L471.25 129.08L478.48 135.05L485.47 141.28L492.22 147.78L498.72 154.53L504.95 161.52L510.92 168.75L516.61 176.2L522.02 183.88L527.14 191.77L531.96 199.86L536.47 208.14L540.67 216.62L544.54 225.28L548.09 234.1L551.29 243.1L554.14 252.25L556.64 261.54L558.78 270.98L560.55 280.55L561.94 290.25L562.94 300.06L563.55 309.98L563.75 320L563.55 330.02L562.94 339.94L561.94 349.75L560.55 359.45L558.78 369.02L556.64 378.46L554.14 387.75L551.29 396.9L548.09 405.89L544.54 414.72L540.67 423.38L536.47 431.85L531.96 440.14L527.14 448.23L522.02 456.12L516.61 463.8L510.92 471.25L504.95 478.48L498.72 485.47L492.22 492.22L485.47 498.71L478.48 504.95L471.25 510.92L463.8 516.61L456.12 522.02L448.23 527.14L440.14 531.96L431.86 536.47L423.38 540.67L414.72 544.54L405.9 548.08L396.9 551.29L387.75 554.14L378.46 556.64L369.02 558.78L359.45 560.55L349.75 561.94L339.94 562.94L330.02 563.55L320 563.75L320 76.25L330.02 76.45L339.94 77.06Z" id="d4ejWbabWQ"></path><path d="M382.38 170.25L385.39 170.56L388.37 170.99L391.32 171.53L394.22 172.19L397.08 172.96L399.89 173.84L402.66 174.83L405.37 175.92L408.03 177.11L410.64 178.4L413.19 179.79L415.68 181.28L418.11 182.85L420.47 184.52L422.76 186.27L424.99 188.11L427.14 190.03L429.22 192.03L431.22 194.11L433.14 196.26L434.98 198.49L436.73 200.78L438.4 203.14L439.97 205.57L441.46 208.06L442.85 210.61L444.14 213.22L445.33 215.88L446.42 218.59L447.41 221.36L448.29 224.17L449.06 227.03L449.72 229.93L450.26 232.88L450.69 235.86L451 238.87L451.19 241.92L451.25 245L451.19 248.08L451 251.13L450.69 254.14L450.26 257.12L449.72 260.07L449.06 262.97L448.29 265.83L447.41 268.64L446.42 271.41L445.33 274.12L444.14 276.78L442.85 279.39L441.46 281.94L439.97 284.43L438.4 286.86L436.73 289.22L434.98 291.51L433.14 293.74L431.22 295.89L429.22 297.97L427.14 299.97L424.99 301.89L422.76 303.73L420.47 305.48L418.11 307.15L415.68 308.72L413.19 310.21L410.64 311.6L408.03 312.89L405.37 314.08L402.66 315.17L399.89 316.16L397.08 317.04L394.22 317.81L391.32 318.47L388.37 319.01L385.39 319.44L382.38 319.75L379.33 319.94L376.25 320L301.25 320L301.25 357.5L395 357.5L395 395L301.25 395L301.25 470L263.75 470L263.75 395L226.25 395L226.25 357.5L263.75 357.5L263.75 320L226.25 320L226.25 282.5L263.75 282.5L263.75 170L376.25 170L379.33 170.06L382.38 170.25ZM301.25 282.5L376.25 282.5L377.79 282.47L379.31 282.38L380.82 282.22L382.31 282.01L383.78 281.73L385.23 281.41L386.66 281.02L388.07 280.58L389.45 280.09L390.81 279.54L392.14 278.94L393.45 278.3L394.72 277.6L395.97 276.86L397.18 276.07L398.36 275.24L399.51 274.36L400.62 273.44L401.7 272.48L402.73 271.48L403.73 270.45L404.69 269.37L405.61 268.26L406.49 267.11L407.32 265.93L408.11 264.72L408.85 263.47L409.55 262.2L410.19 260.89L410.79 259.56L411.34 258.2L411.83 256.82L412.27 255.41L412.66 253.98L412.98 252.53L413.26 251.06L413.47 249.57L413.63 248.06L413.72 246.54L413.75 245L413.72 243.46L413.63 241.94L413.47 240.43L413.26 238.94L412.98 237.47L412.66 236.02L412.27 234.59L411.83 233.18L411.34 231.8L410.79 230.44L410.19 229.11L409.55 227.8L408.85 226.53L408.11 225.28L407.32 224.07L406.49 222.89L405.61 221.74L404.69 220.63L403.73 219.55L402.73 218.52L401.7 217.52L400.62 216.56L399.51 215.64L398.36 214.76L397.18 213.93L395.97 213.14L394.72 212.4L393.45 211.7L392.14 211.06L390.81 210.46L389.45 209.91L388.07 209.42L386.66 208.98L385.23 208.59L383.78 208.27L382.31 207.99L380.82 207.78L379.31 207.62L377.79 207.53L376.25 207.5L301.25 207.5L301.25 282.5Z" id="c2H9sEVbS0"></path><path d="M382.38 170.25L385.39 170.56L388.37 170.99L391.32 171.53L394.22 172.19L397.08 172.96L399.89 173.84L402.66 174.83L405.37 175.92L408.03 177.11L410.64 178.4L413.19 179.79L415.68 181.28L418.11 182.85L420.47 184.52L422.76 186.27L424.99 188.11L427.14 190.03L429.22 192.03L431.22 194.11L433.14 196.26L434.98 198.49L436.73 200.78L438.4 203.14L439.97 205.57L441.46 208.06L442.85 210.61L444.14 213.22L445.33 215.88L446.42 218.59L447.41 221.36L448.29 224.17L449.06 227.03L449.72 229.93L450.26 232.88L450.69 235.86L451 238.87L451.19 241.92L451.25 245L451.19 248.08L451 251.13L450.69 254.14L450.26 257.12L449.72 260.07L449.06 262.97L448.29 265.83L447.41 268.64L446.42 271.41L445.33 274.12L444.14 276.78L442.85 279.39L441.46 281.94L439.97 284.43L438.4 286.86L436.73 289.22L434.98 291.51L433.14 293.74L431.22 295.89L429.22 297.97L427.14 299.97L424.99 301.89L422.76 303.73L420.47 305.48L418.11 307.15L415.68 308.72L413.19 310.21L410.64 311.6L408.03 312.89L405.37 314.08L402.66 315.17L399.89 316.16L397.08 317.04L394.22 317.81L391.32 318.47L388.37 319.01L385.39 319.44L382.38 319.75L379.33 319.94L376.25 320L320 320L320 282.5L376.25 282.5L377.79 282.47L379.31 282.38L380.82 282.22L382.31 282.01L383.78 281.73L385.23 281.41L386.66 281.02L388.07 280.58L389.45 280.09L390.81 279.54L392.14 278.94L393.45 278.3L394.72 277.6L395.97 276.86L397.18 276.07L398.36 275.24L399.51 274.36L400.62 273.44L401.7 272.48L402.73 271.48L403.73 270.45L404.69 269.37L405.61 268.26L406.49 267.11L407.32 265.93L408.11 264.72L408.85 263.47L409.55 262.2L410.19 260.89L410.79 259.56L411.34 258.2L411.83 256.82L412.27 255.41L412.66 253.98L412.98 252.53L413.26 251.06L413.47 249.57L413.63 248.06L413.72 246.54L413.75 245L413.72 243.46L413.63 241.94L413.47 240.43L413.26 238.94L412.98 237.47L412.66 236.02L412.27 234.59L411.83 233.18L411.34 231.8L410.79 230.44L410.19 229.11L409.55 227.8L408.85 226.53L408.11 225.28L407.32 224.07L406.49 222.89L405.61 221.74L404.69 220.63L403.73 219.55L402.73 218.52L401.7 217.52L400.62 216.56L399.51 215.64L398.36 214.76L397.18 213.93L395.97 213.14L394.72 212.4L393.45 211.7L392.14 211.06L390.81 210.46L389.45 209.91L388.07 209.42L386.66 208.98L385.23 208.59L383.78 208.27L382.31 207.99L380.82 207.78L379.31 207.62L377.79 207.53L376.25 207.5L320 207.5L320 170L376.25 170L379.33 170.06L382.38 170.25Z" id="aubTFCYuE"></path><path d="M320 395L320 357.5L395 357.5L395 395L320 395Z" id="aaSSEuJM"></path></defs><g><g><g><use xlink:href="#a2DzrtAhiB" opacity="1" fill="#3899e1" fill-opacity="1"></use><g><use xlink:href="#a2DzrtAhiB" opacity="1" fill-opacity="0" stroke="#000000" stroke-width="1" stroke-opacity="0"></use></g></g><g><use xlink:href="#c13MEhvhMk" opacity="1" fill="#0483e1" fill-opacity="1"></use><g><use xlink:href="#c13MEhvhMk" opacity="1" fill-opacity="0" stroke="#000000" stroke-width="1" stroke-opacity="0"></use></g></g><g><use xlink:href="#a1ian587XO" opacity="1" fill="#7cb5de" fill-opacity="1"></use><g><use xlink:href="#a1ian587XO" opacity="1" fill-opacity="0" stroke="#000000" stroke-width="1" stroke-opacity="0"></use></g></g><g><use xlink:href="#d4ejWbabWQ" opacity="1" fill="#3e9bde" fill-opacity="1"></use><g><use xlink:href="#d4ejWbabWQ" opacity="1" fill-opacity="0" stroke="#000000" stroke-width="1" stroke-opacity="0"></use></g></g><g><use xlink:href="#c2H9sEVbS0" opacity="1" fill="#0186e7" fill-opacity="1"></use><g><use xlink:href="#c2H9sEVbS0" opacity="1" fill-opacity="0" stroke="#000000" stroke-width="1" stroke-opacity="0"></use></g></g><g><use xlink:href="#aubTFCYuE" opacity="1" fill="#045996" fill-opacity="1"></use><g><use xlink:href="#aubTFCYuE" opacity="1" fill-opacity="0" stroke="#000000" stroke-width="1" stroke-opacity="0"></use></g></g><g><use xlink:href="#aaSSEuJM" opacity="1" fill="#045996" fill-opacity="1"></use><g><use xlink:href="#aaSSEuJM" opacity="1" fill-opacity="0" stroke="#000000" stroke-width="1" stroke-opacity="0"></use></g></g></g></g></svg>