<svg height="511pt" viewBox="0 0 511 511.99822" width="511pt" xmlns="http://www.w3.org/2000/svg"><path d="m124.347656 395.875c-1.976562 0-3.953125-.753906-5.464844-2.265625-3.015624-3.015625-3.015624-7.90625 0-10.925781l38.378907-38.378906c3.015625-3.015626 7.910156-3.015626 10.925781 0 3.019531 3.019531 3.019531 7.910156 0 10.929687l-38.375 38.375c-1.507812 1.511719-3.488281 2.265625-5.464844 2.265625zm0 0" fill="#707487"/><path d="m82.238281 393.445312-77.621093 77.621094c-5.492188 5.492188-5.492188 14.480469 0 19.972656l16.84375 16.839844c5.492187 5.492188 14.476562 5.492188 19.96875 0l77.621093-77.621094zm0 0" fill="#f77c7c"/><path d="m40.675781 491.035156c-5.492187-5.488281-5.492187-14.476562 0-19.96875 6.460938-6.460937 35.089844-35.089844 59.589844-59.589844l-18.027344-18.03125-77.621093 77.621094c-5.492188 5.492188-5.492188 14.480469 0 19.972656l16.84375 16.839844c5.492187 5.492188 14.476562 5.492188 19.96875 0l8.042968-8.042968zm0 0" fill="#f25c5c"/><path d="m137.132812 392.203125-16.839843-16.84375c-5.492188-5.488281-14.476563-5.488281-19.96875 0l-18.601563 18.601563 36.8125 36.8125 18.597656-18.601563c5.492188-5.492187 5.492188-14.476563 0-19.96875zm0 0" fill="#f25c5c"/><path d="m128.335938 383.40625-8.042969-8.046875c-5.492188-5.488281-14.476563-5.492187-19.96875 0l-18.601563 18.601563 18.027344 18.027343c11.167969-11.164062 21.519531-21.515625 28.585938-28.582031zm0 0" fill="#e54a4a"/><path d="m451.75 60.742188c-80.988281-80.988282-212.296875-80.988282-293.285156 0-80.988282 80.988281-80.988282 212.296874 0 293.285156 80.988281 80.988281 212.296875 80.988281 293.285156 0 80.992188-80.988282 80.992188-212.296875 0-293.285156zm0 0" fill="#e4eaf8"/><path d="m194.992188 354.027344c-80.988282-80.988282-80.988282-212.300782 0-293.289063 35.847656-35.84375 81.550781-55.8125 128.382812-59.925781-58.984375-5.183594-119.761719 14.78125-164.90625 59.925781-80.992188 80.992188-80.992188 212.300781 0 293.289063 45.144531 45.144531 105.921875 65.113281 164.90625 59.929687-46.832031-4.117187-92.535156-24.082031-128.382812-59.929687zm0 0" fill="#d8dce5"/><path d="m184.273438 328.144531c-32.257813-32.257812-50.019532-75.144531-50.019532-120.761719 0-94.390624 76.378906-170.78125 170.78125-170.78125 94.390625 0 170.78125 76.382813 170.78125 170.78125 0 45.617188-17.765625 88.503907-50.023437 120.761719-66.585938 66.585938-174.929688 66.589844-241.519531 0zm0 0" fill="#00aaf0"/><path d="m220.332031 328.144531c-32.257812-32.257812-50.019531-75.144531-50.019531-120.761719 0-88.300781 66.84375-160.839843 152.75-169.835937-5.925781-.621094-11.941406-.945313-18.03125-.945313-94.398438 0-170.78125 76.390626-170.78125 170.78125 0 45.617188 17.765625 88.503907 50.023438 120.761719 37.875 37.875 89.261718 54.195313 138.789062 48.984375-37.542969-3.953125-74.019531-20.273437-102.730469-48.984375zm0 0" fill="#059adb"/><path d="m213.839844 288.632812 65.9375-25.722656 25.835937 32.300782 25.605469-32.011719 65.257812 25.433593s7.375 3.085938 14.035157 10.492188c22.199219-25.453125 34.324219-57.683594 34.324219-91.78125 0-77.308594-62.558594-139.875-139.875-139.875-77.308594 0-139.875 62.558594-139.875 139.875 0 34.195312 12.195312 66.511719 34.515624 92 6.714844-7.570312 14.238282-10.710938 14.238282-10.710938zm0 0" fill="#5bddfc"/><path d="m201.832031 207.34375c0-71.085938 52.890625-129.691406 121.5-138.675781-6.011719-.785157-12.140625-1.199219-18.371093-1.199219-77.308594 0-139.875 62.558594-139.875 139.875 0 34.195312 12.195312 66.511719 34.515624 92 6.714844-7.570312 14.242188-10.710938 14.242188-10.710938l11.035156-4.304687c-14.996094-22.652344-23.046875-49.199219-23.046875-76.984375zm0 0" fill="#00c3ff"/><path d="m198.855469 298.355469c2.335937 2.722656 4.785156 5.371093 7.351562 7.933593 54.535157 54.539063 143.273438 54.539063 197.8125 0 2.632813-2.636718 5.148438-5.363281 7.542969-8.164062-6.878906-8.152344-14.9375-11.515625-14.9375-11.515625l-65.257812-25.429687-25.601563 32.011718-25.835937-32.304687-65.9375 25.722656c0 .003906-8.214844 3.421875-15.136719 11.746094zm0 0" fill="#e4eaf8"/><path d="m198.855469 298.355469c2.335937 2.722656 4.785156 5.371093 7.351562 7.933593 3.035157 3.035157 6.183594 5.890626 9.417969 8.589844 6.839844-16.496094 14.769531-23.292968 14.769531-23.292968l27.484375-22.09375-43.882812 17.121093c-.003906 0-8.21875 3.417969-15.140625 11.742188zm0 0" fill="#d8dce5"/><path d="m331.367188 261.179688-1.035157-.402344v-22.195313c-7.097656 4.929688-15.691406 7.824219-24.949219 7.824219-9.6875 0-18.203124-2.675781-25.167968-7.15625v21.527344l-.285156.109375 25.835937 32.304687zm0 0" fill="#f0a479"/><path d="m315.988281 245.097656c-3.398437.847656-6.949219 1.308594-10.605469 1.308594-9.6875 0-18.203124-2.675781-25.167968-7.15625v21.527344l-.285156.109375 25.835937 32.304687 10.222656-12.78125zm0 0" fill="#e5966e"/><path d="m261.488281 173.628906v-2.839844c0-2.371093 2.023438-4.242187 4.371094-4.0625 23.121094 1.660157 45.625-4.660156 63.417969-16.28125 1.664062-1.085937 3.863281-.816406 5.210937.636719 15.214844 16.347657 14.089844 14.6875 14.089844 16.820313v3.351562.117188 2.207031c5.851563-.382813 12.402344 1.75 16.261719 5.332031v-25.339844c0-33.03125-26.773438-59.808593-59.808594-59.808593-33.03125 0-59.808594 26.777343-59.808594 59.808593v25.816407c4.066406-3.710938 10.867188-5.933594 16.265625-5.757813zm0 0" fill="#5e6377"/><path d="m273.8125 153.570312c0-28.101562 19.386719-51.667968 45.515625-58.074218-4.582031-1.125-9.367187-1.734375-14.296875-1.734375-33.03125 0-59.808594 26.777343-59.808594 59.808593v25.816407c4.066406-3.710938 10.867188-5.933594 16.265625-5.757813v-2.839844c0-2.371093 2.023438-4.242187 4.367188-4.066406 2.664062.191406 5.316406.265625 7.957031.25zm0 0" fill="#52586d"/><path d="m349.308594 170.484375v32.941406c0 .417969-.019532.828125-.03125 1.242188 11.074218.726562 20.980468-7.316407 20.980468-17.089844 0-9.792969-9.90625-17.796875-20.949218-17.09375zm0 0" fill="#f0a479"/><path d="m261.007812 203.429688v-32.890626c-9.96875-.320312-21.195312 7.132813-21.195312 17.039063 0 9.761719 10.003906 17.820313 21.226562 17.089844-.011718-.414063-.03125-.824219-.03125-1.238281zm0 0" fill="#f0a479"/><path d="m364.847656 175.925781c-3.917968-3.632812-9.554687-5.824219-15.539062-5.441406v32.941406c0 .417969-.019532.828125-.03125 1.242188 6.003906.394531 11.644531-1.800781 15.570312-5.441407zm0 0" fill="#e5966e"/><path d="m261.007812 199.421875c-3.472656-3.09375-5.65625-7.28125-5.65625-11.84375 0-4.445313 2.265626-8.394531 5.65625-11.371094v-5.667969c-9.96875-.320312-21.195312 7.132813-21.195312 17.039063 0 9.761719 10.003906 17.816406 21.226562 17.089844-.011718-.414063-.03125-.824219-.03125-1.242188zm0 0" fill="#e5966e"/><path d="m292.195312 346.59375c8.722657.800781 17.503907.792969 26.226563-.03125l-4.996094-32.695312h-16.246093zm0 0" fill="#f25c5c"/><path d="m321.710938 300.117188-16.402344-11.589844-16.398438 11.589844 8.242188 14.011718h16.3125zm0 0" fill="#e54a4a"/><path d="m313.5 314.378906-.078125-.511718h-16.242187l-4.984376 32.726562c5.421876.5 10.871094.683594 16.316407.554688zm0 0" fill="#e54a4a"/><path d="m307.851562 298.324219 5.65625-4-8.199218-5.796875-16.398438 11.589844 8.242188 14.011718h16.3125l.042968-.074218-6.621093-11.253907c-.890625-1.515625-.472657-3.460937.964843-4.476562zm0 0" fill="#d83f3f"/><path d="m280.214844 260.777344-20.132813 7.855468 21.929688 32.089844c1.71875 2.167969 4.925781 2.371094 6.898437.433594l16.402344-12.628906zm0 0" fill="#d8dce5"/><path d="m330.402344 260.777344 20.136718 7.855468-21.929687 32.089844c-1.71875 2.167969-4.925781 2.371094-6.898437.433594l-16.402344-12.628906zm0 0" fill="#d8dce5"/><path d="m334.488281 146.960938c-1.347656-1.453126-3.550781-1.722657-5.210937-.636719-17.792969 11.625-41.328125 18.972656-64.449219 17.3125-2.347656-.179688-4.371094 1.691406-4.371094 4.0625v35.730469c0 22.964843 17.996094 43.9375 45.210938 43.9375 24.230469 0 43.941406-19.710938 43.941406-43.9375v-38.617188c0-2.136719.089844-1.503906-15.121094-17.851562zm0 0" fill="#f7b594"/><path d="m289.242188 203.429688v-41.222657c-8.007813 1.457031-16.234376 2.015625-24.414063 1.425781-2.34375-.175781-4.371094 1.695313-4.371094 4.0625v35.734376c0 22.960937 17.996094 43.9375 45.210938 43.9375 4.871093 0 9.554687-.808594 13.9375-2.277344-18.71875-6.019532-30.363281-23.191406-30.363281-41.660156zm0 0" fill="#f0a479"/></svg>