<?xml version="1.0" encoding="UTF-8" standalone="no"?>
<!DOCTYPE svg PUBLIC "-//W3C//DTD SVG 1.1//EN" "http://www.w3.org/Graphics/SVG/1.1/DTD/svg11.dtd">
<svg version="1.1" xmlns="http://www.w3.org/2000/svg" xmlns:xlink="http://www.w3.org/1999/xlink" preserveAspectRatio="xMidYMid meet" viewBox="0 0 640 640" width="640" height="640"><defs><path d="M77.24 88.28C77.24 109.34 77.24 277.81 77.24 298.87C77.24 408.84 125 514.89 211.46 582.84C242.06 606.9 278.16 627.59 320 640C361.84 627.59 397.93 606.9 428.54 582.84C515 514.89 562.76 408.84 562.76 298.87C562.76 277.81 562.76 109.34 562.76 88.28C393.57 88.28 320 0 320 0C271.45 17.66 246.43 88.28 77.24 88.28Z" id="bpbZ6nG9Q"></path><path d="M252.38 530.79C184.17 477.19 143.45 390.49 143.45 298.87C143.45 284.02 143.45 165.23 143.45 150.38C225 139.97 282.91 111.6 320 86.4C357.09 111.6 415 139.97 496.55 150.38C496.55 165.23 496.55 284.02 496.55 298.87C496.55 390.49 455.83 477.19 387.63 530.79C366.1 547.71 343.43 560.86 320 570.05C296.57 560.86 273.9 547.71 252.38 530.79Z" id="lszLiyYFr"></path><path d="M444.12 224.46C434.33 235.64 385.43 291.53 297.39 392.13C249.43 344.17 222.79 317.53 217.46 312.2C213.14 307.88 206.17 307.88 201.85 312.2C197.54 316.51 197.54 323.49 201.85 327.8C210.68 336.63 281.3 407.25 290.13 416.08C292.2 418.15 295.01 419.31 297.93 419.31C298.05 419.31 298.17 419.31 298.3 419.31C301.35 419.21 304.22 417.84 306.23 415.55C321.68 397.89 445.26 256.65 460.71 239C464.73 234.41 464.26 227.43 459.69 223.43C455.1 219.41 448.13 219.88 444.12 224.46Z" id="b6mnPiRpx"></path></defs><g><g><g><use xlink:href="#bpbZ6nG9Q" opacity="1" fill="#556080" fill-opacity="1"></use><g><use xlink:href="#bpbZ6nG9Q" opacity="1" fill-opacity="0" stroke="#000000" stroke-width="1" stroke-opacity="0"></use></g></g><g><use xlink:href="#lszLiyYFr" opacity="1" fill="#3899e1" fill-opacity="1"></use><g><use xlink:href="#lszLiyYFr" opacity="1" fill-opacity="0" stroke="#000000" stroke-width="1" stroke-opacity="0"></use></g></g><g><use xlink:href="#b6mnPiRpx" opacity="1" fill="#ffffff" fill-opacity="1"></use><g><use xlink:href="#b6mnPiRpx" opacity="1" fill-opacity="0" stroke="#000000" stroke-width="1" stroke-opacity="0"></use></g></g></g></g></svg>