<?xml version="1.0" encoding="iso-8859-1"?>
<!-- Generator: Adobe Illustrator 21.0.0, SVG Export Plug-In . SVG Version: 6.00 Build 0)  -->
<svg xmlns="http://www.w3.org/2000/svg" xmlns:xlink="http://www.w3.org/1999/xlink" version="1.1" id="Capa_1" x="0px" y="0px" viewBox="0 0 512.088 512.088" style="enable-background:new 0 0 512.088 512.088;" xml:space="preserve" width="512" height="512">
<g>
	<path style="fill:#E0E0E0;" d="M408.074,0h-304.06C79.808,0,60.115,19.693,60.115,43.899v424.29   c0,24.206,19.693,43.899,43.899,43.899h304.06c24.206,0,43.899-19.693,43.899-43.899V43.899C451.973,19.693,432.28,0,408.074,0z"/>
	<path style="fill:#C4C4C4;" d="M408.074,0h-34.482c24.206,0,43.899,19.693,43.899,43.899v424.29   c0,24.206-19.693,43.899-43.899,43.899h34.482c24.206,0,43.899-19.693,43.899-43.899V43.899C451.973,19.693,432.28,0,408.074,0z"/>
	<path style="fill:#66BAEA;" d="M414.609,53.938H97.479c-4.142,0-7.5,3.358-7.5,7.5V432.02c0,4.142,3.358,7.5,7.5,7.5h317.13   c4.142,0,7.5-3.358,7.5-7.5V61.438C422.109,57.296,418.751,53.938,414.609,53.938z"/>
	<path style="fill:#3AAAE4;" d="M414.609,53.938h-27V439.52h27c4.142,0,7.5-3.358,7.5-7.5V61.438   C422.109,57.296,418.751,53.938,414.609,53.938z"/>
	<path style="fill:#67676B;" d="M256.044,450.725c-12.599,0-22.848,10.25-22.848,22.848c0,12.599,10.249,22.848,22.848,22.848   c12.599,0,22.848-10.25,22.848-22.848C278.892,460.975,268.642,450.725,256.044,450.725z"/>
	<path style="fill:#67676B;" d="M288.448,41.817c4.142,0,7.5-3.358,7.5-7.5c0-4.142-3.358-7.5-7.5-7.5h-34.184   c-4.142,0-7.5,3.358-7.5,7.5c0,4.142,3.358,7.5,7.5,7.5H288.448z"/>
	<circle style="fill:#67676B;" cx="225.637" cy="34.285" r="7.5"/>
</g>















</svg>
