<?xml version="1.0" encoding="utf-8"?>
<!-- Svg Vector Icons : http://www.onlinewebfonts.com/icon -->
<!DOCTYPE svg PUBLIC "-//W3C//DTD SVG 1.1//EN" "http://www.w3.org/Graphics/SVG/1.1/DTD/svg11.dtd">
<svg version="1.1" xmlns="http://www.w3.org/2000/svg" xmlns:xlink="http://www.w3.org/1999/xlink" x="0px" y="0px" viewBox="0 0 1000 1000" enable-background="new 0 0 1000 1000" xml:space="preserve">
<g fill="#3899e1"><g transform="translate(0.000000,512.000000) scale(0.100000,-0.100000)"><path d="M2442.5,5012.8c-86.3-287.6-120.8-381.6-191.7-525.4c-95.9-187.9-197.5-312.6-256.9-312.6c-57.5,0-113.1,82.5-138.1,201.3c-51.8,249.3-233.9,306.8-435.3,134.2c-101.6-86.3-197.5-274.2-197.5-387.3c0-111.2,42.2-149.6,184.1-166.8c149.6-17.3,218.6-78.6,218.6-195.6c0-51.8-13.4-97.8-40.3-130.4c-53.7-67.1-220.5-180.2-414.2-278l-157.2-78.6l57.5-138.1c136.1-329.8,320.2-533.1,483.2-533.1c69,0,92,40.3,111.2,205.2c21.1,168.7,51.8,230.1,124.6,247.4c141.9,36.4,429.5-241.6,429.5-414.2c0-90.1-36.4-122.7-178.3-159.2c-120.8-32.6-186-76.7-186-128.5c0-55.6,115-207.1,212.8-280c92-67.1,297.2-163,404.6-187.9c51.8-11.5,51.8-11.5,138.1,260.8c117,370.1,214.8,519.6,341.3,519.6c74.8,0,101.6-34.5,149.6-199.4c21.1-69,53.7-140,72.9-157.2c130.4-118.9,444.9,109.3,477.5,345.2c13.4,107.4-44.1,166.8-212.9,222.4c-168.7,53.7-218.6,111.2-184.1,212.8c34.5,105.5,134.2,182.2,675,517.7l130.4,78.6l-57.5,120.8c-115.1,243.5-268.5,406.5-383.5,406.5c-74.8,0-149.6-67.1-164.9-145.7c-7.7-38.3-34.5-94-59.4-124.6c-92-109.3-287.6-63.3-441,103.5c-80.5,88.2-130.4,212.9-109.3,272.3c15.3,40.3,86.3,67.1,176.4,67.1c90.1,0,191.8,61.4,207.1,124.6c40.3,161.1-140,304.9-584.8,458.3C2505.7,5016.6,2446.3,5030.1,2442.5,5012.8z"/><path d="M5729.1,4347.4c-115.1-38.3-191.8-111.2-191.8-182.2c0-24.9,30.7-80.5,67.1-124.6c36.4-44.1,72.9-101.6,78.6-126.6c24.9-95.9-88.2-161.1-274.2-161.1c-176.4,0-341.3,49.9-749.8,224.4c-28.8,11.5-122.7-186-166.8-354.7c-40.3-159.2-40.3-385.4,0-469.8c47.9-101.6,118.9-122.7,262.7-78.6c115,34.5,117,34.5,186-5.8c182.2-105.5,226.3-416.1,78.6-565.7c-71-69-103.5-67.1-230.1,13.4c-140,88.2-226.3,90.1-295.3,7.7c-40.3-46-49.9-78.6-49.9-161.1c0-95.9,44.1-272.3,105.5-418l26.8-67.1l178.3,46c370.1,94,625.1,76.7,732.5-51.8c61.4-72.9,61.4-107.4,1.9-220.5c-26.8-49.9-47.9-122.7-47.9-163c0-201.3,293.3-301,444.8-151.5c74.8,76.7,71,151.5-13.4,262.7c-72.9,95.9-84.4,164.9-36.4,232c92,134.2,347.1,145.7,744,34.5c136.1-38.3,249.3-67.1,251.2-65.2c3.8,3.8,40.3,74.8,82.4,159.2c97.8,197.5,138.1,333.6,138.1,473.6c0,94-7.7,120.8-47.9,159.1c-53.7,55.6-132.3,61.4-235.9,17.3c-109.3-46-243.5-42.2-297.2,7.7c-124.6,117-118.9,423.8,7.7,569.5c103.6,118.9,224.3,124.6,379.7,23c141.9-94,199.4-78.6,224.3,55.6c24.9,138.1-15.4,477.5-78.6,655.8c-5.8,17.3-32.6,11.5-99.7-23c-245.4-122.7-638.5-222.4-780.4-195.6c-69,13.4-107.4,55.6-107.4,120.8c0,21.1,40.3,95.9,88.2,168.7c70.9,109.3,84.4,145.7,76.7,191.8c-17.3,80.5-97.8,155.3-193.7,180.2C5876.8,4393.4,5853.8,4391.5,5729.1,4347.4z"/><path d="M7136.6,3877.6c5.7-15.3,24.9-103.5,42.2-195.6c40.3-222.4,30.7-464-26.9-573.3c-61.3-118.9-151.5-138.1-249.3-55.6c-82.4,69-189.8,109.3-255,95.9c-76.7-17.3-147.7-109.3-161.1-209c-17.3-107.4,7.7-180.2,70.9-228.2c49.9-38.4,51.8-38.4,205.2,1.9c184.1,47.9,260.8,34.5,339.4-59.4c47.9-57.5,49.8-67.1,40.3-233.9c-11.5-209-80.5-416.1-245.4-738.2c-178.3-343.2-276.1-682.6-222.5-757.4c28.8-36.4,30.7-36.4,155.4,15.3c70.9,28.8,136.1,51.8,147.6,51.8c61.3,0,157.2-70.9,205.2-151.5c44.1-74.8,51.8-109.3,51.8-232c0-118.9-9.6-161.1-51.8-241.6c-28.8-53.7-80.5-122.7-113.1-151.5c-69.1-55.6-136.2-57.5-299.2-7.7c-65.2,19.2-88.2,19.2-105.5,1.9c-61.3-61.4,11.5-299.1,145.8-473.6c84.3-113.1,99.7-180.3,59.4-268.5c-82.5-170.7-471.7-354.7-749.8-354.7c-107.4,0-128.5,5.7-184.1,55.6c-55.6,49.9-63.3,67.1-61.3,149.6c0,53.7,19.2,124.6,42.2,172.6c61.4,117,57.5,239.7-7.7,291.4c-134.2,105.5-322.1,90.1-404.6-34.5c-51.8-74.8-57.5-195.6-15.3-270.4c65.2-113.1,17.2-297.2-90.1-356.7c-138-76.7-584.8,38.3-1302,337.5c-255,107.4-327.9,115.1-352.8,38.4c-7.7-21.1,7.7-78.6,36.4-140c28.8-57.5,49.9-132.3,49.9-166.8c0-153.4-151.5-266.5-385.4-283.8c-235.8-17.3-416.1,61.3-498.6,216.7c-46,84.4-46,84.4-11.5,214.8c40.3,159.2,40.3,168.7,1.9,205.2c-61.4,61.4-297.2,23-546.5-88.2c-78.6-34.5-132.3-70.9-132.3-88.2c0-51.8,195.6-391.2,393.1-684.6c245.4-362.4,301.1-462.1,368.2-652c51.8-145.8,53.7-168.7,51.8-489c0-214.8-11.5-412.3-32.6-546.5c-65.2-425.7-216.7-953-427.6-1482.2c-57.5-143.8-103.5-268.5-103.5-276.1c0-9.6,928.1-15.3,2063.3-15.3c1643.3,0,2061.3,5.8,2053.7,24.9c-82.4,195.6-109.3,274.2-128.5,377.8c-34.5,176.4-28.8,571.4,7.7,786.2c63.3,368.2,124.6,475.5,314.4,569.5c99.7,47.9,126.6,53.7,301.1,51.8c105.5-1.9,299.1-11.5,431.4-23c245.4-19.2,563.8-3.8,684.6,36.4c178.3,57.5,237.8,297.2,168.8,667.3c-36.4,186-23,249.3,74.8,383.5c88.2,118.9,90.1,187.9,9.6,266.5l-59.5,57.5l88.2,84.4c109.3,105.5,113.1,153.4,28.8,347.1c-80.6,189.8-92.1,295.3-36.4,362.4c23,30.7,74.8,61.3,118.9,74.8c448.7,118.9,469.8,308.7,94,822.6c-362.4,494.7-435.3,628.9-456.4,851.4c-7.6,99.7,0,145.7,59.5,322.1c47.9,141.9,69,239.7,69,318.3c0,128.5-155.3,738.3-249.3,970.3c-186,469.8-513.9,983.7-755.5,1187C7236.3,3885.3,7109.7,3944.7,7136.6,3877.6z"/><path d="M3293.8,2010c-109.3-23-184.1-72.9-218.6-143.8c-40.3-86.3-38.3-117,17.3-237.8c26.8-57.5,47.9-120.8,47.9-141.9c0-67.1-97.8-143.8-203.3-157.2c-145.7-19.2-473.6,47.9-738.2,151.5c-70.9,26.8-172.6-375.8-143.8-573.3c19.2-120.8,86.3-193.7,161.1-174.5c28.8,5.7,101.6,17.3,161.1,23c103.5,9.6,113.1,7.7,168.7-47.9c53.7-53.7,57.5-67.1,57.5-201.3c0-293.4-80.5-356.7-335.6-260.8c-124.6,46-186,38.3-216.7-30.7c-47.9-105.5-5.8-375.8,99.7-609.8l47.9-111.2l72.9,32.6c477.5,203.3,676.9,228.2,813,101.6c69-63.3,67.1-84.4-1.9-278c-38.3-105.5-40.3-124.6-17.3-172.6c15.3-30.7,57.5-74.8,94-99.7c59.4-40.3,84.4-44.1,222.4-38.4c134.2,5.8,163,13.4,222.4,57.5c95.9,72.9,107.4,141.9,46,276.1c-88.2,193.7-51.8,276.1,122.7,276.1c99.7,0,180.2-23,466-132.3c113.1-44.1,214.8-78.6,224.4-78.6c23,0,61.4,88.2,155.3,368.2c59.4,176.4,72.9,233.9,55.6,262.7c-28.8,55.6-88.2,65.2-182.2,30.7c-159.2-61.3-301.1,1.9-383.5,170.7c-47.9,97.8-51.8,122.7-44.1,266.5c11.5,187.9,67.1,331.7,163,416.1c74.8,67.1,168.7,74.8,280,28.8c101.6-42.2,178.3-36.4,212.9,13.4c53.7,76.7,36.4,166.8-65.2,360.5c-53.7,99.7-115.1,222.4-136.1,272.3l-40.3,90.1l-157.2-84.4c-205.2-111.2-421.9-182.2-556.1-182.2c-168.8,0-199.4,59.4-122.7,243.5c36.4,90.1,38.3,105.5,13.4,170.7c-15.3,38.3-47.9,86.3-74.8,105.5C3525.9,2011.9,3389.7,2031.1,3293.8,2010z"/><path d="M4981.3,1866.1c-197.5-53.7-364.3-117-364.3-134.2c0-9.6,46-117,103.5-239.7c132.3-287.6,164.9-385.4,164.9-502.4c0-76.7-9.6-105.5-47.9-141.9c-59.4-61.4-130.4-61.4-262.7,0c-124.6,59.4-186,59.4-255,5.8c-82.5-65.2-124.6-176.4-124.6-337.5c0-278,95.9-362.4,326-281.9c113.1,40.3,161.1,36.4,224.4-17.3c49.8-44.1,53.7-57.5,51.8-178.3c-1.9-105.5-19.2-176.4-94-377.8c-86.3-228.2-92-247.4-61.4-270.4c61.4-44.1,396.9-145.7,521.6-157.2c235.8-21.1,283.8,26.8,220.5,228.2c-21.1,67.1-38.4,145.7-38.4,174.5c0,63.3,46,180.3,92,230.1C5568,11.9,5884.4-11.1,6022.5-176c71-84.4,72.9-226.3,3.8-354.7c-59.5-113.1-59.5-136.1,1.9-193.7c107.4-99.7,379.7-42.2,607.8,124.6c71,53.7,128.5,109.3,128.5,126.6c0,17.3-47.9,113.1-105.5,212.9c-163,287.6-186,496.6-61.4,586.7l51.8,40.3l101.6-44.1c155.4-69,189.8-71,262.7-9.6c151.5,128.5,176.4,389.2,47.9,517.7c-59.4,59.4-111.2,57.5-224.4-1.9c-113.1-59.4-187.9-61.4-241.6-3.8c-34.5,36.4-42.2,67.1-42.2,172.6c0,138.1,36.4,255,161.1,512c38.4,78.6,69,151.5,69,163c0,34.5-410.4,164.9-552.3,174.5c-109.3,9.6-141.9,3.8-214.7-34.5c-109.3-55.6-118.9-107.4-42.2-214.8c30.7-42.2,61.4-97.8,69.1-120.8c21.1-65.2-36.4-164.9-138.1-237.8c-118.9-86.3-281.9-99.7-395-32.6c-109.3,65.2-186,168.7-197.5,268.5c-7.7,69,0,97.8,49.9,170.7c49.9,74.8,57.5,97.8,42.2,138C5366.7,1885.3,5178.8,1921.7,4981.3,1866.1z"/></g></g>
</svg>