<svg width="21" height="11" viewBox="0 0 21 11" fill="none" xmlns="http://www.w3.org/2000/svg">
<path d="M10.6239 7.02296H16.3385V8.44333C16.3385 8.901 16.7102 9.27977 17.1593 9.27977H18.3053C18.7545 9.27977 19.1261 8.901 19.1261 8.44333V7.02296H19.5443C20.3496 7.02296 21 6.47059 21 5.79197C21 5.11334 20.3496 4.56098 19.5443 4.56098H10.7168C10.2987 1.97274 8.0841 0 5.43587 0C2.44694 0 0.0310059 2.46198 0.0310059 5.50789C0.0310059 8.53802 2.44694 11.0158 5.43587 11.0158C7.89826 11 9.97348 9.31134 10.6239 7.02296ZM5.43587 8.60115C3.76331 8.60115 2.40047 7.21234 2.40047 5.50789C2.40047 3.80344 3.74782 2.39885 5.43587 2.39885C7.12393 2.39885 8.47127 3.78766 8.47127 5.50789C8.47127 7.22812 7.10844 8.60115 5.43587 8.60115Z" fill="black"/>
</svg>
