<svg width="12" height="12" viewBox="0 0 12 12" fill="none" xmlns="http://www.w3.org/2000/svg">
<circle cx="6" cy="6" r="6" fill="#2D9CDB"/>
<path d="M5.01236 7.25H6.77236C6.77236 6.491 8.53236 5.985 8.53236 4.346C8.53236 2.916 7.27836 2.146 6.02436 2.146C4.80336 2.146 3.73636 2.784 3.25236 3.917L4.77036 4.786C4.99036 4.269 5.35336 3.862 5.95836 3.862C6.51936 3.862 6.77236 4.115 6.77236 4.5C6.77236 5.468 5.01236 5.963 5.01236 7.25ZM5.89236 10.154C6.46436 10.154 6.93736 9.681 6.93736 9.109C6.93736 8.537 6.46436 8.064 5.89236 8.064C5.32036 8.064 4.84736 8.537 4.84736 9.109C4.84736 9.681 5.32036 10.154 5.89236 10.154Z" fill="white"/>
</svg>
