<svg width="64" height="64" xmlns="http://www.w3.org/2000/svg">

 <g>
  <title>background</title>
  <rect fill="none" id="canvas_background" height="402" width="582" y="-1" x="-1"/>
 </g>
 <g>
  <title>Layer 1</title>
  <path fill="#2d9cdb" id="Fill-133" d="m49.6,54l-35.2,0c-2.4,0 -4.4,-2 -4.4,-4.4l0,-32.3c0,-2.4 1.6,-4.4 3.7,-4.4l2.2,0l0,2.9l-2.2,0c-0.3,0 -0.7,0.6 -0.7,1.5l0,32.3c0,0.8 0.7,1.5 1.5,1.5l35.2,0c0.8,0 1.5,-0.7 1.5,-1.5l0,-32.3c0,-0.9 -0.5,-1.5 -0.7,-1.5l-2.2,0l0,-2.9l2.2,0c2,0 3.7,2 3.7,4.4l0,32.3c-0.2,2.4 -2.2,4.4 -4.6,4.4" class="st0"/>
  <path fill="#2d9cdb" id="Fill-134" d="m20.3,18.8c-0.8,0 -1.5,-0.7 -1.5,-1.5l0,-5.9c0,-0.8 0.7,-1.5 1.5,-1.5s1.5,0.7 1.5,1.5l0,5.9c-0.1,0.8 -0.7,1.5 -1.5,1.5" class="st0"/>
  <path fill="#2d9cdb" id="Fill-135" d="m43.7,18.8c-0.8,0 -1.5,-0.7 -1.5,-1.5l0,-5.9c0,-0.8 0.7,-1.5 1.5,-1.5s1.5,0.7 1.5,1.5l0,5.9c0,0.8 -0.7,1.5 -1.5,1.5" class="st0"/>
  <polygon fill="#2d9cdb" points="24.699999809265137,12.899993896484375 39.30000019073486,12.899993896484375 39.30000019073486,15.899993896484375 24.699999809265137,15.899993896484375 " id="Fill-136" class="st0"/>
  <polygon fill="#2d9cdb" points="12.899999618530273,21.70001220703125 51.10000038146973,21.70001220703125 51.10000038146973,24.70001220703125 12.899999618530273,24.70001220703125 " id="Fill-137" class="st0"/>
  <polygon fill="#02bb83" points="45.12844558060169,27.600006103515625 48.02844329178333,27.600006103515625 48.02844329178333,30.5 45.12844558060169,30.5 " id="Fill-138" class="st0"/>
  <polygon fill="#02bb83" points="39.228444054722786,27.600006103515625 42.228444054722786,27.600006103515625 42.228444054722786,30.5 39.228444054722786,30.5 " id="Fill-139" class="st0"/>
  <polygon fill="#02bb83" points="33.42844481766224,27.600006103515625 36.328446343541145,27.600006103515625 36.328446343541145,30.5 33.42844481766224,30.5 " id="Fill-140" class="st0"/>
  <polygon fill="#02bb83" points="27.528445199131966,27.600006103515625 30.42844481766224,27.600006103515625 30.42844481766224,30.5 27.528445199131966,30.5 " id="Fill-141" class="st0"/>
  <polygon fill="#02bb83" points="21.628445580601692,27.600006103515625 24.628445580601692,27.600006103515625 24.628445580601692,30.5 21.628445580601692,30.5 " id="Fill-142" class="st0"/>
  <polygon fill="#02bb83" points="45.12844558060169,33.5 48.02844329178333,33.5 48.02844329178333,36.399993896484375 45.12844558060169,36.399993896484375 " id="Fill-143" class="st0"/>
  <polygon fill="#02bb83" points="39.228444054722786,33.5 42.228444054722786,33.5 42.228444054722786,36.399993896484375 39.228444054722786,36.399993896484375 " id="Fill-144" class="st0"/>
  <polygon fill="#02bb83" points="33.42844481766224,33.5 36.328446343541145,33.5 36.328446343541145,36.399993896484375 33.42844481766224,36.399993896484375 " id="Fill-145" class="st0"/>
  <polygon fill="#02bb83" points="27.528445199131966,33.5 30.42844481766224,33.5 30.42844481766224,36.399993896484375 27.528445199131966,36.399993896484375 " id="Fill-146" class="st0"/>
  <polygon fill="#02bb83" points="21.628445580601692,33.5 24.628445580601692,33.5 24.628445580601692,36.399993896484375 21.628445580601692,36.399993896484375 " id="Fill-147" class="st0"/>
  <polygon fill="#02bb83" points="15.828444436192513,33.5 18.72844596207142,33.5 18.72844596207142,36.399993896484375 15.828444436192513,36.399993896484375 " id="Fill-148" class="st0"/>
  <polygon fill="#02bb83" points="45.12844558060169,39.29998779296875 48.02844329178333,39.29998779296875 48.02844329178333,42.29998779296875 45.12844558060169,42.29998779296875 " id="Fill-149" class="st0"/>
  <polygon fill="#02bb83" points="39.228444054722786,39.29998779296875 42.228444054722786,39.29998779296875 42.228444054722786,42.29998779296875 39.228444054722786,42.29998779296875 " id="Fill-150" class="st0"/>
  <polygon fill="#02bb83" points="33.42844481766224,39.29998779296875 36.328446343541145,39.29998779296875 36.328446343541145,42.29998779296875 33.42844481766224,42.29998779296875 " id="Fill-151" class="st0"/>
  <polygon fill="#02bb83" points="27.528445199131966,39.29998779296875 30.42844481766224,39.29998779296875 30.42844481766224,42.29998779296875 27.528445199131966,42.29998779296875 " id="Fill-152" class="st0"/>
  <polygon fill="#02bb83" points="21.628445580601692,39.29998779296875 24.628445580601692,39.29998779296875 24.628445580601692,42.29998779296875 21.628445580601692,42.29998779296875 " id="Fill-153" class="st0"/>
  <polygon fill="#02bb83" points="15.828444436192513,39.29998779296875 18.72844596207142,39.29998779296875 18.72844596207142,42.29998779296875 15.828444436192513,42.29998779296875 " id="Fill-154" class="st0"/>
  <polygon fill="#02bb83" points="39.30000019073486,45.20001220703125 42.30000019073486,45.20001220703125 42.30000019073486,48.100006103515625 39.30000019073486,48.100006103515625 " id="Fill-155" class="st0"/>
  <polygon fill="#02bb83" points="33.5,45.20001220703125 36.40000009536743,45.20001220703125 36.40000009536743,48.100006103515625 33.5,48.100006103515625 " id="Fill-156" class="st0"/>
  <polygon fill="#02bb83" points="27.59999990463257,45.20001220703125 30.5,45.20001220703125 30.5,48.100006103515625 27.59999990463257,48.100006103515625 " id="Fill-157" class="st0"/>
  <polygon fill="#02bb83" points="21.699999809265137,45.20001220703125 24.699999809265137,45.20001220703125 24.699999809265137,48.100006103515625 21.699999809265137,48.100006103515625 " id="Fill-158" class="st0"/>
  <polygon fill="#02bb83" points="15.899999618530273,45.20001220703125 18.800000190734863,45.20001220703125 18.800000190734863,48.100006103515625 15.899999618530273,48.100006103515625 " id="Fill-159" class="st0"/>
 </g>
</svg>