<svg width="26" height="26" xmlns="http://www.w3.org/2000/svg">

 <g>
  <title>background</title>
  <rect fill="none" id="canvas_background" height="402" width="582" y="-1" x="-1"/>
 </g>
 <g>
  <title>Layer 1</title>
  <path id="svg_1" fill="#2d9cdb" d="m23.43359,8.87891l-2.25378,0l-0.64563,-3.65821c-0.14844,-0.84961 -0.96973,-1.41699 -1.81152,-1.2705l-16.42871,2.89746c-0.84864,0.14941 -1.41797,0.96289 -1.26758,1.8125l1.75195,9.93359c0.07227,0.41113 0.29981,0.77051 0.6416,1.01074c0.2666,0.18653 0.57617,0.28418 0.89453,0.28418c0.0918,0 0.1836,-0.00781 0.27539,-0.02441l0.59864,-0.10572l0,0.75123c0,0.8623 0.70117,1.56347 1.56347,1.56347l16.68164,0c0.86231,0 1.56446,-0.70117 1.56446,-1.56347l0,-10.06739c0,-0.8623 -0.70215,-1.56347 -1.56446,-1.56347zm0.06446,1.56347l0,1.47071l-16.80365,0l0.05755,-1.53418l16.7461,0.06347zm-19.24317,7.8916l-1.46875,-8.32812l-0.23144,-1.68164l16.50293,-2.84375l0.59948,3.39844l-12.90515,0c-0.8623,0 -1.56347,0.70117 -1.56347,1.56347l0,7.76691l-0.9336,0.12469zm19.17871,2.23926l-16.74511,-0.06347l0,-5.94141l16.80957,0l0,5.94141c0,0.03515 -0.0293,0.06347 -0.06446,0.06347z"/>
 </g>
</svg>