<svg width="48" height="48" xmlns="http://www.w3.org/2000/svg">

 <g>
  <title>background</title>
  <rect fill="none" id="canvas_background" height="402" width="582" y="-1" x="-1"/>
 </g>
 <g>
  <title>Layer 1</title>
  <path fill="#2d9cdb" id="svg_3" d="m42,2c2.206,0 4,1.794 4,4l0,36c0,2.206 -1.794,4 -4,4l-36,0c-2.206,0 -4,-1.794 -4,-4l0,-36c0,-2.206 1.794,-4 4,-4l36,0m0,-2l-36,0c-3.3,0 -6,2.7 -6,6l0,36c0,3.3 2.7,6 6,6l36,0c3.3,0 6,-2.7 6,-6l0,-36c0,-3.3 -2.7,-6 -6,-6l0,0z"/>
  <path fill="#2d9cdb" id="svg_5" d="m24,8c8.822,0 16,7.178 16,16s-7.178,16 -16,16s-16,-7.178 -16,-16s7.178,-16 16,-16m0,-2c-9.941,0 -18,8.059 -18,18c0,9.941 8.059,18 18,18c9.94,0 18,-8.059 18,-18c0,-9.941 -8.06,-18 -18,-18l0,0z"/>
  <path fill="#02bb83" id="svg_7" d="m30,25l-7,0l0,-11c0,-0.553 0.448,-1 1,-1s1,0.447 1,1l0,9l5,0c0.552,0 1,0.447 1,1s-0.448,1 -1,1z"/>
 </g>
</svg>